<svg width="500" height="60" viewBox="0 0 500 60" fill="none" xmlns="http://www.w3.org/2000/svg">
<rect width="500" height="60" rx="10" fill="#2A9D90"/>
<path d="M123.4 37.5V23.1H129.48C129.62 23.1 129.807 23.1067 130.04 23.12C130.28 23.1267 130.493 23.1467 130.68 23.18C131.54 23.3133 132.243 23.5967 132.79 24.03C133.343 24.4633 133.75 25.01 134.01 25.67C134.27 26.3233 134.4 27.0533 134.4 27.86C134.4 28.6667 134.267 29.4 134 30.06C133.74 30.7133 133.333 31.2567 132.78 31.69C132.233 32.1233 131.533 32.4067 130.68 32.54C130.493 32.5667 130.28 32.5867 130.04 32.6C129.8 32.6133 129.613 32.62 129.48 32.62H126.12V37.5H123.4ZM126.12 30.08H129.36C129.5 30.08 129.653 30.0733 129.82 30.06C129.987 30.0467 130.14 30.02 130.28 29.98C130.647 29.88 130.93 29.7133 131.13 29.48C131.33 29.24 131.467 28.9767 131.54 28.69C131.62 28.3967 131.66 28.12 131.66 27.86C131.66 27.6 131.62 27.3267 131.54 27.04C131.467 26.7467 131.33 26.4833 131.13 26.25C130.93 26.01 130.647 25.84 130.28 25.74C130.14 25.7 129.987 25.6733 129.82 25.66C129.653 25.6467 129.5 25.64 129.36 25.64H126.12V30.08ZM136.408 37.5V26.7H138.808V29.34L138.548 29C138.688 28.6267 138.874 28.2867 139.108 27.98C139.341 27.6733 139.628 27.42 139.968 27.22C140.228 27.06 140.511 26.9367 140.818 26.85C141.124 26.7567 141.441 26.7 141.768 26.68C142.094 26.6533 142.421 26.66 142.748 26.7V29.24C142.448 29.1467 142.098 29.1167 141.698 29.15C141.304 29.1767 140.948 29.2667 140.628 29.42C140.308 29.5667 140.038 29.7633 139.818 30.01C139.598 30.25 139.431 30.5367 139.318 30.87C139.204 31.1967 139.148 31.5667 139.148 31.98V37.5H136.408ZM149.315 37.8C148.228 37.8 147.275 37.5567 146.455 37.07C145.635 36.5833 144.995 35.9133 144.535 35.06C144.081 34.2 143.855 33.2133 143.855 32.1C143.855 30.9733 144.088 29.9833 144.555 29.13C145.021 28.27 145.665 27.6 146.485 27.12C147.305 26.64 148.248 26.4 149.315 26.4C150.401 26.4 151.355 26.6433 152.175 27.13C153.001 27.6167 153.645 28.29 154.105 29.15C154.565 30.0033 154.795 30.9867 154.795 32.1C154.795 33.22 154.561 34.21 154.095 35.07C153.635 35.9233 152.991 36.5933 152.165 37.08C151.345 37.56 150.395 37.8 149.315 37.8ZM149.315 35.26C150.188 35.26 150.838 34.9667 151.265 34.38C151.698 33.7867 151.915 33.0267 151.915 32.1C151.915 31.14 151.695 30.3733 151.255 29.8C150.821 29.2267 150.175 28.94 149.315 28.94C148.721 28.94 148.235 29.0733 147.855 29.34C147.475 29.6067 147.191 29.9767 147.005 30.45C146.825 30.9233 146.735 31.4733 146.735 32.1C146.735 33.0667 146.951 33.8367 147.385 34.41C147.825 34.9767 148.468 35.26 149.315 35.26ZM161.754 37.8C160.634 37.8 159.674 37.55 158.874 37.05C158.074 36.55 157.46 35.87 157.034 35.01C156.607 34.15 156.394 33.18 156.394 32.1C156.394 31.0067 156.614 30.03 157.054 29.17C157.5 28.31 158.127 27.6333 158.934 27.14C159.74 26.6467 160.694 26.4 161.794 26.4C163.067 26.4 164.134 26.7233 164.994 27.37C165.86 28.01 166.414 28.8867 166.654 30L163.934 30.72C163.774 30.16 163.494 29.7233 163.094 29.41C162.7 29.0967 162.254 28.94 161.754 28.94C161.18 28.94 160.71 29.08 160.344 29.36C159.977 29.6333 159.707 30.01 159.534 30.49C159.36 30.9633 159.274 31.5 159.274 32.1C159.274 33.04 159.48 33.8033 159.894 34.39C160.314 34.97 160.934 35.26 161.754 35.26C162.367 35.26 162.834 35.12 163.154 34.84C163.474 34.56 163.714 34.16 163.874 33.64L166.654 34.22C166.347 35.3667 165.767 36.25 164.914 36.87C164.06 37.49 163.007 37.8 161.754 37.8ZM173.381 37.8C172.274 37.8 171.298 37.5633 170.451 37.09C169.611 36.61 168.951 35.9533 168.471 35.12C167.998 34.28 167.761 33.32 167.761 32.24C167.761 31.06 167.994 30.0333 168.461 29.16C168.928 28.2867 169.571 27.61 170.391 27.13C171.211 26.6433 172.154 26.4 173.221 26.4C174.354 26.4 175.318 26.6667 176.111 27.2C176.904 27.7333 177.491 28.4833 177.871 29.45C178.251 30.4167 178.384 31.5533 178.271 32.86H175.581V31.86C175.581 30.76 175.404 29.97 175.051 29.49C174.704 29.0033 174.134 28.76 173.341 28.76C172.414 28.76 171.731 29.0433 171.291 29.61C170.858 30.17 170.641 31 170.641 32.1C170.641 33.1067 170.858 33.8867 171.291 34.44C171.731 34.9867 172.374 35.26 173.221 35.26C173.754 35.26 174.211 35.1433 174.591 34.91C174.971 34.6767 175.261 34.34 175.461 33.9L178.181 34.68C177.774 35.6667 177.131 36.4333 176.251 36.98C175.378 37.5267 174.421 37.8 173.381 37.8ZM169.801 32.86V30.84H176.961V32.86H169.801ZM185.549 37.8C184.442 37.8 183.466 37.5633 182.619 37.09C181.779 36.61 181.119 35.9533 180.639 35.12C180.166 34.28 179.929 33.32 179.929 32.24C179.929 31.06 180.162 30.0333 180.629 29.16C181.096 28.2867 181.739 27.61 182.559 27.13C183.379 26.6433 184.322 26.4 185.389 26.4C186.522 26.4 187.486 26.6667 188.279 27.2C189.072 27.7333 189.659 28.4833 190.039 29.45C190.419 30.4167 190.552 31.5533 190.439 32.86H187.749V31.86C187.749 30.76 187.572 29.97 187.219 29.49C186.872 29.0033 186.302 28.76 185.509 28.76C184.582 28.76 183.899 29.0433 183.459 29.61C183.026 30.17 182.809 31 182.809 32.1C182.809 33.1067 183.026 33.8867 183.459 34.44C183.899 34.9867 184.542 35.26 185.389 35.26C185.922 35.26 186.379 35.1433 186.759 34.91C187.139 34.6767 187.429 34.34 187.629 33.9L190.349 34.68C189.942 35.6667 189.299 36.4333 188.419 36.98C187.546 37.5267 186.589 37.8 185.549 37.8ZM181.969 32.86V30.84H189.129V32.86H181.969ZM197.077 37.8C196.084 37.8 195.214 37.55 194.467 37.05C193.72 36.55 193.137 35.87 192.717 35.01C192.304 34.15 192.097 33.18 192.097 32.1C192.097 31 192.307 30.0233 192.727 29.17C193.154 28.31 193.75 27.6333 194.517 27.14C195.284 26.6467 196.184 26.4 197.217 26.4C198.244 26.4 199.107 26.65 199.807 27.15C200.507 27.65 201.037 28.33 201.397 29.19C201.757 30.05 201.937 31.02 201.937 32.1C201.937 33.18 201.754 34.15 201.387 35.01C201.027 35.87 200.487 36.55 199.767 37.05C199.047 37.55 198.15 37.8 197.077 37.8ZM197.517 35.38C198.124 35.38 198.607 35.2433 198.967 34.97C199.334 34.6967 199.597 34.3133 199.757 33.82C199.917 33.3267 199.997 32.7533 199.997 32.1C199.997 31.4467 199.917 30.8733 199.757 30.38C199.597 29.8867 199.34 29.5033 198.987 29.23C198.64 28.9567 198.184 28.82 197.617 28.82C197.01 28.82 196.51 28.97 196.117 29.27C195.73 29.5633 195.444 29.96 195.257 30.46C195.07 30.9533 194.977 31.5 194.977 32.1C194.977 32.7067 195.067 33.26 195.247 33.76C195.427 34.2533 195.704 34.6467 196.077 34.94C196.45 35.2333 196.93 35.38 197.517 35.38ZM199.997 37.5V30.1H199.657V23.1H202.397V37.5H199.997ZM212.541 37.5V25.64H208.001V23.1H219.801V25.64H215.261V37.5H212.541ZM224.666 37.8C223.58 37.8 222.626 37.5567 221.806 37.07C220.986 36.5833 220.346 35.9133 219.886 35.06C219.433 34.2 219.206 33.2133 219.206 32.1C219.206 30.9733 219.44 29.9833 219.906 29.13C220.373 28.27 221.016 27.6 221.836 27.12C222.656 26.64 223.6 26.4 224.666 26.4C225.753 26.4 226.706 26.6433 227.526 27.13C228.353 27.6167 228.996 28.29 229.456 29.15C229.916 30.0033 230.146 30.9867 230.146 32.1C230.146 33.22 229.913 34.21 229.446 35.07C228.986 35.9233 228.343 36.5933 227.516 37.08C226.696 37.56 225.746 37.8 224.666 37.8ZM224.666 35.26C225.54 35.26 226.19 34.9667 226.616 34.38C227.05 33.7867 227.266 33.0267 227.266 32.1C227.266 31.14 227.046 30.3733 226.606 29.8C226.173 29.2267 225.526 28.94 224.666 28.94C224.073 28.94 223.586 29.0733 223.206 29.34C222.826 29.6067 222.543 29.9767 222.356 30.45C222.176 30.9233 222.086 31.4733 222.086 32.1C222.086 33.0667 222.303 33.8367 222.736 34.41C223.176 34.9767 223.82 35.26 224.666 35.26ZM236.349 37.5V23.1H238.789L243.549 32.66L248.309 23.1H250.749V37.5H248.209V28.9L244.029 37.5H243.069L238.889 28.9V37.5H236.349ZM256.556 37.8C255.783 37.8 255.126 37.6533 254.586 37.36C254.053 37.06 253.646 36.6633 253.366 36.17C253.093 35.67 252.956 35.12 252.956 34.52C252.956 34.02 253.033 33.5633 253.186 33.15C253.34 32.7367 253.586 32.3733 253.926 32.06C254.273 31.74 254.736 31.4733 255.316 31.26C255.716 31.1133 256.193 30.9833 256.746 30.87C257.3 30.7567 257.926 30.65 258.626 30.55C259.326 30.4433 260.096 30.3267 260.936 30.2L259.956 30.74C259.956 30.1 259.803 29.63 259.496 29.33C259.19 29.03 258.676 28.88 257.956 28.88C257.556 28.88 257.14 28.9767 256.706 29.17C256.273 29.3633 255.97 29.7067 255.796 30.2L253.336 29.42C253.61 28.5267 254.123 27.8 254.876 27.24C255.63 26.68 256.656 26.4 257.956 26.4C258.91 26.4 259.756 26.5467 260.496 26.84C261.236 27.1333 261.796 27.64 262.176 28.36C262.39 28.76 262.516 29.16 262.556 29.56C262.596 29.96 262.616 30.4067 262.616 30.9V37.5H260.236V35.28L260.576 35.74C260.05 36.4667 259.48 36.9933 258.866 37.32C258.26 37.64 257.49 37.8 256.556 37.8ZM257.136 35.66C257.636 35.66 258.056 35.5733 258.396 35.4C258.743 35.22 259.016 35.0167 259.216 34.79C259.423 34.5633 259.563 34.3733 259.636 34.22C259.776 33.9267 259.856 33.5867 259.876 33.2C259.903 32.8067 259.916 32.48 259.916 32.22L260.716 32.42C259.91 32.5533 259.256 32.6667 258.756 32.76C258.256 32.8467 257.853 32.9267 257.546 33C257.24 33.0733 256.97 33.1533 256.736 33.24C256.47 33.3467 256.253 33.4633 256.086 33.59C255.926 33.71 255.806 33.8433 255.726 33.99C255.653 34.1367 255.616 34.3 255.616 34.48C255.616 34.7267 255.676 34.94 255.796 35.12C255.923 35.2933 256.1 35.4267 256.326 35.52C256.553 35.6133 256.823 35.66 257.136 35.66ZM265.196 37.5L265.216 23.1H267.976V31.9L271.636 26.7H274.996L271.096 32.1L275.256 37.5H271.716L267.976 32.3V37.5H265.196ZM281.076 37.8C279.97 37.8 278.993 37.5633 278.146 37.09C277.306 36.61 276.646 35.9533 276.166 35.12C275.693 34.28 275.456 33.32 275.456 32.24C275.456 31.06 275.69 30.0333 276.156 29.16C276.623 28.2867 277.266 27.61 278.086 27.13C278.906 26.6433 279.85 26.4 280.916 26.4C282.05 26.4 283.013 26.6667 283.806 27.2C284.6 27.7333 285.186 28.4833 285.566 29.45C285.946 30.4167 286.08 31.5533 285.966 32.86H283.276V31.86C283.276 30.76 283.1 29.97 282.746 29.49C282.4 29.0033 281.83 28.76 281.036 28.76C280.11 28.76 279.426 29.0433 278.986 29.61C278.553 30.17 278.336 31 278.336 32.1C278.336 33.1067 278.553 33.8867 278.986 34.44C279.426 34.9867 280.07 35.26 280.916 35.26C281.45 35.26 281.906 35.1433 282.286 34.91C282.666 34.6767 282.956 34.34 283.156 33.9L285.876 34.68C285.47 35.6667 284.826 36.4333 283.946 36.98C283.073 37.5267 282.116 37.8 281.076 37.8ZM277.496 32.86V30.84H284.656V32.86H277.496ZM292.228 37.5V23.1H298.308C298.448 23.1 298.635 23.1067 298.868 23.12C299.108 23.1267 299.321 23.1467 299.508 23.18C300.368 23.3133 301.071 23.5967 301.618 24.03C302.171 24.4633 302.578 25.01 302.838 25.67C303.098 26.3233 303.228 27.0533 303.228 27.86C303.228 28.6667 303.095 29.4 302.828 30.06C302.568 30.7133 302.161 31.2567 301.608 31.69C301.061 32.1233 300.361 32.4067 299.508 32.54C299.321 32.5667 299.108 32.5867 298.868 32.6C298.628 32.6133 298.441 32.62 298.308 32.62H294.948V37.5H292.228ZM294.948 30.08H298.188C298.328 30.08 298.481 30.0733 298.648 30.06C298.815 30.0467 298.968 30.02 299.108 29.98C299.475 29.88 299.758 29.7133 299.958 29.48C300.158 29.24 300.295 28.9767 300.368 28.69C300.448 28.3967 300.488 28.12 300.488 27.86C300.488 27.6 300.448 27.3267 300.368 27.04C300.295 26.7467 300.158 26.4833 299.958 26.25C299.758 26.01 299.475 25.84 299.108 25.74C298.968 25.7 298.815 25.6733 298.648 25.66C298.481 25.6467 298.328 25.64 298.188 25.64H294.948V30.08ZM308.021 37.8C307.248 37.8 306.591 37.6533 306.051 37.36C305.518 37.06 305.111 36.6633 304.831 36.17C304.558 35.67 304.421 35.12 304.421 34.52C304.421 34.02 304.498 33.5633 304.651 33.15C304.804 32.7367 305.051 32.3733 305.391 32.06C305.738 31.74 306.201 31.4733 306.781 31.26C307.181 31.1133 307.658 30.9833 308.211 30.87C308.764 30.7567 309.391 30.65 310.091 30.55C310.791 30.4433 311.561 30.3267 312.401 30.2L311.421 30.74C311.421 30.1 311.268 29.63 310.961 29.33C310.654 29.03 310.141 28.88 309.421 28.88C309.021 28.88 308.604 28.9767 308.171 29.17C307.738 29.3633 307.434 29.7067 307.261 30.2L304.801 29.42C305.074 28.5267 305.588 27.8 306.341 27.24C307.094 26.68 308.121 26.4 309.421 26.4C310.374 26.4 311.221 26.5467 311.961 26.84C312.701 27.1333 313.261 27.64 313.641 28.36C313.854 28.76 313.981 29.16 314.021 29.56C314.061 29.96 314.081 30.4067 314.081 30.9V37.5H311.701V35.28L312.041 35.74C311.514 36.4667 310.944 36.9933 310.331 37.32C309.724 37.64 308.954 37.8 308.021 37.8ZM308.601 35.66C309.101 35.66 309.521 35.5733 309.861 35.4C310.208 35.22 310.481 35.0167 310.681 34.79C310.888 34.5633 311.028 34.3733 311.101 34.22C311.241 33.9267 311.321 33.5867 311.341 33.2C311.368 32.8067 311.381 32.48 311.381 32.22L312.181 32.42C311.374 32.5533 310.721 32.6667 310.221 32.76C309.721 32.8467 309.318 32.9267 309.011 33C308.704 33.0733 308.434 33.1533 308.201 33.24C307.934 33.3467 307.718 33.4633 307.551 33.59C307.391 33.71 307.271 33.8433 307.191 33.99C307.118 34.1367 307.081 34.3 307.081 34.48C307.081 34.7267 307.141 34.94 307.261 35.12C307.388 35.2933 307.564 35.4267 307.791 35.52C308.018 35.6133 308.288 35.66 308.601 35.66ZM317.456 42.3L319.536 36.58L319.576 38.26L314.876 26.7H317.696L320.856 34.88H320.216L323.356 26.7H326.076L319.976 42.3H317.456ZM340.482 37.5V31.12C340.482 30.4067 340.312 29.8533 339.972 29.46C339.639 29.06 339.175 28.86 338.582 28.86C338.202 28.86 337.872 28.95 337.592 29.13C337.312 29.3033 337.092 29.55 336.932 29.87C336.779 30.1833 336.702 30.5467 336.702 30.96L335.562 30.2C335.562 29.46 335.735 28.8067 336.082 28.24C336.435 27.6733 336.905 27.2333 337.492 26.92C338.085 26.6 338.742 26.44 339.462 26.44C340.695 26.44 341.625 26.8067 342.252 27.54C342.885 28.2667 343.202 29.22 343.202 30.4V37.5H340.482ZM327.462 37.5V26.7H329.862V30.28H330.202V37.5H327.462ZM333.982 37.5V31.12C333.982 30.4067 333.812 29.8533 333.472 29.46C333.139 29.06 332.675 28.86 332.082 28.86C331.515 28.86 331.059 29.0567 330.712 29.45C330.372 29.8367 330.202 30.34 330.202 30.96L329.062 30.16C329.062 29.4533 329.239 28.82 329.592 28.26C329.945 27.7 330.419 27.2567 331.012 26.93C331.612 26.6033 332.282 26.44 333.022 26.44C333.869 26.44 334.562 26.62 335.102 26.98C335.649 27.34 336.052 27.82 336.312 28.42C336.572 29.02 336.702 29.68 336.702 30.4V37.5H333.982ZM350.627 37.8C349.52 37.8 348.544 37.5633 347.697 37.09C346.857 36.61 346.197 35.9533 345.717 35.12C345.244 34.28 345.007 33.32 345.007 32.24C345.007 31.06 345.24 30.0333 345.707 29.16C346.174 28.2867 346.817 27.61 347.637 27.13C348.457 26.6433 349.4 26.4 350.467 26.4C351.6 26.4 352.564 26.6667 353.357 27.2C354.15 27.7333 354.737 28.4833 355.117 29.45C355.497 30.4167 355.63 31.5533 355.517 32.86H352.827V31.86C352.827 30.76 352.65 29.97 352.297 29.49C351.95 29.0033 351.38 28.76 350.587 28.76C349.66 28.76 348.977 29.0433 348.537 29.61C348.104 30.17 347.887 31 347.887 32.1C347.887 33.1067 348.104 33.8867 348.537 34.44C348.977 34.9867 349.62 35.26 350.467 35.26C351 35.26 351.457 35.1433 351.837 34.91C352.217 34.6767 352.507 34.34 352.707 33.9L355.427 34.68C355.02 35.6667 354.377 36.4333 353.497 36.98C352.624 37.5267 351.667 37.8 350.627 37.8ZM347.047 32.86V30.84H354.207V32.86H347.047ZM364.842 37.5V32.4C364.842 32.1533 364.829 31.84 364.802 31.46C364.775 31.0733 364.692 30.6867 364.552 30.3C364.412 29.9133 364.182 29.59 363.862 29.33C363.549 29.07 363.102 28.94 362.522 28.94C362.289 28.94 362.039 28.9767 361.772 29.05C361.505 29.1233 361.255 29.2667 361.022 29.48C360.789 29.6867 360.595 29.9933 360.442 30.4C360.295 30.8067 360.222 31.3467 360.222 32.02L358.662 31.28C358.662 30.4267 358.835 29.6267 359.182 28.88C359.529 28.1333 360.049 27.53 360.742 27.07C361.442 26.61 362.322 26.38 363.382 26.38C364.229 26.38 364.919 26.5233 365.452 26.81C365.985 27.0967 366.399 27.46 366.692 27.9C366.992 28.34 367.205 28.8 367.332 29.28C367.459 29.7533 367.535 30.1867 367.562 30.58C367.589 30.9733 367.602 31.26 367.602 31.44V37.5H364.842ZM357.462 37.5V26.7H359.882V30.28H360.222V37.5H357.462ZM376.677 37.5C375.93 37.64 375.197 37.7 374.477 37.68C373.764 37.6667 373.124 37.5433 372.557 37.31C371.997 37.07 371.57 36.6867 371.277 36.16C371.01 35.6667 370.87 35.1667 370.857 34.66C370.844 34.1467 370.837 33.5667 370.837 32.92V23.7H373.557V32.76C373.557 33.18 373.56 33.56 373.567 33.9C373.58 34.2333 373.65 34.5 373.777 34.7C374.017 35.08 374.4 35.2867 374.927 35.32C375.454 35.3533 376.037 35.3267 376.677 35.24V37.5ZM368.997 28.8V26.7H376.677V28.8H368.997Z" fill="#F0F0F0"/>
</svg>
