<svg width="191" height="60" viewBox="0 0 191 60" fill="none" xmlns="http://www.w3.org/2000/svg">
<rect width="191" height="60" rx="10" fill="#2A9D90"/>
<path d="M49.4 37.5V23.1H55.11C56.0833 23.1 56.88 23.2967 57.5 23.69C58.1267 24.0767 58.59 24.5733 58.89 25.18C59.1967 25.7867 59.35 26.4133 59.35 27.06C59.35 27.8533 59.16 28.5267 58.78 29.08C58.4067 29.6333 57.8967 30.0067 57.25 30.2V29.7C58.1567 29.9067 58.8433 30.3367 59.31 30.99C59.7833 31.6433 60.02 32.3867 60.02 33.22C60.02 34.0733 59.8567 34.82 59.53 35.46C59.2033 36.1 58.7167 36.6 58.07 36.96C57.43 37.32 56.6367 37.5 55.69 37.5H49.4ZM51.84 35.23H55.39C55.81 35.23 56.1867 35.1467 56.52 34.98C56.8533 34.8067 57.1133 34.5667 57.3 34.26C57.4933 33.9467 57.59 33.5767 57.59 33.15C57.59 32.7633 57.5067 32.4167 57.34 32.11C57.1733 31.8033 56.93 31.56 56.61 31.38C56.29 31.1933 55.9067 31.1 55.46 31.1H51.84V35.23ZM51.84 28.85H55.08C55.4267 28.85 55.7367 28.7833 56.01 28.65C56.2833 28.5167 56.5 28.32 56.66 28.06C56.82 27.8 56.9 27.48 56.9 27.1C56.9 26.6 56.74 26.1833 56.42 25.85C56.1 25.5167 55.6533 25.35 55.08 25.35H51.84V28.85ZM66.7872 37.8C65.7072 37.8 64.7639 37.5567 63.9572 37.07C63.1505 36.5833 62.5239 35.9133 62.0772 35.06C61.6372 34.2 61.4172 33.2133 61.4172 32.1C61.4172 30.9667 61.6439 29.9733 62.0972 29.12C62.5505 28.2667 63.1805 27.6 63.9872 27.12C64.7939 26.64 65.7272 26.4 66.7872 26.4C67.8739 26.4 68.8205 26.6433 69.6272 27.13C70.4339 27.6167 71.0605 28.29 71.5072 29.15C71.9539 30.0033 72.1772 30.9867 72.1772 32.1C72.1772 33.22 71.9505 34.21 71.4972 35.07C71.0505 35.9233 70.4239 36.5933 69.6172 37.08C68.8105 37.56 67.8672 37.8 66.7872 37.8ZM66.7872 35.54C67.7472 35.54 68.4605 35.22 68.9272 34.58C69.3939 33.94 69.6272 33.1133 69.6272 32.1C69.6272 31.0533 69.3905 30.22 68.9172 29.6C68.4439 28.9733 67.7339 28.66 66.7872 28.66C66.1405 28.66 65.6072 28.8067 65.1872 29.1C64.7739 29.3867 64.4672 29.79 64.2672 30.31C64.0672 30.8233 63.9672 31.42 63.9672 32.1C63.9672 33.1467 64.2039 33.9833 64.6772 34.61C65.1572 35.23 65.8605 35.54 66.7872 35.54ZM79.1505 37.8C78.0705 37.8 77.1271 37.5567 76.3205 37.07C75.5138 36.5833 74.8871 35.9133 74.4405 35.06C74.0005 34.2 73.7805 33.2133 73.7805 32.1C73.7805 30.9667 74.0071 29.9733 74.4605 29.12C74.9138 28.2667 75.5438 27.6 76.3505 27.12C77.1571 26.64 78.0905 26.4 79.1505 26.4C80.2371 26.4 81.1838 26.6433 81.9905 27.13C82.7971 27.6167 83.4238 28.29 83.8705 29.15C84.3171 30.0033 84.5405 30.9867 84.5405 32.1C84.5405 33.22 84.3138 34.21 83.8605 35.07C83.4138 35.9233 82.7871 36.5933 81.9805 37.08C81.1738 37.56 80.2305 37.8 79.1505 37.8ZM79.1505 35.54C80.1105 35.54 80.8238 35.22 81.2905 34.58C81.7571 33.94 81.9905 33.1133 81.9905 32.1C81.9905 31.0533 81.7538 30.22 81.2805 29.6C80.8071 28.9733 80.0971 28.66 79.1505 28.66C78.5038 28.66 77.9705 28.8067 77.5505 29.1C77.1371 29.3867 76.8305 29.79 76.6305 30.31C76.4305 30.8233 76.3305 31.42 76.3305 32.1C76.3305 33.1467 76.5671 33.9833 77.0405 34.61C77.5205 35.23 78.2238 35.54 79.1505 35.54ZM86.7238 37.5L86.7438 23.1H89.1838V31.9L93.1338 26.7H96.1438L91.9538 32.1L96.5038 37.5H93.3138L89.1838 32.3V37.5H86.7238ZM101.509 37.5V23.1H103.949L110.629 33.25V23.1H113.069V37.5H110.629L103.949 27.35V37.5H101.509ZM120.635 37.8C119.555 37.8 118.612 37.5567 117.805 37.07C116.998 36.5833 116.372 35.9133 115.925 35.06C115.485 34.2 115.265 33.2133 115.265 32.1C115.265 30.9667 115.492 29.9733 115.945 29.12C116.398 28.2667 117.028 27.6 117.835 27.12C118.642 26.64 119.575 26.4 120.635 26.4C121.722 26.4 122.668 26.6433 123.475 27.13C124.282 27.6167 124.908 28.29 125.355 29.15C125.802 30.0033 126.025 30.9867 126.025 32.1C126.025 33.22 125.798 34.21 125.345 35.07C124.898 35.9233 124.272 36.5933 123.465 37.08C122.658 37.56 121.715 37.8 120.635 37.8ZM120.635 35.54C121.595 35.54 122.308 35.22 122.775 34.58C123.242 33.94 123.475 33.1133 123.475 32.1C123.475 31.0533 123.238 30.22 122.765 29.6C122.292 28.9733 121.582 28.66 120.635 28.66C119.988 28.66 119.455 28.8067 119.035 29.1C118.622 29.3867 118.315 29.79 118.115 30.31C117.915 30.8233 117.815 31.42 117.815 32.1C117.815 33.1467 118.052 33.9833 118.525 34.61C119.005 35.23 119.708 35.54 120.635 35.54ZM130.138 37.5L126.838 26.68L129.198 26.7L131.308 33.63L133.448 26.7H135.478L137.608 33.63L139.728 26.7H142.088L138.788 37.5H136.908L134.458 30.07L132.018 37.5H130.138Z" fill="#F0F0F0"/>
</svg>
