<svg width="257" height="57" viewBox="0 0 257 57" fill="none" xmlns="http://www.w3.org/2000/svg">
<rect width="257" height="57" rx="10" fill="#2A9D90"/>
<path d="M55.84 36.3C54.9067 36.3 54.03 36.1367 53.21 35.81C52.3967 35.4767 51.68 34.99 51.06 34.35C50.4467 33.71 49.9667 32.9267 49.62 32C49.2733 31.0667 49.1 30 49.1 28.8C49.1 27.2267 49.3933 25.8833 49.98 24.77C50.5667 23.65 51.37 22.7933 52.39 22.2C53.41 21.6 54.56 21.3 55.84 21.3C57.6133 21.3 59.0167 21.7133 60.05 22.54C61.09 23.36 61.7933 24.5133 62.16 26L59.7 26.39C59.4267 25.5367 58.98 24.8567 58.36 24.35C57.74 23.8367 56.95 23.58 55.99 23.58C55.0233 23.5667 54.22 23.7767 53.58 24.21C52.94 24.6433 52.4567 25.2533 52.13 26.04C51.81 26.8267 51.65 27.7467 51.65 28.8C51.65 29.8533 51.81 30.77 52.13 31.55C52.45 32.3233 52.93 32.9267 53.57 33.36C54.2167 33.7933 55.0233 34.0167 55.99 34.03C56.7167 34.0367 57.3533 33.9067 57.9 33.64C58.4467 33.3667 58.8933 32.9567 59.24 32.41C59.5867 31.8567 59.82 31.1667 59.94 30.34H57.4V28.45H62.5C62.5133 28.5567 62.5233 28.7133 62.53 28.92C62.5367 29.1267 62.54 29.25 62.54 29.29C62.54 30.65 62.27 31.86 61.73 32.92C61.1967 33.9733 60.43 34.8 59.43 35.4C58.43 36 57.2333 36.3 55.84 36.3ZM69.4584 36.3C68.3651 36.3 67.4051 36.0633 66.5784 35.59C65.7518 35.1167 65.1051 34.46 64.6384 33.62C64.1784 32.78 63.9484 31.8133 63.9484 30.72C63.9484 29.54 64.1751 28.5167 64.6284 27.65C65.0818 26.7767 65.7118 26.1 66.5184 25.62C67.3251 25.14 68.2584 24.9 69.3184 24.9C70.4384 24.9 71.3884 25.1633 72.1684 25.69C72.9551 26.21 73.5384 26.9467 73.9184 27.9C74.2984 28.8533 74.4418 29.9767 74.3484 31.27H71.9584V30.39C71.9518 29.2167 71.7451 28.36 71.3384 27.82C70.9318 27.28 70.2918 27.01 69.4184 27.01C68.4318 27.01 67.6984 27.3167 67.2184 27.93C66.7384 28.5367 66.4984 29.4267 66.4984 30.6C66.4984 31.6933 66.7384 32.54 67.2184 33.14C67.6984 33.74 68.3984 34.04 69.3184 34.04C69.9118 34.04 70.4218 33.91 70.8484 33.65C71.2818 33.3833 71.6151 33 71.8484 32.5L74.2284 33.22C73.8151 34.1933 73.1751 34.95 72.3084 35.49C71.4484 36.03 70.4984 36.3 69.4584 36.3ZM65.7384 31.27V29.45H73.1684V31.27H65.7384ZM82.9097 36C82.1964 36.1333 81.4964 36.19 80.8097 36.17C80.1297 36.1567 79.5197 36.0333 78.9797 35.8C78.4397 35.56 78.0297 35.1833 77.7497 34.67C77.503 34.2033 77.373 33.7267 77.3597 33.24C77.3464 32.7533 77.3397 32.2033 77.3397 31.59V22.2H79.7397V31.45C79.7397 31.8833 79.743 32.2633 79.7497 32.59C79.763 32.9167 79.833 33.1833 79.9597 33.39C80.1997 33.79 80.583 34.0133 81.1097 34.06C81.6364 34.1067 82.2364 34.08 82.9097 33.98V36ZM75.3797 27.09V25.2H82.9097V27.09H75.3797ZM92.2559 36.3C91.4759 36.3 90.8159 36.1533 90.2759 35.86C89.7359 35.56 89.3259 35.1633 89.0459 34.67C88.7726 34.1767 88.6359 33.6333 88.6359 33.04C88.6359 32.52 88.7226 32.0533 88.8959 31.64C89.0693 31.22 89.3359 30.86 89.6959 30.56C90.0559 30.2533 90.5226 30.0033 91.0959 29.81C91.5293 29.67 92.0359 29.5433 92.6159 29.43C93.2026 29.3167 93.8359 29.2133 94.5159 29.12C95.2026 29.02 95.9193 28.9133 96.6659 28.8L95.8059 29.29C95.8126 28.5433 95.6459 27.9933 95.3059 27.64C94.9659 27.2867 94.3926 27.11 93.5859 27.11C93.0993 27.11 92.6293 27.2233 92.1759 27.45C91.7226 27.6767 91.4059 28.0667 91.2259 28.62L89.0259 27.93C89.2926 27.0167 89.7993 26.2833 90.5459 25.73C91.2993 25.1767 92.3126 24.9 93.5859 24.9C94.5459 24.9 95.3893 25.0567 96.1159 25.37C96.8493 25.6833 97.3926 26.1967 97.7459 26.91C97.9393 27.29 98.0559 27.68 98.0959 28.08C98.1359 28.4733 98.1559 28.9033 98.1559 29.37V36H96.0459V33.66L96.3959 34.04C95.9093 34.82 95.3393 35.3933 94.6859 35.76C94.0393 36.12 93.2293 36.3 92.2559 36.3ZM92.7359 34.38C93.2826 34.38 93.7493 34.2833 94.1359 34.09C94.5226 33.8967 94.8293 33.66 95.0559 33.38C95.2893 33.1 95.4459 32.8367 95.5259 32.59C95.6526 32.2833 95.7226 31.9333 95.7359 31.54C95.7559 31.14 95.7659 30.8167 95.7659 30.57L96.5059 30.79C95.7793 30.9033 95.1559 31.0033 94.6359 31.09C94.1159 31.1767 93.6693 31.26 93.2959 31.34C92.9226 31.4133 92.5926 31.4967 92.3059 31.59C92.0259 31.69 91.7893 31.8067 91.5959 31.94C91.4026 32.0733 91.2526 32.2267 91.1459 32.4C91.0459 32.5733 90.9959 32.7767 90.9959 33.01C90.9959 33.2767 91.0626 33.5133 91.1959 33.72C91.3293 33.92 91.5226 34.08 91.7759 34.2C92.0359 34.32 92.3559 34.38 92.7359 34.38ZM116.033 36.3L111.923 32.21L113.433 30.7L117.523 34.79L116.033 36.3ZM110.853 36.3C109.413 36.3 108.18 35.9867 107.153 35.36C106.127 34.7267 105.337 33.8467 104.783 32.72C104.237 31.5933 103.963 30.2867 103.963 28.8C103.963 27.3133 104.237 26.0067 104.783 24.88C105.337 23.7533 106.127 22.8767 107.153 22.25C108.18 21.6167 109.413 21.3 110.853 21.3C112.293 21.3 113.527 21.6167 114.553 22.25C115.587 22.8767 116.377 23.7533 116.923 24.88C117.477 26.0067 117.753 27.3133 117.753 28.8C117.753 30.2867 117.477 31.5933 116.923 32.72C116.377 33.8467 115.587 34.7267 114.553 35.36C113.527 35.9867 112.293 36.3 110.853 36.3ZM110.853 34.03C111.82 34.0367 112.623 33.8233 113.263 33.39C113.91 32.9567 114.393 32.3467 114.713 31.56C115.04 30.7733 115.203 29.8533 115.203 28.8C115.203 27.7467 115.04 26.8333 114.713 26.06C114.393 25.28 113.91 24.6733 113.263 24.24C112.623 23.8067 111.82 23.5833 110.853 23.57C109.887 23.5633 109.083 23.7767 108.443 24.21C107.803 24.6433 107.32 25.2533 106.993 26.04C106.673 26.8267 106.513 27.7467 106.513 28.8C106.513 29.8533 106.673 30.77 106.993 31.55C107.313 32.3233 107.793 32.9267 108.433 33.36C109.08 33.7933 109.887 34.0167 110.853 34.03ZM123.794 36.31C122.994 36.31 122.334 36.1767 121.814 35.91C121.294 35.6433 120.88 35.3033 120.574 34.89C120.267 34.4767 120.04 34.0367 119.894 33.57C119.747 33.1033 119.65 32.6633 119.604 32.25C119.564 31.83 119.544 31.49 119.544 31.23V25.2H121.984V30.4C121.984 30.7333 122.007 31.11 122.054 31.53C122.1 31.9433 122.207 32.3433 122.374 32.73C122.547 33.11 122.8 33.4233 123.134 33.67C123.474 33.9167 123.93 34.04 124.504 34.04C124.81 34.04 125.114 33.99 125.414 33.89C125.714 33.79 125.984 33.62 126.224 33.38C126.47 33.1333 126.667 32.7967 126.814 32.37C126.96 31.9433 127.034 31.4033 127.034 30.75L128.464 31.36C128.464 32.28 128.284 33.1133 127.924 33.86C127.57 34.6067 127.047 35.2033 126.354 35.65C125.66 36.09 124.807 36.31 123.794 36.31ZM127.324 36V32.65H127.034V25.2H129.454V36H127.324ZM137.033 36.3C135.953 36.3 135.01 36.0567 134.203 35.57C133.397 35.0833 132.77 34.4133 132.323 33.56C131.883 32.7 131.663 31.7133 131.663 30.6C131.663 29.4667 131.89 28.4733 132.343 27.62C132.797 26.7667 133.427 26.1 134.233 25.62C135.04 25.14 135.973 24.9 137.033 24.9C138.12 24.9 139.067 25.1433 139.873 25.63C140.68 26.1167 141.307 26.79 141.753 27.65C142.2 28.5033 142.423 29.4867 142.423 30.6C142.423 31.72 142.197 32.71 141.743 33.57C141.297 34.4233 140.67 35.0933 139.863 35.58C139.057 36.06 138.113 36.3 137.033 36.3ZM137.033 34.04C137.993 34.04 138.707 33.72 139.173 33.08C139.64 32.44 139.873 31.6133 139.873 30.6C139.873 29.5533 139.637 28.72 139.163 28.1C138.69 27.4733 137.98 27.16 137.033 27.16C136.387 27.16 135.853 27.3067 135.433 27.6C135.02 27.8867 134.713 28.29 134.513 28.81C134.313 29.3233 134.213 29.92 134.213 30.6C134.213 31.6467 134.45 32.4833 134.923 33.11C135.403 33.73 136.107 34.04 137.033 34.04ZM150.957 36C150.243 36.1333 149.543 36.19 148.857 36.17C148.177 36.1567 147.567 36.0333 147.027 35.8C146.487 35.56 146.077 35.1833 145.797 34.67C145.55 34.2033 145.42 33.7267 145.407 33.24C145.393 32.7533 145.387 32.2033 145.387 31.59V22.2H147.787V31.45C147.787 31.8833 147.79 32.2633 147.797 32.59C147.81 32.9167 147.88 33.1833 148.007 33.39C148.247 33.79 148.63 34.0133 149.157 34.06C149.683 34.1067 150.283 34.08 150.957 33.98V36ZM143.427 27.09V25.2H150.957V27.09H143.427ZM157.642 36.3C156.549 36.3 155.589 36.0633 154.762 35.59C153.935 35.1167 153.289 34.46 152.822 33.62C152.362 32.78 152.132 31.8133 152.132 30.72C152.132 29.54 152.359 28.5167 152.812 27.65C153.265 26.7767 153.895 26.1 154.702 25.62C155.509 25.14 156.442 24.9 157.502 24.9C158.622 24.9 159.572 25.1633 160.352 25.69C161.139 26.21 161.722 26.9467 162.102 27.9C162.482 28.8533 162.625 29.9767 162.532 31.27H160.142V30.39C160.135 29.2167 159.929 28.36 159.522 27.82C159.115 27.28 158.475 27.01 157.602 27.01C156.615 27.01 155.882 27.3167 155.402 27.93C154.922 28.5367 154.682 29.4267 154.682 30.6C154.682 31.6933 154.922 32.54 155.402 33.14C155.882 33.74 156.582 34.04 157.502 34.04C158.095 34.04 158.605 33.91 159.032 33.65C159.465 33.3833 159.799 33 160.032 32.5L162.412 33.22C161.999 34.1933 161.359 34.95 160.492 35.49C159.632 36.03 158.682 36.3 157.642 36.3ZM153.922 31.27V29.45H161.352V31.27H153.922ZM176.237 36V30.8C176.237 30.46 176.214 30.0833 176.167 29.67C176.121 29.2567 176.011 28.86 175.837 28.48C175.671 28.0933 175.417 27.7767 175.077 27.53C174.744 27.2833 174.291 27.16 173.717 27.16C173.411 27.16 173.107 27.21 172.807 27.31C172.507 27.41 172.234 27.5833 171.987 27.83C171.747 28.07 171.554 28.4033 171.407 28.83C171.261 29.25 171.187 29.79 171.187 30.45L169.757 29.84C169.757 28.92 169.934 28.0867 170.287 27.34C170.647 26.5933 171.174 26 171.867 25.56C172.561 25.1133 173.414 24.89 174.427 24.89C175.227 24.89 175.887 25.0233 176.407 25.29C176.927 25.5567 177.341 25.8967 177.647 26.31C177.954 26.7233 178.181 27.1633 178.327 27.63C178.474 28.0967 178.567 28.54 178.607 28.96C178.654 29.3733 178.677 29.71 178.677 29.97V36H176.237ZM168.747 36V25.2H170.897V28.55H171.187V36H168.747ZM185.881 36.3C184.801 36.3 183.858 36.0567 183.051 35.57C182.244 35.0833 181.618 34.4133 181.171 33.56C180.731 32.7 180.511 31.7133 180.511 30.6C180.511 29.4667 180.738 28.4733 181.191 27.62C181.644 26.7667 182.274 26.1 183.081 25.62C183.888 25.14 184.821 24.9 185.881 24.9C186.968 24.9 187.914 25.1433 188.721 25.63C189.528 26.1167 190.154 26.79 190.601 27.65C191.048 28.5033 191.271 29.4867 191.271 30.6C191.271 31.72 191.044 32.71 190.591 33.57C190.144 34.4233 189.518 35.0933 188.711 35.58C187.904 36.06 186.961 36.3 185.881 36.3ZM185.881 34.04C186.841 34.04 187.554 33.72 188.021 33.08C188.488 32.44 188.721 31.6133 188.721 30.6C188.721 29.5533 188.484 28.72 188.011 28.1C187.538 27.4733 186.828 27.16 185.881 27.16C185.234 27.16 184.701 27.3067 184.281 27.6C183.868 27.8867 183.561 28.29 183.361 28.81C183.161 29.3233 183.061 29.92 183.061 30.6C183.061 31.6467 183.298 32.4833 183.771 33.11C184.251 33.73 184.954 34.04 185.881 34.04ZM195.384 36L192.084 25.18L194.444 25.2L196.554 32.13L198.694 25.2H200.724L202.854 32.13L204.974 25.2H207.334L204.034 36H202.154L199.704 28.57L197.264 36H195.384Z" fill="white"/>
</svg>
