<svg width="50" height="50" viewBox="0 0 50 50" fill="none" xmlns="http://www.w3.org/2000/svg">
<g clip-path="url(#clip0_637_445)">
<path d="M49.9334 48.9374L42.8629 32.776C42.8023 32.6431 42.7046 32.5305 42.5816 32.4517C42.4586 32.3728 42.3155 32.3311 42.1694 32.3315H33.5408C37.0683 27.3926 40.4313 21.1846 40.4313 15.4388C40.4313 11.3477 38.8061 7.42412 35.9132 4.53125C33.0203 1.63838 29.0967 0.0131836 25.0056 0.0131836C20.9145 0.0131836 16.9909 1.63838 14.098 4.53125C11.2052 7.42412 9.57996 11.3477 9.57996 15.4388C9.57996 21.189 12.9363 27.397 16.4704 32.3315H7.82846C7.68237 32.3311 7.53927 32.3728 7.41628 32.4517C7.29329 32.5305 7.19563 32.6431 7.13497 32.776L0.0645124 48.9374C0.0155787 49.0527 -0.00420232 49.1782 0.00691778 49.303C0.0180379 49.4277 0.0597166 49.5478 0.12827 49.6526C0.196824 49.7574 0.290141 49.8437 0.399973 49.9039C0.509805 49.9641 0.63277 49.9963 0.758 49.9976H49.2399C49.3651 49.9963 49.4881 49.9641 49.5979 49.9039C49.7077 49.8437 49.8011 49.7574 49.8696 49.6526C49.9382 49.5478 49.9798 49.4277 49.991 49.303C50.0021 49.1782 49.9823 49.0527 49.9334 48.9374ZM41.6715 33.8385L44.5433 40.4022H26.8171C28.8097 38.322 30.6827 36.1306 32.4273 33.8385H41.6715ZM11.0892 15.4255C11.7427 -2.98748 38.2597 -2.98082 38.9087 15.4255C38.9087 25.4122 27.5929 37.4593 24.9989 40.0976C22.405 37.4615 11.0892 25.4166 11.0892 15.4255ZM8.32635 33.8385H13.9787L12.0294 40.6467H5.33457L8.32635 33.8385ZM1.91826 48.484L4.68332 42.1625H12.6006C12.7663 42.1637 12.9279 42.1107 13.0607 42.0116C13.1935 41.9125 13.2903 41.7727 13.3364 41.6135L15.5591 33.834H17.5751C19.4738 36.3304 21.5264 38.7059 23.7209 40.9467L8.66865 48.484H1.91826ZM12.0472 48.484L25.179 41.9158H36.4882L38.1641 48.484H12.0472ZM39.7267 48.484L38.0507 41.9158H45.2079L48.0818 48.484H39.7267ZM34.3921 21.4424C34.5283 21.3839 34.6444 21.2869 34.7261 21.1633C34.8079 21.0397 34.8517 20.8949 34.8522 20.7467V10.3777C34.8517 10.2295 34.8079 10.0847 34.7261 9.96111C34.6444 9.83751 34.5283 9.74049 34.3921 9.682L25.2968 5.77891C25.2024 5.73824 25.1006 5.71726 24.9978 5.71726C24.895 5.71726 24.7933 5.73824 24.6989 5.77891L15.6102 9.682C15.4743 9.74059 15.3585 9.8377 15.2771 9.96133C15.1958 10.085 15.1524 10.2297 15.1523 10.3777V20.7467C15.1524 20.8947 15.1958 21.0394 15.2771 21.1631C15.3585 21.2867 15.4743 21.3838 15.6102 21.4424L24.6989 25.3499C24.7936 25.3895 24.8952 25.4098 24.9978 25.4098C25.1005 25.4098 25.2021 25.3895 25.2968 25.3499L34.3921 21.4424ZM33.3408 20.2488L25.7658 23.5028V14.7831L33.3408 11.5291V20.2488ZM24.2499 23.5028L16.6704 20.2488V11.5291L24.2454 14.7831L24.2499 23.5028ZM25.0078 13.4584L17.8285 10.3777L24.9967 7.29702L32.1694 10.3777L25.0078 13.4584Z" fill="#004039"/>
</g>
<defs>
<clipPath id="clip0_637_445">
<rect width="50" height="50" fill="white"/>
</clipPath>
</defs>
</svg>
