<svg width="64" height="64" viewBox="0 0 64 64" fill="none" xmlns="http://www.w3.org/2000/svg">
<path d="M28.5323 56.6838L28.7873 54.3863H11.2761C10.9446 54.3862 10.6267 54.2544 10.3923 54.02C10.1579 53.7856 10.0262 53.4678 10.0261 53.1363V11.0188C10.0262 10.6873 10.1579 10.3694 10.3923 10.135C10.6267 9.90061 10.9446 9.76888 11.2761 9.76877H37.6686C38.0001 9.76889 38.318 9.90062 38.5524 10.135C38.7868 10.3694 38.9185 10.6873 38.9186 11.0188V30.8275C39.4885 30.3474 40.1316 29.9616 40.8236 29.685V7.57627C40.8236 6.4922 40.393 5.45253 39.6264 4.68597C38.8598 3.91942 37.8202 3.48877 36.7361 3.48877H12.2086C11.1245 3.48877 10.0848 3.91942 9.31829 4.68597C8.55174 5.45253 8.12109 6.4922 8.12109 7.57627V56.6463C8.12109 57.7303 8.55174 58.77 9.31829 59.5366C10.0848 60.3031 11.1245 60.7338 12.2086 60.7338H29.6461C28.771 59.5757 28.3724 58.1265 28.5323 56.6838ZM27.3323 58.2063H21.6123V56.7063H27.3323V58.2063Z" fill="black"/>
<path d="M19.6072 20.8549C19.5605 21.4337 19.3462 21.9863 18.9905 22.4451C18.6347 22.904 18.153 23.2493 17.6041 23.4387C17.0553 23.6281 16.4631 23.6535 15.9001 23.5117C15.337 23.3699 14.8275 23.0672 14.4338 22.6404C14.0401 22.2137 13.7793 21.6814 13.6833 21.1088C13.5873 20.5362 13.6602 19.948 13.8932 19.4162C14.1261 18.8843 14.509 18.4319 14.995 18.1142C15.481 17.7966 16.0491 17.6274 16.6297 17.6274V16.2524C15.7772 16.2524 14.9434 16.5021 14.2314 16.9708C13.5193 17.4395 12.9602 18.1065 12.6231 18.8895C12.286 19.6725 12.1857 20.5371 12.3347 21.3764C12.4836 22.2158 12.8752 22.9931 13.4611 23.6123C14.047 24.2315 14.8015 24.6654 15.6314 24.8605C16.4612 25.0555 17.33 25.0031 18.1304 24.7098C18.9308 24.4165 19.6277 23.895 20.135 23.2099C20.6423 22.5248 20.9377 21.7061 20.9847 20.8549H19.6072Z" fill="black"/>
<path d="M15.4226 19.1822L14.3154 20.1942L15.9639 21.9976C16.0336 22.0739 16.1183 22.135 16.2128 22.177C16.3072 22.2189 16.4093 22.241 16.5126 22.2417H16.5175C16.62 22.2417 16.7214 22.2206 16.8155 22.1799C16.9096 22.1392 16.9943 22.0796 17.0645 22.0048L20.5638 18.2749L19.4699 17.2485L16.5247 20.3878L15.4226 19.1822Z" fill="black"/>
<path d="M19.6072 32.7402C19.5605 33.3189 19.3462 33.8715 18.9905 34.3304C18.6347 34.7893 18.153 35.1345 17.6041 35.3239C17.0553 35.5134 16.4631 35.5387 15.9001 35.397C15.3371 35.2552 14.8275 34.9524 14.4338 34.5257C14.0401 34.0989 13.7793 33.5667 13.6833 32.9941C13.5873 32.4214 13.6602 31.8332 13.8932 31.3014C14.1262 30.7696 14.5091 30.3172 14.9951 29.9995C15.4811 29.6818 16.0491 29.5127 16.6297 29.5127V28.1377C15.7773 28.1376 14.9435 28.3874 14.2314 28.8561C13.5193 29.3247 12.9602 29.9918 12.6231 30.7747C12.286 31.5577 12.1857 32.4223 12.3347 33.2617C12.4836 34.101 12.8752 34.8783 13.4611 35.4975C14.047 36.1167 14.8015 36.5507 15.6314 36.7457C16.4612 36.9408 17.33 36.8884 18.1304 36.5951C18.9308 36.3017 19.6277 35.7803 20.135 35.0952C20.6423 34.4101 20.9377 33.5914 20.9847 32.7402H19.6072Z" fill="black"/>
<path d="M15.4226 31.0674L14.3154 32.0794L15.9639 33.8829C16.0336 33.9592 16.1183 34.0202 16.2128 34.0622C16.3072 34.1042 16.4093 34.1262 16.5126 34.1269H16.5175C16.62 34.1269 16.7214 34.1059 16.8155 34.0651C16.9096 34.0244 16.9943 33.9648 17.0645 33.8901L20.5639 30.1602L19.4699 29.1338L16.5247 32.2731L15.4226 31.0674Z" fill="black"/>
<path d="M12.2676 44.3864C12.2679 45.5223 12.7113 46.6133 13.5035 47.4274C14.2957 48.2414 15.3742 48.7144 16.5096 48.7456C17.6451 48.7769 18.748 48.364 19.5837 47.5948C20.4195 46.8255 20.9223 45.7606 20.9851 44.6264H19.6076C19.5609 45.2052 19.3466 45.7578 18.9908 46.2166C18.6351 46.6755 18.1533 47.0208 17.6045 47.2102C17.0557 47.3996 16.4635 47.425 15.9005 47.2832C15.3374 47.1414 14.8279 46.8387 14.4342 46.4119C14.0405 45.9851 13.7797 45.4529 13.6837 44.8803C13.5877 44.3077 13.6606 43.7195 13.8936 43.1876C14.1265 42.6558 14.5094 42.2034 14.9954 41.8857C15.4814 41.5681 16.0495 41.3989 16.6301 41.3989V40.0239C15.4735 40.0252 14.3646 40.4852 13.5467 41.3031C12.7289 42.1209 12.2688 43.2298 12.2676 44.3864Z" fill="black"/>
<path d="M15.4226 42.9536L14.3154 43.9656L15.9639 45.7691C16.0336 45.8453 16.1183 45.9064 16.2128 45.9484C16.3072 45.9904 16.4093 46.0124 16.5126 46.0131H16.5175C16.62 46.0131 16.7214 45.9921 16.8155 45.9513C16.9096 45.9106 16.9943 45.851 17.0645 45.7763L20.5638 42.0464L19.4699 41.02L16.5247 44.1593L15.4226 42.9536Z" fill="black"/>
<path d="M33.1862 18.3589H24.1006V19.8589H33.1862V18.3589Z" fill="black"/>
<path d="M30.4254 21.3701H24.1006V22.8701H30.4254V21.3701Z" fill="black"/>
<path d="M30.4254 29.9961H24.1006V31.4961H30.4254V29.9961Z" fill="black"/>
<path d="M33.1422 33.0078H24.1006V34.5078H33.1422V33.0078Z" fill="black"/>
<path d="M56.7397 56.7878L54.976 40.9304C54.9068 40.3032 54.6085 39.7236 54.1383 39.3028C53.6681 38.882 53.0591 38.6496 52.4281 38.6502H48.9238V36.2315C48.9222 34.7796 48.3512 33.3863 47.3335 32.3507C46.3158 31.3152 44.9326 30.7201 43.481 30.6932C40.3819 30.6401 37.8455 33.2302 37.8455 36.3298V38.6502H34.3411C33.7101 38.6496 33.1011 38.882 32.6309 39.3029C32.1607 39.7237 31.8623 40.3033 31.7932 40.9305L30.0227 56.8492C29.9578 57.4326 30.0166 58.023 30.1954 58.582C30.3743 59.141 30.669 59.656 31.0604 60.0934C31.4518 60.5307 31.931 60.8806 32.4668 61.1201C33.0027 61.3597 33.583 61.4835 34.1699 61.4835H52.5374C53.1321 61.4835 53.7201 61.358 54.263 61.1153C54.8059 60.8726 55.2915 60.5181 55.6881 60.075C56.0847 59.6318 56.3833 59.11 56.5645 58.5436C56.7457 57.9772 56.8054 57.3789 56.7397 56.7878ZM39.3454 36.2315C39.3467 35.1727 39.7631 34.1566 40.5053 33.4015C41.2475 32.6463 42.2563 32.2124 43.3149 32.193C45.5745 32.1545 47.4238 34.0521 47.4238 36.312V38.6502H39.3454V36.2315ZM54.5705 59.0746C54.3145 59.3603 54.0011 59.589 53.6508 59.7456C53.3005 59.9022 52.9211 59.9832 52.5374 59.9834H34.1699C33.794 59.9834 33.4223 59.9041 33.0791 59.7507C32.7359 59.5973 32.4289 59.3732 32.1782 59.093C31.9275 58.8129 31.7387 58.483 31.6242 58.125C31.5096 57.7669 31.4719 57.3887 31.5134 57.0151L33.2839 41.0963C33.3127 40.8361 33.4365 40.5956 33.6316 40.421C33.8267 40.2464 34.0794 40.15 34.3412 40.1502H37.8455V43.1252H39.3455V40.1502H47.4238V43.1252H48.9238V40.1502H52.4281C52.6899 40.15 52.9426 40.2464 53.1377 40.421C53.3328 40.5956 53.4566 40.836 53.4854 41.0963L55.249 56.9537C55.2912 57.335 55.2526 57.721 55.1357 58.0864C55.0188 58.4518 54.8262 58.7885 54.5705 59.0746Z" fill="black"/>
</svg>
