<svg width="45" height="45" viewBox="0 0 45 45" fill="none" xmlns="http://www.w3.org/2000/svg">
<g clip-path="url(#clip0_637_268)">
<path d="M18.7031 18.8281C19.6208 17.9103 20.2458 16.741 20.499 15.468C20.7521 14.195 20.6221 12.8756 20.1254 11.6765C19.6287 10.4774 18.7875 9.45247 17.7084 8.7314C16.6292 8.01034 15.3604 7.62547 14.0625 7.62547C12.7646 7.62547 11.4958 8.01034 10.4166 8.7314C9.33746 9.45247 8.49633 10.4774 7.99961 11.6765C7.50289 12.8756 7.37289 14.195 7.62605 15.468C7.87921 16.741 8.50417 17.9103 9.42188 18.8281L14.0625 23.4687L18.7031 18.8281ZM14.0625 28.7712L6.76875 21.4812C5.32701 20.0388 4.34532 18.2013 3.9478 16.201C3.55028 14.2007 3.75479 12.1275 4.53546 10.2434C5.31613 8.3593 6.63791 6.74899 8.33369 5.61605C10.0295 4.48311 12.0231 3.87842 14.0625 3.87842C16.1019 3.87842 18.0955 4.48311 19.7913 5.61605C21.4871 6.74899 22.8089 8.3593 23.5896 10.2434C24.3702 12.1275 24.5747 14.2007 24.1772 16.201C23.7797 18.2013 22.798 20.0388 21.3563 21.4812L14.0625 28.775V28.7712ZM14.0625 17C13.3166 17 12.6012 16.7037 12.0738 16.1762C11.5463 15.6488 11.25 14.9334 11.25 14.1875C11.25 13.4416 11.5463 12.7262 12.0738 12.1988C12.6012 11.6713 13.3166 11.375 14.0625 11.375C14.8084 11.375 15.5238 11.6713 16.0512 12.1988C16.5787 12.7262 16.875 13.4416 16.875 14.1875C16.875 14.9334 16.5787 15.6488 16.0512 16.1762C15.5238 16.7037 14.8084 17 14.0625 17ZM30.9375 40.3437L35.5781 35.7031C36.4958 34.7853 37.1208 33.616 37.374 32.343C37.6271 31.07 37.4971 29.7506 37.0004 28.5515C36.5037 27.3524 35.6625 26.3275 34.5834 25.6064C33.5042 24.8853 32.2354 24.5005 30.9375 24.5005C29.6396 24.5005 28.3708 24.8853 27.2916 25.6064C26.2125 26.3275 25.3713 27.3524 24.8746 28.5515C24.3779 29.7506 24.2479 31.07 24.5011 32.343C24.7542 33.616 25.3792 34.7853 26.2969 35.7031L30.9375 40.3437ZM38.2313 38.3562L30.9375 45.6462L23.6438 38.3544C22.202 36.9119 21.2203 35.0744 20.8228 33.0741C20.4253 31.0738 20.6298 29.0006 21.4105 27.1165C22.1911 25.2324 23.5129 23.6221 25.2087 22.4892C26.9045 21.3562 28.8981 20.7515 30.9375 20.7515C32.9769 20.7515 34.9705 21.3562 36.6663 22.4892C38.3621 23.6221 39.6839 25.2324 40.4646 27.1165C41.2452 29.0006 41.4497 31.0738 41.0522 33.0741C40.6547 35.0744 39.673 36.9138 38.2313 38.3562ZM30.9375 33.875C30.1916 33.875 29.4762 33.5787 28.9488 33.0512C28.4213 32.5238 28.125 31.8084 28.125 31.0625C28.125 30.3166 28.4213 29.6012 28.9488 29.0738C29.4762 28.5463 30.1916 28.25 30.9375 28.25C31.6834 28.25 32.3988 28.5463 32.9262 29.0738C33.4537 29.6012 33.75 30.3166 33.75 31.0625C33.75 31.8084 33.4537 32.5238 32.9262 33.0512C32.3988 33.5787 31.6834 33.875 30.9375 33.875Z" fill="#004039"/>
</g>
<defs>
<clipPath id="clip0_637_268">
<rect width="45" height="45" fill="white"/>
</clipPath>
</defs>
</svg>
