<svg width="40" height="40" viewBox="0 0 40 40" fill="none" xmlns="http://www.w3.org/2000/svg">
<path d="M19.9449 0C15.5639 0 12.0003 4.74566 12.0003 10.5774C12.0003 12.9355 12.59 15.1084 13.5737 16.8686C11.6362 18.672 10.4678 21.3607 10.4678 24.2423V39.2729H12.6784V24.2415C12.6784 22.1897 13.6121 20.2444 15.1517 18.9904C16.4859 20.3413 18.1432 21.1521 19.9449 21.1521C21.7693 21.1521 23.4461 20.3222 24.7894 18.9394C26.3674 20.1933 27.3232 22.1577 27.3232 24.2415V39.272H29.5338V24.2415C29.5338 21.3139 28.3381 18.6028 26.3544 16.8011C27.316 15.0522 27.8908 12.9035 27.8908 10.5765C27.8914 4.74566 24.3265 0 19.9449 0ZM19.9449 18.2116C16.783 18.2116 14.2115 14.7856 14.2115 10.5774C14.2115 6.36736 16.783 2.94311 19.9449 2.94311C23.1074 2.94311 25.6808 6.36736 25.6808 10.5774C25.6808 14.7856 23.1074 18.2116 19.9449 18.2116Z" fill="#004039"/>
<path d="M2.21063 22.8876C2.21063 21.985 2.59814 21.1249 3.23727 20.4923C4.0565 21.2175 5.03698 21.6432 6.09223 21.6432C8.94914 21.6432 11.2735 18.5521 11.2735 14.7506C11.2735 10.9473 8.94914 7.85449 6.09223 7.85449C3.23597 7.85449 0.91351 10.9473 0.91351 14.7506C0.91351 16.0737 1.20804 17.2974 1.69503 18.347C0.627428 19.5231 0 21.1526 0 22.8867V31.6131H2.21063V22.8876ZM6.09158 10.7985C7.73004 10.7985 9.06162 12.5716 9.06162 14.7515C9.06162 16.9287 7.72939 18.701 6.09158 18.701C4.45441 18.701 3.12349 16.9278 3.12349 14.7515C3.12349 12.5716 4.45506 10.7985 6.09158 10.7985Z" fill="#004039"/>
<path d="M38.2608 18.2986C38.7348 17.2593 39.0228 16.0521 39.0228 14.7506C39.0228 10.9473 36.699 7.85449 33.8434 7.85449C30.9865 7.85449 28.6621 10.9473 28.6621 14.7506C28.6621 18.5521 30.9865 21.6432 33.8434 21.6432C34.9136 21.6432 35.9097 21.2088 36.7354 20.4655C37.3921 21.0972 37.7894 21.9695 37.7894 22.8876V31.614H40V22.8868C40.0007 21.1223 39.3557 19.4729 38.2608 18.2986ZM33.8434 18.701C32.205 18.701 30.8727 16.9278 30.8727 14.7515C30.8727 12.5707 32.2056 10.7985 33.8434 10.7985C35.4806 10.7985 36.8115 12.5716 36.8115 14.7515C36.8115 16.9278 35.4806 18.701 33.8434 18.701Z" fill="#004039"/>
</svg>
