<svg width="75" height="75" viewBox="0 0 75 75" fill="none" xmlns="http://www.w3.org/2000/svg">
<path d="M36.3373 17.7254C36.3373 15.5521 34.569 13.7837 32.3955 13.7837C30.2227 13.7837 28.4551 15.5519 28.4551 17.7254C28.4551 19.899 30.2227 21.6672 32.3955 21.6672C34.569 21.6672 36.3373 19.899 36.3373 17.7254ZM29.9201 17.7254C29.9201 16.3598 31.0306 15.2485 32.3957 15.2485C33.7613 15.2485 34.8726 16.3596 34.8726 17.7254C34.8726 19.0913 33.7615 20.2023 32.3957 20.2023C31.0306 20.2023 29.9201 19.0913 29.9201 17.7254Z" fill="#004039"/>
<path d="M32.9443 29.1148C33.6218 28.3494 39.5645 21.5303 39.5645 17.8065C39.5645 13.8545 36.3486 10.6392 32.3958 10.6392C28.4438 10.6392 25.2285 13.8543 25.2285 17.8065C25.2285 21.5301 31.1699 28.3494 31.8474 29.1146L32.3957 29.7341L32.9443 29.1148ZM26.6935 17.8066C26.6935 14.6624 29.2516 12.1042 32.396 12.1042C35.541 12.1042 38.0998 14.6622 38.0998 17.8066C38.0998 20.2434 34.3834 25.1521 32.396 27.508C30.4089 25.1525 26.6935 20.2452 26.6935 17.8066Z" fill="#004039"/>
<path d="M13.754 51.9609H6.69434V53.4258H13.754V51.9609Z" fill="#004039"/>
<path d="M4.9874 51.9609H2.67969V53.4258H4.9874V51.9609Z" fill="#004039"/>
<path d="M13.7541 55.9624H9.49316V57.4272H13.7541V55.9624Z" fill="#004039"/>
<path d="M28.269 41.0347H24.5156V42.4995H28.269V41.0347Z" fill="#004039"/>
<path d="M6.27246 26.1842V40.1305H7.87705H12.0268L19.7622 45.9502C19.7391 46.1537 19.72 46.3599 19.7063 46.5692C17.497 48.4892 16.1303 51.1245 16.1303 54.029V57.1023H18.7888C19.0071 59.4925 20.2819 61.5805 22.1414 62.8961H11.8809V64.3609H39.127V62.8961H31.346C32.2752 62.2388 33.0582 61.3891 33.6368 60.4044H38.557L40.904 59.1931C41.551 59.5451 42.2921 59.7454 43.0787 59.7454H53.6824L54.0286 59.7449L54.2483 59.478C54.2609 59.4626 54.5076 59.1682 54.9636 58.6993C55.5419 60.445 56.7091 61.9168 58.2135 62.8961H45.8653V64.3609H72.3211V62.8961H66.9081C69.0948 61.469 70.5441 59.0025 70.5441 56.2025C70.5441 54.4286 69.947 52.7129 68.8772 51.323C69.642 51.225 70.4288 51.171 71.2362 51.171C71.8501 51.171 72.0535 50.7525 72.1011 50.6242C72.3454 49.9669 71.7653 49.4667 70.8873 48.7095C70.6897 48.539 70.5029 48.3782 70.3948 48.2695C68.6319 46.5051 66.4122 45.367 64.0042 44.9588L58.0015 30.2491H59.8109V29.5624H59.9612C61.2498 29.5624 62.298 28.5142 62.298 27.2257V27.1754C62.298 25.887 61.2498 24.8386 59.9612 24.8386H59.8109V24.1519H54.7443C53.0616 24.1519 51.6926 25.5209 51.6926 27.2036V28.6215C51.6926 28.6765 51.6955 28.7305 51.7008 28.784H50.8082L47.6925 25.6681H44.0331V27.133H47.0858L50.2015 30.2488H53.1404L51.5146 35.1758L53.71 48.1804C52.6307 49.2344 51.7482 50.4934 51.1293 51.8989H42.8142C42.4197 51.0903 42.1003 50.2483 41.8597 49.3769C40.779 45.4612 41.6045 42.0029 42.3069 40.0751C43.0711 39.8827 43.639 39.1915 43.639 38.3686C43.639 35.9699 41.6875 34.0185 39.2889 34.0185H24.2115C22.5265 34.0185 21.1556 35.3893 21.1556 37.0744C21.1556 37.6576 21.3227 38.2013 21.6075 38.6655H20.2188V26.1842H6.27246ZM7.7373 38.6657V27.649H18.754V38.6657H7.87705H7.7373ZM17.5951 54.0288C17.5951 48.9777 22.494 44.8681 28.5155 44.8681H31.2828C35.267 44.8681 38.5084 47.5705 38.5084 50.8921V54.4356V55.168V55.6374H34.7013C34.3304 51.5731 30.9037 48.3788 26.745 48.3788C22.5855 48.3788 19.1583 51.5731 18.7874 55.6374H17.5953L17.5951 54.0288ZM20.261 55.6374C20.6263 52.3825 23.3941 49.8436 26.7448 49.8436C30.0949 49.8436 32.8622 52.3825 33.2273 55.6374H20.261ZM28.9046 57.1022C28.5984 58.0022 27.7469 58.6521 26.7448 58.6521C25.7421 58.6521 24.8902 58.002 24.5839 57.1022H28.9046ZM26.7434 62.8959C23.3933 62.8959 20.626 60.3571 20.2608 57.1022H23.0685C23.4103 58.819 24.9284 60.117 26.7448 60.117C28.5605 60.117 30.0782 58.819 30.4198 57.1022H33.2273C33.155 57.7475 32.9887 58.3646 32.7415 58.9394H30.1453V60.4042H31.8672C30.6712 61.9201 28.8196 62.8959 26.7434 62.8959ZM38.2015 58.9394H34.308C34.5073 58.3541 34.6411 57.7393 34.6992 57.1022H38.9376C39.1236 57.4996 39.3647 57.8657 39.6511 58.1913L38.2015 58.9394ZM69.0794 56.2023C69.0794 59.8001 66.1518 62.7271 62.5532 62.7271C59.4706 62.7271 56.792 60.5239 56.1662 57.5428C56.8922 56.8875 57.8114 56.1282 58.9003 55.3666C58.8388 55.6356 58.8054 55.9148 58.8054 56.202C58.8054 58.2685 60.4866 59.9499 62.5532 59.9499C64.6198 59.9499 66.301 58.2685 66.301 56.202C66.301 54.5765 65.2607 53.1899 63.8111 52.6719C64.8702 52.242 66.0003 51.8767 67.1949 51.6146C68.3965 52.8341 69.0794 54.4857 69.0794 56.2023ZM60.9119 54.619L61.9025 56.5379L63.2041 55.866L62.2135 53.9471C62.3247 53.9304 62.4375 53.9189 62.5532 53.9189C63.8121 53.9189 64.8362 54.9432 64.8362 56.202C64.8362 57.4609 63.8121 58.485 62.5532 58.485C61.2943 58.485 60.2703 57.4609 60.2703 56.202C60.2703 55.5874 60.5155 55.0299 60.9119 54.619ZM59.9613 26.3034C60.4422 26.3034 60.8333 26.6945 60.8333 27.1754V27.2257C60.8333 27.7064 60.4422 28.0976 59.9613 28.0976H59.811V26.3034H59.9613ZM53.1576 28.6217V27.2037C53.1576 26.3286 53.8693 25.6168 54.7444 25.6168H58.3462V28.7843H54.7298H53.32C53.2304 28.7841 53.1576 28.7112 53.1576 28.6217ZM53.0196 35.2902L54.6828 30.2497H56.4198L62.3556 44.7959C62.2367 44.7925 62.1182 44.7871 61.9986 44.7871C59.4086 44.7871 56.9849 45.637 55.0102 47.0821L53.0196 35.2902ZM61.9988 46.252C64.7782 46.252 67.3917 47.3361 69.358 49.3042C69.4881 49.4346 69.6653 49.5893 69.8561 49.7542C64.8564 50.1026 60.7465 52.2766 58.0961 54.1249C55.5768 55.882 53.9279 57.6259 53.3471 58.2804H43.0787C41.6203 58.2804 40.3938 57.2679 40.0617 55.9073H45.5606L45.5547 55.9001L51.6018 55.8999L51.6873 55.2654C52.3813 50.1269 56.8143 46.252 61.9988 46.252ZM50.5972 53.3639C50.4955 53.7145 50.4086 54.0714 50.3391 54.4352L44.3851 54.4354C44.1185 54.0871 43.869 53.7295 43.6361 53.3641H50.5972V53.3639ZM42.5849 54.4354L39.9731 54.4356V50.8921C39.9731 46.7629 36.0746 43.4033 31.2826 43.4033H28.5154C25.835 43.4033 23.353 44.1399 21.3237 45.3864C21.7481 42.9672 22.8259 41.0916 23.4819 40.131H40.7385C40.0277 42.313 39.3599 45.8245 40.4478 49.7667C40.9066 51.4291 41.6235 52.9939 42.5849 54.4354ZM24.2115 35.4834H39.289C40.88 35.4834 42.1743 36.7778 42.1743 38.3687C42.1743 38.5324 42.0412 38.6657 41.8774 38.6657H24.2115C23.3342 38.6657 22.6204 37.9519 22.6204 37.0746C22.6204 36.1973 23.3342 35.4834 24.2115 35.4834ZM21.7497 40.1305C21.1537 41.1424 20.4605 42.5852 20.0459 44.3305L14.4634 40.1305H20.2188H21.7497Z" fill="#004039"/>
<path d="M17.4469 29.395H13.2451V30.8599H17.4469V29.395Z" fill="#004039"/>
<path d="M43.7172 62.896H41.1797V64.3608H43.7172V62.896Z" fill="#004039"/>
<path d="M10.1962 62.896H7.87695V64.3608H10.1962V62.896Z" fill="#004039"/>
</svg>
