<svg width="32" height="32" viewBox="0 0 32 32" fill="none" xmlns="http://www.w3.org/2000/svg">
<circle cx="16" cy="16" r="15.5" stroke="#F0F0F0"/>
<g clip-path="url(#clip0_701_31)">
<path fill-rule="evenodd" clip-rule="evenodd" d="M7.74449 13.5626C7.84866 11.9451 9.10199 10.6385 10.7128 10.466C12.3837 10.2976 14.1595 10.2068 16.0003 10.2068C17.8412 10.2068 19.617 10.2976 21.2878 10.4668C22.8987 10.6385 24.152 11.9451 24.2562 13.5626C24.307 14.3593 24.3337 15.1735 24.3337 16.0001C24.3337 16.8268 24.307 17.641 24.2562 18.4376C24.152 20.0551 22.8987 21.3618 21.2878 21.5343C19.617 21.7026 17.8412 21.7935 16.0003 21.7935C14.1595 21.7935 12.3837 21.7026 10.7128 21.5335C9.10199 21.3618 7.84866 20.0551 7.74449 18.4376C7.69366 17.641 7.66699 16.8268 7.66699 16.0001C7.66699 15.1735 7.69366 14.3593 7.74449 13.5626Z" fill="#F2FFFE"/>
<path fill-rule="evenodd" clip-rule="evenodd" d="M18.5459 16.0002L14.4551 18.4961V13.5044L18.5459 16.0002Z" fill="#004039"/>
</g>
<defs>
<clipPath id="clip0_701_31">
<rect width="20" height="20" fill="white" transform="translate(6 6)"/>
</clipPath>
</defs>
</svg>
