<svg width="500" height="70" viewBox="0 0 500 70" fill="none" xmlns="http://www.w3.org/2000/svg">
<rect width="500" height="70" rx="10" fill="#2A9D90"/>
<path d="M210.4 42.5V28.1H216.48C216.62 28.1 216.807 28.1067 217.04 28.12C217.28 28.1267 217.493 28.1467 217.68 28.18C218.54 28.3133 219.243 28.5967 219.79 29.03C220.343 29.4633 220.75 30.01 221.01 30.67C221.27 31.3233 221.4 32.0533 221.4 32.86C221.4 33.6667 221.267 34.4 221 35.06C220.74 35.7133 220.333 36.2567 219.78 36.69C219.233 37.1233 218.533 37.4067 217.68 37.54C217.493 37.5667 217.28 37.5867 217.04 37.6C216.8 37.6133 216.613 37.62 216.48 37.62H213.12V42.5H210.4ZM213.12 35.08H216.36C216.5 35.08 216.653 35.0733 216.82 35.06C216.987 35.0467 217.14 35.02 217.28 34.98C217.647 34.88 217.93 34.7133 218.13 34.48C218.33 34.24 218.467 33.9767 218.54 33.69C218.62 33.3967 218.66 33.12 218.66 32.86C218.66 32.6 218.62 32.3267 218.54 32.04C218.467 31.7467 218.33 31.4833 218.13 31.25C217.93 31.01 217.647 30.84 217.28 30.74C217.14 30.7 216.987 30.6733 216.82 30.66C216.653 30.6467 216.5 30.64 216.36 30.64H213.12V35.08ZM223.408 42.5V31.7H225.808V34.34L225.548 34C225.688 33.6267 225.874 33.2867 226.108 32.98C226.341 32.6733 226.628 32.42 226.968 32.22C227.228 32.06 227.511 31.9367 227.818 31.85C228.124 31.7567 228.441 31.7 228.768 31.68C229.094 31.6533 229.421 31.66 229.748 31.7V34.24C229.448 34.1467 229.098 34.1167 228.698 34.15C228.304 34.1767 227.948 34.2667 227.628 34.42C227.308 34.5667 227.038 34.7633 226.818 35.01C226.598 35.25 226.431 35.5367 226.318 35.87C226.204 36.1967 226.148 36.5667 226.148 36.98V42.5H223.408ZM236.315 42.8C235.228 42.8 234.275 42.5567 233.455 42.07C232.635 41.5833 231.995 40.9133 231.535 40.06C231.081 39.2 230.855 38.2133 230.855 37.1C230.855 35.9733 231.088 34.9833 231.555 34.13C232.021 33.27 232.665 32.6 233.485 32.12C234.305 31.64 235.248 31.4 236.315 31.4C237.401 31.4 238.355 31.6433 239.175 32.13C240.001 32.6167 240.645 33.29 241.105 34.15C241.565 35.0033 241.795 35.9867 241.795 37.1C241.795 38.22 241.561 39.21 241.095 40.07C240.635 40.9233 239.991 41.5933 239.165 42.08C238.345 42.56 237.395 42.8 236.315 42.8ZM236.315 40.26C237.188 40.26 237.838 39.9667 238.265 39.38C238.698 38.7867 238.915 38.0267 238.915 37.1C238.915 36.14 238.695 35.3733 238.255 34.8C237.821 34.2267 237.175 33.94 236.315 33.94C235.721 33.94 235.235 34.0733 234.855 34.34C234.475 34.6067 234.191 34.9767 234.005 35.45C233.825 35.9233 233.735 36.4733 233.735 37.1C233.735 38.0667 233.951 38.8367 234.385 39.41C234.825 39.9767 235.468 40.26 236.315 40.26ZM248.754 42.8C247.634 42.8 246.674 42.55 245.874 42.05C245.074 41.55 244.46 40.87 244.034 40.01C243.607 39.15 243.394 38.18 243.394 37.1C243.394 36.0067 243.614 35.03 244.054 34.17C244.5 33.31 245.127 32.6333 245.934 32.14C246.74 31.6467 247.694 31.4 248.794 31.4C250.067 31.4 251.134 31.7233 251.994 32.37C252.86 33.01 253.414 33.8867 253.654 35L250.934 35.72C250.774 35.16 250.494 34.7233 250.094 34.41C249.7 34.0967 249.254 33.94 248.754 33.94C248.18 33.94 247.71 34.08 247.344 34.36C246.977 34.6333 246.707 35.01 246.534 35.49C246.36 35.9633 246.274 36.5 246.274 37.1C246.274 38.04 246.48 38.8033 246.894 39.39C247.314 39.97 247.934 40.26 248.754 40.26C249.367 40.26 249.834 40.12 250.154 39.84C250.474 39.56 250.714 39.16 250.874 38.64L253.654 39.22C253.347 40.3667 252.767 41.25 251.914 41.87C251.06 42.49 250.007 42.8 248.754 42.8ZM260.381 42.8C259.274 42.8 258.298 42.5633 257.451 42.09C256.611 41.61 255.951 40.9533 255.471 40.12C254.998 39.28 254.761 38.32 254.761 37.24C254.761 36.06 254.994 35.0333 255.461 34.16C255.928 33.2867 256.571 32.61 257.391 32.13C258.211 31.6433 259.154 31.4 260.221 31.4C261.354 31.4 262.318 31.6667 263.111 32.2C263.904 32.7333 264.491 33.4833 264.871 34.45C265.251 35.4167 265.384 36.5533 265.271 37.86H262.581V36.86C262.581 35.76 262.404 34.97 262.051 34.49C261.704 34.0033 261.134 33.76 260.341 33.76C259.414 33.76 258.731 34.0433 258.291 34.61C257.858 35.17 257.641 36 257.641 37.1C257.641 38.1067 257.858 38.8867 258.291 39.44C258.731 39.9867 259.374 40.26 260.221 40.26C260.754 40.26 261.211 40.1433 261.591 39.91C261.971 39.6767 262.261 39.34 262.461 38.9L265.181 39.68C264.774 40.6667 264.131 41.4333 263.251 41.98C262.378 42.5267 261.421 42.8 260.381 42.8ZM256.801 37.86V35.84H263.961V37.86H256.801ZM272.549 42.8C271.442 42.8 270.466 42.5633 269.619 42.09C268.779 41.61 268.119 40.9533 267.639 40.12C267.166 39.28 266.929 38.32 266.929 37.24C266.929 36.06 267.162 35.0333 267.629 34.16C268.096 33.2867 268.739 32.61 269.559 32.13C270.379 31.6433 271.322 31.4 272.389 31.4C273.522 31.4 274.486 31.6667 275.279 32.2C276.072 32.7333 276.659 33.4833 277.039 34.45C277.419 35.4167 277.552 36.5533 277.439 37.86H274.749V36.86C274.749 35.76 274.572 34.97 274.219 34.49C273.872 34.0033 273.302 33.76 272.509 33.76C271.582 33.76 270.899 34.0433 270.459 34.61C270.026 35.17 269.809 36 269.809 37.1C269.809 38.1067 270.026 38.8867 270.459 39.44C270.899 39.9867 271.542 40.26 272.389 40.26C272.922 40.26 273.379 40.1433 273.759 39.91C274.139 39.6767 274.429 39.34 274.629 38.9L277.349 39.68C276.942 40.6667 276.299 41.4333 275.419 41.98C274.546 42.5267 273.589 42.8 272.549 42.8ZM268.969 37.86V35.84H276.129V37.86H268.969ZM284.077 42.8C283.084 42.8 282.214 42.55 281.467 42.05C280.72 41.55 280.137 40.87 279.717 40.01C279.304 39.15 279.097 38.18 279.097 37.1C279.097 36 279.307 35.0233 279.727 34.17C280.154 33.31 280.75 32.6333 281.517 32.14C282.284 31.6467 283.184 31.4 284.217 31.4C285.244 31.4 286.107 31.65 286.807 32.15C287.507 32.65 288.037 33.33 288.397 34.19C288.757 35.05 288.937 36.02 288.937 37.1C288.937 38.18 288.754 39.15 288.387 40.01C288.027 40.87 287.487 41.55 286.767 42.05C286.047 42.55 285.15 42.8 284.077 42.8ZM284.517 40.38C285.124 40.38 285.607 40.2433 285.967 39.97C286.334 39.6967 286.597 39.3133 286.757 38.82C286.917 38.3267 286.997 37.7533 286.997 37.1C286.997 36.4467 286.917 35.8733 286.757 35.38C286.597 34.8867 286.34 34.5033 285.987 34.23C285.64 33.9567 285.184 33.82 284.617 33.82C284.01 33.82 283.51 33.97 283.117 34.27C282.73 34.5633 282.444 34.96 282.257 35.46C282.07 35.9533 281.977 36.5 281.977 37.1C281.977 37.7067 282.067 38.26 282.247 38.76C282.427 39.2533 282.704 39.6467 283.077 39.94C283.45 40.2333 283.93 40.38 284.517 40.38ZM286.997 42.5V35.1H286.657V28.1H289.397V42.5H286.997Z" fill="#F0F0F0"/>
</svg>
