<svg width="40" height="20" viewBox="0 0 40 20" fill="none" xmlns="http://www.w3.org/2000/svg">
<path d="M37.1842 3.81488C37.0193 3.56473 36.7483 3.41463 36.4655 3.41463H30.987V0.938086C30.987 0.425266 30.5864 0 30.1033 0H10.2508C9.76777 0 9.36719 0.425266 9.36719 0.938086V16.0976C9.36719 16.6104 9.76777 17.0356 10.2508 17.0356H12.7486C13.2081 18.7367 14.6926 20 16.4363 20C18.18 20 19.6646 18.7492 20.1241 17.0356H29.9148C30.3743 18.7367 31.8588 20 33.6025 20C35.3463 20 36.8308 18.7492 37.2903 17.0356H39.1165C39.5995 17.0356 40.0001 16.6104 40.0001 16.0976V8.38024C40.0001 8.18011 39.9412 7.99249 39.8352 7.8424L37.1842 3.81488ZM38.2446 8.65541H34.2859V5.30331H36.0178L38.2446 8.65541ZM11.1345 1.88868H29.2197V15.172H20.2065C19.8649 13.2833 18.3096 11.8574 16.4363 11.8574C14.563 11.8574 12.996 13.2833 12.6661 15.172H11.1345V1.88868ZM16.4363 18.1238C15.2935 18.1238 14.3627 17.1357 14.3627 15.9224C14.3627 14.7092 15.2935 13.7211 16.4363 13.7211C17.5792 13.7211 18.5099 14.7092 18.5099 15.9224C18.5099 17.1357 17.5792 18.1238 16.4363 18.1238ZM33.6143 18.1238C32.4715 18.1238 31.5407 17.1357 31.5407 15.9224C31.5407 14.7092 32.4715 13.7211 33.6143 13.7211C34.7572 13.7211 35.6879 14.7092 35.6879 15.9224C35.6879 17.1357 34.7572 18.1238 33.6143 18.1238ZM37.3845 15.172C37.0429 13.2833 35.4876 11.8574 33.6143 11.8574C32.6011 11.8574 31.6703 12.2827 30.987 12.9706V5.30331H32.5068V9.5935C32.5068 10.1063 32.9074 10.5316 33.3905 10.5316H38.2564V15.172H37.3845Z" fill="#004039"/>
<path d="M0.883642 1.88887H7.18696C7.67002 1.88887 8.0706 1.4636 8.0706 0.950782C8.0706 0.437961 7.67002 0.0126953 7.18696 0.0126953H0.883642C0.400584 0.0126953 0 0.437961 0 0.950782C0 1.4636 0.400584 1.88887 0.883642 1.88887Z" fill="#004039"/>
<path d="M7.187 3.39014H2.33286C1.8498 3.39014 1.44922 3.8154 1.44922 4.32822C1.44922 4.84104 1.8498 5.26631 2.33286 5.26631H7.187C7.67006 5.26631 8.07064 4.84104 8.07064 4.32822C8.07064 3.8154 7.68184 3.39014 7.187 3.39014Z" fill="#004039"/>
<path d="M7.18815 6.7666H4.12485C3.6418 6.7666 3.24121 7.19187 3.24121 7.70469C3.24121 8.21751 3.6418 8.64277 4.12485 8.64277H7.18815C7.6712 8.64277 8.07179 8.21751 8.07179 7.70469C8.07179 7.19187 7.68299 6.7666 7.18815 6.7666Z" fill="#004039"/>
<path d="M7.18718 10.144H6.12681C5.64375 10.144 5.24316 10.5693 5.24316 11.0821C5.24316 11.5949 5.64375 12.0202 6.12681 12.0202H7.18718C7.67023 12.0202 8.07082 11.5949 8.07082 11.0821C8.07082 10.5693 7.68202 10.144 7.18718 10.144Z" fill="#004039"/>
</svg>
