<svg width="210" height="64" viewBox="0 0 210 64" fill="none" xmlns="http://www.w3.org/2000/svg">
<rect x="0.5" y="0.5" width="209" height="63" rx="9.5" fill="white" stroke="#004039"/>
<path d="M33.3815 40H30.61V23.44H37.4525C37.7745 23.44 38.3495 23.463 38.775 23.532C41.65 23.9805 42.9955 26.0965 42.9955 28.8335C42.9955 31.0645 42.087 32.8815 40.201 33.721L43.26 40H40.1205L37.3145 34.2155H33.3815V40ZM33.3815 26.039V31.628H37.3375C37.648 31.628 38.062 31.605 38.384 31.513C39.764 31.168 40.201 29.8915 40.201 28.8335C40.201 27.7755 39.764 26.499 38.384 26.1425C38.062 26.062 37.648 26.039 37.3375 26.039H33.3815ZM51.4401 40.345C47.6681 40.345 45.1036 37.7 45.1036 33.928C45.1036 29.857 47.6221 27.235 51.2791 27.235C55.1316 27.235 57.3856 30.087 57.0636 34.5605H48.0706C48.2891 36.6075 49.3931 37.746 51.2791 37.746C52.6361 37.746 53.6481 37.125 54.1886 35.975L56.9256 36.803C55.9711 39.057 53.8321 40.345 51.4401 40.345ZM51.3941 29.6615C49.5311 29.6615 48.4616 30.6275 48.1396 32.4675H54.2576C54.0161 30.524 53.1076 29.6615 51.3941 29.6615ZM62.0641 45.52H59.2696V27.58H61.7191V28.477C62.5931 27.6835 63.7431 27.235 65.1576 27.235C68.6766 27.235 70.9306 30.018 70.9306 33.79C70.9306 37.516 68.6996 40.345 65.2611 40.345C63.9731 40.345 62.9036 39.9885 62.0641 39.3675V45.52ZM64.8356 37.861C66.9976 37.861 67.9981 36.067 67.9981 33.79C67.9981 31.536 66.9746 29.719 64.7436 29.719C62.6276 29.719 61.7191 31.3635 61.7191 33.79C61.7191 36.1935 62.6046 37.861 64.8356 37.861ZM78.951 40.345C75.2135 40.345 72.7755 37.631 72.7755 33.79C72.7755 29.8915 75.2825 27.235 78.951 27.235C82.7 27.235 85.1495 29.949 85.1495 33.79C85.1495 37.6655 82.6655 40.345 78.951 40.345ZM78.951 37.746C81.1475 37.746 82.217 36.1245 82.217 33.79C82.217 31.3865 81.1245 29.834 78.951 29.834C76.72 29.834 75.708 31.444 75.708 33.79C75.708 36.205 76.812 37.746 78.951 37.746ZM90.4662 40H87.6832V27.58H90.1327V29.5695C90.4432 29.029 90.8572 28.5575 91.3747 28.2355C92.2947 27.603 93.5597 27.4075 94.6752 27.58V30.1675C93.9277 29.9605 92.8812 30.018 92.1107 30.4665C90.9722 31.0875 90.4662 32.249 90.4662 33.6865V40ZM104.149 37.677V40C101.688 40.4715 99.1813 40.253 98.2153 38.4705C97.6403 37.401 97.7438 36.3545 97.7438 34.9285V29.7535H95.4898V27.58H97.7438V24.13H100.504V27.58H104.149V29.7535H100.504V34.7675C100.504 35.7565 100.458 36.527 100.757 36.9985C101.309 37.9185 102.597 37.907 104.149 37.677ZM114.897 40.345C112.195 40.345 110.734 38.643 110.734 36.596C110.734 34.7905 111.597 33.56 113.563 32.8815C114.874 32.456 116.795 32.1915 118.968 31.8695C118.865 30.4435 118.117 29.7765 116.427 29.7765C115.311 29.7765 114.127 30.248 113.713 31.513L111.183 30.7195C111.792 28.6265 113.506 27.235 116.427 27.235C118.635 27.235 120.394 27.902 121.211 29.5465C121.648 30.4205 121.682 31.306 121.682 32.3755V40H119.256V38.3325C118.198 39.7125 116.875 40.345 114.897 40.345ZM115.449 38.137C117.335 38.137 118.382 36.941 118.658 36.0785C118.888 35.515 118.922 34.733 118.934 34.1465C116.956 34.457 115.829 34.6295 114.955 34.9285C114 35.285 113.448 35.7565 113.448 36.5615C113.448 37.47 114.138 38.137 115.449 38.137ZM132.052 40H129.281V23.44H136.123C136.445 23.44 137.02 23.463 137.446 23.532C140.321 23.9805 141.666 26.0965 141.666 28.8335C141.666 31.0645 140.758 32.8815 138.872 33.721L141.931 40H138.791L135.985 34.2155H132.052V40ZM132.052 26.039V31.628H136.008C136.319 31.628 136.733 31.605 137.055 31.513C138.435 31.168 138.872 29.8915 138.872 28.8335C138.872 27.7755 138.435 26.499 137.055 26.1425C136.733 26.062 136.319 26.039 136.008 26.039H132.052ZM147.466 25.694H144.694V23.1525H147.466V25.694ZM147.466 40H144.694V27.58H147.466V40ZM155.89 40.345C152.452 40.345 150.221 37.516 150.221 33.79C150.221 30.018 152.475 27.235 155.994 27.235C157.236 27.235 158.259 27.58 159.087 28.1895V23.44H161.882V40H159.432V39.08C158.547 39.885 157.362 40.345 155.89 40.345ZM156.316 37.861C158.547 37.861 159.432 36.1935 159.432 33.79C159.432 31.3635 158.524 29.719 156.408 29.719C154.177 29.719 153.153 31.536 153.153 33.79C153.153 36.067 154.154 37.861 156.316 37.861ZM170.753 40.345C166.981 40.345 164.416 37.7 164.416 33.928C164.416 29.857 166.935 27.235 170.592 27.235C174.444 27.235 176.698 30.087 176.376 34.5605H167.383C167.602 36.6075 168.706 37.746 170.592 37.746C171.949 37.746 172.961 37.125 173.501 35.975L176.238 36.803C175.284 39.057 173.145 40.345 170.753 40.345ZM170.707 29.6615C168.844 29.6615 167.774 30.6275 167.452 32.4675H173.57C173.329 30.524 172.42 29.6615 170.707 29.6615ZM181.725 40H178.942V27.58H181.392V29.5695C181.702 29.029 182.116 28.5575 182.634 28.2355C183.554 27.603 184.819 27.4075 185.934 27.58V30.1675C185.187 29.9605 184.14 30.018 183.37 30.4665C182.231 31.0875 181.725 32.249 181.725 33.6865V40Z" fill="#004039"/>
</svg>
