<svg width="427" height="47" viewBox="0 0 427 47" fill="none" xmlns="http://www.w3.org/2000/svg">
<rect width="427" height="47" rx="20" fill="#2A9D90"/>
<path d="M129.265 31V16.6H135.345C135.485 16.6 135.672 16.6067 135.905 16.62C136.145 16.6267 136.359 16.6467 136.545 16.68C137.405 16.8133 138.109 17.0967 138.655 17.53C139.209 17.9633 139.615 18.51 139.875 19.17C140.135 19.8233 140.265 20.5533 140.265 21.36C140.265 22.5667 139.965 23.6 139.365 24.46C138.765 25.3133 137.825 25.84 136.545 26.04L135.345 26.12H131.985V31H129.265ZM137.385 31L134.545 25.14L137.345 24.6L140.465 31H137.385ZM131.985 23.58H135.225C135.365 23.58 135.519 23.5733 135.685 23.56C135.852 23.5467 136.005 23.52 136.145 23.48C136.512 23.38 136.795 23.2133 136.995 22.98C137.195 22.74 137.332 22.4767 137.405 22.19C137.485 21.8967 137.525 21.62 137.525 21.36C137.525 21.1 137.485 20.8267 137.405 20.54C137.332 20.2467 137.195 19.9833 136.995 19.75C136.795 19.51 136.512 19.34 136.145 19.24C136.005 19.2 135.852 19.1733 135.685 19.16C135.519 19.1467 135.365 19.14 135.225 19.14H131.985V23.58ZM147.684 31.3C146.577 31.3 145.6 31.0633 144.754 30.59C143.914 30.11 143.254 29.4533 142.774 28.62C142.3 27.78 142.064 26.82 142.064 25.74C142.064 24.56 142.297 23.5333 142.764 22.66C143.23 21.7867 143.874 21.11 144.694 20.63C145.514 20.1433 146.457 19.9 147.524 19.9C148.657 19.9 149.62 20.1667 150.414 20.7C151.207 21.2333 151.794 21.9833 152.174 22.95C152.554 23.9167 152.687 25.0533 152.574 26.36H149.884V25.36C149.884 24.26 149.707 23.47 149.354 22.99C149.007 22.5033 148.437 22.26 147.644 22.26C146.717 22.26 146.034 22.5433 145.594 23.11C145.16 23.67 144.944 24.5 144.944 25.6C144.944 26.6067 145.16 27.3867 145.594 27.94C146.034 28.4867 146.677 28.76 147.524 28.76C148.057 28.76 148.514 28.6433 148.894 28.41C149.274 28.1767 149.564 27.84 149.764 27.4L152.484 28.18C152.077 29.1667 151.434 29.9333 150.554 30.48C149.68 31.0267 148.724 31.3 147.684 31.3ZM144.104 26.36V24.34H151.264V26.36H144.104ZM159.839 31.3C158.765 31.3 157.869 31.05 157.149 30.55C156.429 30.05 155.885 29.37 155.519 28.51C155.159 27.65 154.979 26.68 154.979 25.6C154.979 24.52 155.159 23.55 155.519 22.69C155.879 21.83 156.409 21.15 157.109 20.65C157.809 20.15 158.672 19.9 159.699 19.9C160.732 19.9 161.632 20.1467 162.399 20.64C163.165 21.1333 163.759 21.81 164.179 22.67C164.605 23.5233 164.819 24.5 164.819 25.6C164.819 26.68 164.609 27.65 164.189 28.51C163.775 29.37 163.195 30.05 162.449 30.55C161.702 31.05 160.832 31.3 159.839 31.3ZM154.519 35.8V20.2H156.919V27.6H157.259V35.8H154.519ZM159.399 28.88C159.985 28.88 160.465 28.7333 160.839 28.44C161.212 28.1467 161.489 27.7533 161.669 27.26C161.849 26.76 161.939 26.2067 161.939 25.6C161.939 25 161.845 24.4533 161.659 23.96C161.472 23.46 161.182 23.0633 160.789 22.77C160.402 22.47 159.905 22.32 159.299 22.32C158.732 22.32 158.272 22.4567 157.919 22.73C157.572 23.0033 157.319 23.3867 157.159 23.88C156.999 24.3733 156.919 24.9467 156.919 25.6C156.919 26.2533 156.999 26.8267 157.159 27.32C157.319 27.8133 157.579 28.1967 157.939 28.47C158.305 28.7433 158.792 28.88 159.399 28.88ZM171.879 31.3C170.792 31.3 169.839 31.0567 169.019 30.57C168.199 30.0833 167.559 29.4133 167.099 28.56C166.646 27.7 166.419 26.7133 166.419 25.6C166.419 24.4733 166.652 23.4833 167.119 22.63C167.586 21.77 168.229 21.1 169.049 20.62C169.869 20.14 170.812 19.9 171.879 19.9C172.966 19.9 173.919 20.1433 174.739 20.63C175.566 21.1167 176.209 21.79 176.669 22.65C177.129 23.5033 177.359 24.4867 177.359 25.6C177.359 26.72 177.126 27.71 176.659 28.57C176.199 29.4233 175.556 30.0933 174.729 30.58C173.909 31.06 172.959 31.3 171.879 31.3ZM171.879 28.76C172.752 28.76 173.402 28.4667 173.829 27.88C174.262 27.2867 174.479 26.5267 174.479 25.6C174.479 24.64 174.259 23.8733 173.819 23.3C173.386 22.7267 172.739 22.44 171.879 22.44C171.286 22.44 170.799 22.5733 170.419 22.84C170.039 23.1067 169.756 23.4767 169.569 23.95C169.389 24.4233 169.299 24.9733 169.299 25.6C169.299 26.5667 169.516 27.3367 169.949 27.91C170.389 28.4767 171.032 28.76 171.879 28.76ZM179.558 31V20.2H181.958V22.84L181.698 22.5C181.838 22.1267 182.025 21.7867 182.258 21.48C182.492 21.1733 182.778 20.92 183.118 20.72C183.378 20.56 183.662 20.4367 183.968 20.35C184.275 20.2567 184.592 20.2 184.918 20.18C185.245 20.1533 185.572 20.16 185.898 20.2V22.74C185.598 22.6467 185.248 22.6167 184.848 22.65C184.455 22.6767 184.098 22.7667 183.778 22.92C183.458 23.0667 183.188 23.2633 182.968 23.51C182.748 23.75 182.582 24.0367 182.468 24.37C182.355 24.6967 182.298 25.0667 182.298 25.48V31H179.558ZM194.28 31C193.534 31.14 192.8 31.2 192.08 31.18C191.367 31.1667 190.727 31.0433 190.16 30.81C189.6 30.57 189.174 30.1867 188.88 29.66C188.614 29.1667 188.474 28.6667 188.46 28.16C188.447 27.6467 188.44 27.0667 188.44 26.42V17.2H191.16V26.26C191.16 26.68 191.164 27.06 191.17 27.4C191.184 27.7333 191.254 28 191.38 28.2C191.62 28.58 192.004 28.7867 192.53 28.82C193.057 28.8533 193.64 28.8267 194.28 28.74V31ZM186.6 22.3V20.2H194.28V22.3H186.6ZM199.691 31L204.091 16.6H208.151L212.551 31H209.751L205.831 18.3H206.351L202.491 31H199.691ZM202.331 28V25.46H209.931V28H202.331ZM218.347 31V16.6H224.427C224.567 16.6 224.754 16.6067 224.987 16.62C225.227 16.6267 225.441 16.6467 225.627 16.68C226.487 16.8133 227.191 17.0967 227.737 17.53C228.291 17.9633 228.697 18.51 228.957 19.17C229.217 19.8233 229.347 20.5533 229.347 21.36C229.347 22.1667 229.214 22.9 228.947 23.56C228.687 24.2133 228.281 24.7567 227.727 25.19C227.181 25.6233 226.481 25.9067 225.627 26.04C225.441 26.0667 225.227 26.0867 224.987 26.1C224.747 26.1133 224.561 26.12 224.427 26.12H221.067V31H218.347ZM221.067 23.58H224.307C224.447 23.58 224.601 23.5733 224.767 23.56C224.934 23.5467 225.087 23.52 225.227 23.48C225.594 23.38 225.877 23.2133 226.077 22.98C226.277 22.74 226.414 22.4767 226.487 22.19C226.567 21.8967 226.607 21.62 226.607 21.36C226.607 21.1 226.567 20.8267 226.487 20.54C226.414 20.2467 226.277 19.9833 226.077 19.75C225.877 19.51 225.594 19.34 225.227 19.24C225.087 19.2 224.934 19.1733 224.767 19.16C224.601 19.1467 224.447 19.14 224.307 19.14H221.067V23.58ZM231.355 31V20.2H233.755V22.84L233.495 22.5C233.635 22.1267 233.822 21.7867 234.055 21.48C234.288 21.1733 234.575 20.92 234.915 20.72C235.175 20.56 235.458 20.4367 235.765 20.35C236.072 20.2567 236.388 20.2 236.715 20.18C237.042 20.1533 237.368 20.16 237.695 20.2V22.74C237.395 22.6467 237.045 22.6167 236.645 22.65C236.252 22.6767 235.895 22.7667 235.575 22.92C235.255 23.0667 234.985 23.2633 234.765 23.51C234.545 23.75 234.378 24.0367 234.265 24.37C234.152 24.6967 234.095 25.0667 234.095 25.48V31H231.355ZM244.262 31.3C243.175 31.3 242.222 31.0567 241.402 30.57C240.582 30.0833 239.942 29.4133 239.482 28.56C239.029 27.7 238.802 26.7133 238.802 25.6C238.802 24.4733 239.035 23.4833 239.502 22.63C239.969 21.77 240.612 21.1 241.432 20.62C242.252 20.14 243.195 19.9 244.262 19.9C245.349 19.9 246.302 20.1433 247.122 20.63C247.949 21.1167 248.592 21.79 249.052 22.65C249.512 23.5033 249.742 24.4867 249.742 25.6C249.742 26.72 249.509 27.71 249.042 28.57C248.582 29.4233 247.939 30.0933 247.112 30.58C246.292 31.06 245.342 31.3 244.262 31.3ZM244.262 28.76C245.135 28.76 245.785 28.4667 246.212 27.88C246.645 27.2867 246.862 26.5267 246.862 25.6C246.862 24.64 246.642 23.8733 246.202 23.3C245.769 22.7267 245.122 22.44 244.262 22.44C243.669 22.44 243.182 22.5733 242.802 22.84C242.422 23.1067 242.139 23.4767 241.952 23.95C241.772 24.4233 241.682 24.9733 241.682 25.6C241.682 26.5667 241.899 27.3367 242.332 27.91C242.772 28.4767 243.415 28.76 244.262 28.76ZM257.241 31.3C256.168 31.3 255.271 31.05 254.551 30.55C253.831 30.05 253.288 29.37 252.921 28.51C252.561 27.65 252.381 26.68 252.381 25.6C252.381 24.52 252.561 23.55 252.921 22.69C253.281 21.83 253.811 21.15 254.511 20.65C255.211 20.15 256.074 19.9 257.101 19.9C258.134 19.9 259.034 20.1467 259.801 20.64C260.568 21.1333 261.161 21.81 261.581 22.67C262.008 23.5233 262.221 24.5 262.221 25.6C262.221 26.68 262.011 27.65 261.591 28.51C261.178 29.37 260.598 30.05 259.851 30.55C259.104 31.05 258.234 31.3 257.241 31.3ZM251.921 31V16.6H254.661V23.6H254.321V31H251.921ZM256.801 28.88C257.388 28.88 257.868 28.7333 258.241 28.44C258.614 28.1467 258.891 27.7533 259.071 27.26C259.251 26.76 259.341 26.2067 259.341 25.6C259.341 25 259.248 24.4533 259.061 23.96C258.874 23.46 258.584 23.0633 258.191 22.77C257.804 22.47 257.308 22.32 256.701 22.32C256.134 22.32 255.674 22.4567 255.321 22.73C254.974 23.0033 254.721 23.3867 254.561 23.88C254.401 24.3733 254.321 24.9467 254.321 25.6C254.321 26.2533 254.401 26.8267 254.561 27.32C254.721 27.8133 254.981 28.1967 255.341 28.47C255.708 28.7433 256.194 28.88 256.801 28.88ZM264.621 31V16.3H267.341V31H264.621ZM275.359 31.3C274.253 31.3 273.276 31.0633 272.429 30.59C271.589 30.11 270.929 29.4533 270.449 28.62C269.976 27.78 269.739 26.82 269.739 25.74C269.739 24.56 269.973 23.5333 270.439 22.66C270.906 21.7867 271.549 21.11 272.369 20.63C273.189 20.1433 274.133 19.9 275.199 19.9C276.333 19.9 277.296 20.1667 278.089 20.7C278.883 21.2333 279.469 21.9833 279.849 22.95C280.229 23.9167 280.363 25.0533 280.249 26.36H277.559V25.36C277.559 24.26 277.383 23.47 277.029 22.99C276.683 22.5033 276.113 22.26 275.319 22.26C274.393 22.26 273.709 22.5433 273.269 23.11C272.836 23.67 272.619 24.5 272.619 25.6C272.619 26.6067 272.836 27.3867 273.269 27.94C273.709 28.4867 274.353 28.76 275.199 28.76C275.733 28.76 276.189 28.6433 276.569 28.41C276.949 28.1767 277.239 27.84 277.439 27.4L280.159 28.18C279.753 29.1667 279.109 29.9333 278.229 30.48C277.356 31.0267 276.399 31.3 275.359 31.3ZM271.779 26.36V24.34H278.939V26.36H271.779ZM295.214 31V24.62C295.214 23.9067 295.044 23.3533 294.704 22.96C294.371 22.56 293.908 22.36 293.314 22.36C292.934 22.36 292.604 22.45 292.324 22.63C292.044 22.8033 291.824 23.05 291.664 23.37C291.511 23.6833 291.434 24.0467 291.434 24.46L290.294 23.7C290.294 22.96 290.468 22.3067 290.814 21.74C291.168 21.1733 291.638 20.7333 292.224 20.42C292.818 20.1 293.474 19.94 294.194 19.94C295.428 19.94 296.358 20.3067 296.984 21.04C297.618 21.7667 297.934 22.72 297.934 23.9V31H295.214ZM282.194 31V20.2H284.594V23.78H284.934V31H282.194ZM288.714 31V24.62C288.714 23.9067 288.544 23.3533 288.204 22.96C287.871 22.56 287.408 22.36 286.814 22.36C286.248 22.36 285.791 22.5567 285.444 22.95C285.104 23.3367 284.934 23.84 284.934 24.46L283.794 23.66C283.794 22.9533 283.971 22.32 284.324 21.76C284.678 21.2 285.151 20.7567 285.744 20.43C286.344 20.1033 287.014 19.94 287.754 19.94C288.601 19.94 289.294 20.12 289.834 20.48C290.381 20.84 290.784 21.32 291.044 21.92C291.304 22.52 291.434 23.18 291.434 23.9V31H288.714Z" fill="white"/>
</svg>
