<svg width="1371" height="263" viewBox="0 0 1371 263" fill="none" xmlns="http://www.w3.org/2000/svg">
<path d="M294.82 53.4283L183.51 0.867459C180.37 -0.618348 176.648 -0.172321 173.948 2.02776L149.999 21.4879L126.049 2.02776C123.352 -0.166294 119.637 -0.615335 116.49 0.867459L5.17988 53.4283C2.36819 54.7544 0.439463 57.4336 0.0657761 60.5167C-0.307911 63.5999 0.927662 66.6619 3.33854 68.6209L29.6473 89.9978V200.662C29.6473 204.161 31.6634 207.343 34.8277 208.838L146.138 261.402C146.159 261.411 146.18 261.414 146.201 261.423C146.738 261.67 147.292 261.854 147.859 261.993C147.991 262.026 148.121 262.05 148.254 262.077C148.829 262.192 149.408 262.267 149.996 262.267H150.002C150.586 262.267 151.171 262.189 151.746 262.077C151.879 262.05 152.012 262.026 152.141 261.993C152.708 261.854 153.262 261.673 153.796 261.426C153.817 261.417 153.841 261.414 153.862 261.402L265.172 208.838C268.334 207.343 270.353 204.161 270.353 200.662V89.9978L296.659 68.6209C299.072 66.6619 300.308 63.6029 299.934 60.5167C299.564 57.4336 297.629 54.7544 294.82 53.4283ZM25.8954 63.6481L119.07 19.6495L133.152 31.0929L39.9749 75.0915L25.8954 63.6481ZM140.961 238.955L47.7319 194.933V99.9645L140.961 143.987V238.955ZM140.964 123.988L124.015 115.986L59.8647 85.6941L140.961 47.4007L140.964 123.988ZM159.045 47.4007L240.138 85.6941L159.045 123.988V47.4007ZM252.271 194.93L159.042 238.952V143.987L199.271 124.991L252.268 99.9645V194.93H252.271ZM260.028 75.0885L178.32 36.5057L166.851 31.0899L180.936 19.6465L274.108 63.6451L260.028 75.0885Z" fill="url(#paint0_linear_831_74)"/>
<path d="M371.434 190.25C363.434 190.25 356.209 188.85 349.759 186.05C343.359 183.2 338.084 179.15 333.934 173.9C329.834 168.6 327.234 162.3 326.134 155L347.434 151.85C348.934 158.05 352.034 162.825 356.734 166.175C361.434 169.525 366.784 171.2 372.784 171.2C376.134 171.2 379.384 170.675 382.534 169.625C385.684 168.575 388.259 167.025 390.259 164.975C392.309 162.925 393.334 160.4 393.334 157.4C393.334 156.3 393.159 155.25 392.809 154.25C392.509 153.2 391.984 152.225 391.234 151.325C390.484 150.425 389.409 149.575 388.009 148.775C386.659 147.975 384.934 147.25 382.834 146.6L354.784 138.35C352.684 137.75 350.234 136.9 347.434 135.8C344.684 134.7 342.009 133.125 339.409 131.075C336.809 129.025 334.634 126.325 332.884 122.975C331.184 119.575 330.334 115.3 330.334 110.15C330.334 102.9 332.159 96.875 335.809 92.075C339.459 87.275 344.334 83.7 350.434 81.35C356.534 79 363.284 77.85 370.684 77.9C378.134 78 384.784 79.275 390.634 81.725C396.484 84.175 401.384 87.75 405.334 92.45C409.284 97.1 412.134 102.8 413.884 109.55L391.834 113.3C391.034 109.8 389.559 106.85 387.409 104.45C385.259 102.05 382.684 100.225 379.684 98.975C376.734 97.725 373.634 97.05 370.384 96.95C367.184 96.85 364.159 97.3 361.309 98.3C358.509 99.25 356.209 100.65 354.409 102.5C352.659 104.35 351.784 106.55 351.784 109.1C351.784 111.45 352.509 113.375 353.959 114.875C355.409 116.325 357.234 117.5 359.434 118.4C361.634 119.3 363.884 120.05 366.184 120.65L384.934 125.75C387.734 126.5 390.834 127.5 394.234 128.75C397.634 129.95 400.884 131.65 403.984 133.85C407.134 136 409.709 138.85 411.709 142.4C413.759 145.95 414.784 150.45 414.784 155.9C414.784 161.7 413.559 166.775 411.109 171.125C408.709 175.425 405.459 179 401.359 181.85C397.259 184.65 392.609 186.75 387.409 188.15C382.259 189.55 376.934 190.25 371.434 190.25ZM448.519 188L423.769 106.85L443.719 107L458.419 155.3L473.344 107H490.294L505.219 155.3L519.919 107H539.869L515.119 188H499.519L481.819 135.2L464.119 188H448.519ZM554.937 95.75V77.75H575.337V95.75H554.937ZM554.937 188V107H575.337V188H554.937ZM604.571 188V107.3C604.571 105.25 604.621 102.925 604.721 100.325C604.821 97.725 605.221 95.1 605.921 92.45C606.671 89.8 608.021 87.4 609.971 85.25C612.471 82.45 615.171 80.55 618.071 79.55C621.021 78.5 623.871 77.95 626.621 77.9C629.371 77.8 631.721 77.75 633.671 77.75H643.721V94.25H634.421C631.221 94.25 628.846 95.075 627.296 96.725C625.746 98.325 624.971 100.25 624.971 102.5V188H604.571ZM591.821 122.75V107H643.721V122.75H591.821ZM704.283 188C698.683 189.05 693.183 189.5 687.783 189.35C682.433 189.25 677.633 188.325 673.383 186.575C669.183 184.775 665.983 181.9 663.783 177.95C661.783 174.25 660.733 170.5 660.633 166.7C660.533 162.85 660.483 158.5 660.483 153.65V84.5H680.883V152.45C680.883 155.6 680.908 158.45 680.958 161C681.058 163.5 681.583 165.5 682.533 167C684.333 169.85 687.208 171.4 691.158 171.65C695.108 171.9 699.483 171.7 704.283 171.05V188ZM646.683 122.75V107H704.283V122.75H646.683ZM722.333 188V80H757.283C758.133 80 759.883 80.025 762.533 80.075C765.183 80.125 767.733 80.3 770.183 80.6C778.883 81.65 786.258 84.675 792.308 89.675C798.358 94.675 802.958 101.025 806.108 108.725C809.258 116.425 810.833 124.85 810.833 134C810.833 143.15 809.258 151.575 806.108 159.275C802.958 166.975 798.358 173.325 792.308 178.325C786.258 183.325 778.883 186.35 770.183 187.4C767.733 187.7 765.183 187.875 762.533 187.925C759.883 187.975 758.133 188 757.283 188H722.333ZM743.033 168.8H757.283C758.633 168.8 760.458 168.775 762.758 168.725C765.058 168.625 767.133 168.4 768.983 168.05C773.683 167.1 777.508 164.9 780.458 161.45C783.458 158 785.658 153.85 787.058 149C788.508 144.15 789.233 139.15 789.233 134C789.233 128.6 788.483 123.475 786.983 118.625C785.533 113.775 783.308 109.675 780.308 106.325C777.308 102.975 773.533 100.85 768.983 99.95C767.133 99.55 765.058 99.325 762.758 99.275C760.458 99.225 758.633 99.2 757.283 99.2H743.033V168.8ZM830.327 95.75V77.75H850.727V95.75H830.327ZM830.327 188V107H850.727V188H830.327ZM904.862 190.25C894.662 190.25 886.412 187.95 880.112 183.35C873.862 178.7 870.062 172.15 868.712 163.7L889.562 160.55C890.412 164.35 892.287 167.325 895.187 169.475C898.137 171.625 901.862 172.7 906.362 172.7C910.062 172.7 912.912 172 914.912 170.6C916.912 169.15 917.912 167.15 917.912 164.6C917.912 163 917.512 161.725 916.712 160.775C915.912 159.775 914.112 158.8 911.312 157.85C908.562 156.9 904.262 155.65 898.412 154.1C891.812 152.4 886.537 150.5 882.587 148.4C878.637 146.3 875.787 143.8 874.037 140.9C872.287 137.95 871.412 134.4 871.412 130.25C871.412 125.05 872.737 120.55 875.387 116.75C878.037 112.9 881.762 109.95 886.562 107.9C891.412 105.8 897.112 104.75 903.662 104.75C910.012 104.75 915.637 105.725 920.537 107.675C925.437 109.625 929.387 112.4 932.387 116C935.437 119.6 937.312 123.85 938.012 128.75L917.162 132.5C916.812 129.5 915.512 127.125 913.262 125.375C911.012 123.625 907.962 122.6 904.112 122.3C900.362 122.05 897.337 122.55 895.037 123.8C892.787 125.05 891.662 126.85 891.662 129.2C891.662 130.6 892.137 131.775 893.087 132.725C894.087 133.675 896.112 134.65 899.162 135.65C902.262 136.65 906.962 137.95 913.262 139.55C919.412 141.15 924.337 143.025 928.037 145.175C931.787 147.275 934.512 149.825 936.212 152.825C937.912 155.775 938.762 159.35 938.762 163.55C938.762 171.85 935.762 178.375 929.762 183.125C923.762 187.875 915.462 190.25 904.862 190.25ZM994.993 190.25C986.943 190.25 980.218 188.375 974.818 184.625C969.418 180.875 965.343 175.775 962.593 169.325C959.893 162.875 958.543 155.6 958.543 147.5C958.543 139.4 959.893 132.125 962.593 125.675C965.293 119.225 969.268 114.125 974.518 110.375C979.768 106.625 986.243 104.75 993.943 104.75C1001.69 104.75 1008.44 106.6 1014.19 110.3C1019.94 114 1024.39 119.075 1027.54 125.525C1030.74 131.925 1032.34 139.25 1032.34 147.5C1032.34 155.6 1030.77 162.875 1027.62 169.325C1024.52 175.775 1020.17 180.875 1014.57 184.625C1008.97 188.375 1002.44 190.25 994.993 190.25ZM955.093 224V107H973.093V162.5H975.643V224H955.093ZM991.693 172.1C996.093 172.1 999.693 171 1002.49 168.8C1005.29 166.6 1007.37 163.65 1008.72 159.95C1010.07 156.2 1010.74 152.05 1010.74 147.5C1010.74 143 1010.04 138.9 1008.64 135.2C1007.24 131.45 1005.07 128.475 1002.12 126.275C999.218 124.025 995.493 122.9 990.943 122.9C986.693 122.9 983.243 123.925 980.593 125.975C977.993 128.025 976.093 130.9 974.893 134.6C973.693 138.3 973.093 142.6 973.093 147.5C973.093 152.4 973.693 156.7 974.893 160.4C976.093 164.1 978.043 166.975 980.743 169.025C983.493 171.075 987.143 172.1 991.693 172.1ZM1071.35 190.25C1065.55 190.25 1060.62 189.15 1056.57 186.95C1052.57 184.7 1049.52 181.725 1047.42 178.025C1045.37 174.275 1044.35 170.15 1044.35 165.65C1044.35 161.9 1044.92 158.475 1046.07 155.375C1047.22 152.275 1049.07 149.55 1051.62 147.2C1054.22 144.8 1057.7 142.8 1062.05 141.2C1065.05 140.1 1068.62 139.125 1072.77 138.275C1076.92 137.425 1081.62 136.625 1086.87 135.875C1092.12 135.075 1097.9 134.2 1104.2 133.25L1096.85 137.3C1096.85 132.5 1095.7 128.975 1093.4 126.725C1091.1 124.475 1087.25 123.35 1081.85 123.35C1078.85 123.35 1075.72 124.075 1072.47 125.525C1069.22 126.975 1066.95 129.55 1065.65 133.25L1047.2 127.4C1049.25 120.7 1053.1 115.25 1058.75 111.05C1064.4 106.85 1072.1 104.75 1081.85 104.75C1089 104.75 1095.35 105.85 1100.9 108.05C1106.45 110.25 1110.65 114.05 1113.5 119.45C1115.1 122.45 1116.05 125.45 1116.35 128.45C1116.65 131.45 1116.8 134.8 1116.8 138.5V188H1098.95V171.35L1101.5 174.8C1097.55 180.25 1093.27 184.2 1088.67 186.65C1084.12 189.05 1078.35 190.25 1071.35 190.25ZM1075.7 174.2C1079.45 174.2 1082.6 173.55 1085.15 172.25C1087.75 170.9 1089.8 169.375 1091.3 167.675C1092.85 165.975 1093.9 164.55 1094.45 163.4C1095.5 161.2 1096.1 158.65 1096.25 155.75C1096.45 152.8 1096.55 150.35 1096.55 148.4L1102.55 149.9C1096.5 150.9 1091.6 151.75 1087.85 152.45C1084.1 153.1 1081.07 153.7 1078.77 154.25C1076.47 154.8 1074.45 155.4 1072.7 156.05C1070.7 156.85 1069.07 157.725 1067.82 158.675C1066.62 159.575 1065.72 160.575 1065.12 161.675C1064.57 162.775 1064.3 164 1064.3 165.35C1064.3 167.2 1064.75 168.8 1065.65 170.15C1066.6 171.45 1067.92 172.45 1069.62 173.15C1071.32 173.85 1073.35 174.2 1075.7 174.2ZM1184.9 188C1179.3 189.05 1173.8 189.5 1168.4 189.35C1163.05 189.25 1158.25 188.325 1154 186.575C1149.8 184.775 1146.6 181.9 1144.4 177.95C1142.4 174.25 1141.35 170.5 1141.25 166.7C1141.15 162.85 1141.1 158.5 1141.1 153.65V84.5H1161.5V152.45C1161.5 155.6 1161.52 158.45 1161.57 161C1161.67 163.5 1162.2 165.5 1163.15 167C1164.95 169.85 1167.82 171.4 1171.77 171.65C1175.72 171.9 1180.1 171.7 1184.9 171.05V188ZM1127.3 122.75V107H1184.9V122.75H1127.3ZM1234.25 190.25C1225.85 190.25 1218.65 188.375 1212.65 184.625C1206.65 180.875 1202.05 175.775 1198.85 169.325C1195.65 162.875 1194.05 155.6 1194.05 147.5C1194.05 139.3 1195.7 131.975 1199 125.525C1202.35 119.075 1207.05 114 1213.1 110.3C1219.15 106.6 1226.3 104.75 1234.55 104.75C1244.1 104.75 1252.1 107.175 1258.55 112.025C1265.05 116.825 1269.2 123.4 1271 131.75L1250.6 137.15C1249.4 132.95 1247.3 129.675 1244.3 127.325C1241.35 124.975 1238 123.8 1234.25 123.8C1229.95 123.8 1226.43 124.85 1223.68 126.95C1220.93 129 1218.9 131.825 1217.6 135.425C1216.3 138.975 1215.65 143 1215.65 147.5C1215.65 154.55 1217.2 160.275 1220.3 164.675C1223.45 169.025 1228.1 171.2 1234.25 171.2C1238.85 171.2 1242.35 170.15 1244.75 168.05C1247.15 165.95 1248.95 162.95 1250.15 159.05L1271 163.4C1268.7 172 1264.35 178.625 1257.95 183.275C1251.55 187.925 1243.65 190.25 1234.25 190.25ZM1341.2 188V149.75C1341.2 147.9 1341.1 145.55 1340.9 142.7C1340.7 139.8 1340.08 136.9 1339.03 134C1337.98 131.1 1336.25 128.675 1333.85 126.725C1331.5 124.775 1328.15 123.8 1323.8 123.8C1322.05 123.8 1320.18 124.075 1318.18 124.625C1316.18 125.175 1314.3 126.25 1312.55 127.85C1310.8 129.4 1309.35 131.7 1308.2 134.75C1307.1 137.8 1306.55 141.85 1306.55 146.9L1294.85 141.35C1294.85 134.95 1296.15 128.95 1298.75 123.35C1301.35 117.75 1305.25 113.225 1310.45 109.775C1315.7 106.325 1322.3 104.6 1330.25 104.6C1336.6 104.6 1341.78 105.675 1345.78 107.825C1349.78 109.975 1352.88 112.7 1355.08 116C1357.33 119.3 1358.93 122.75 1359.88 126.35C1360.83 129.9 1361.4 133.15 1361.6 136.1C1361.8 139.05 1361.9 141.2 1361.9 142.55V188H1341.2ZM1285.85 188V80H1304V135.5H1306.55V188H1285.85Z" fill="#004039"/>
<defs>
<linearGradient id="paint0_linear_831_74" x1="150" y1="0" x2="150" y2="262.267" gradientUnits="userSpaceOnUse">
<stop stop-color="#004039"/>
<stop offset="0.5" stop-color="#39B1A4"/>
<stop offset="1" stop-color="#2A9D90"/>
</linearGradient>
</defs>
</svg>
