<svg width="1051" height="847" viewBox="0 0 1051 847" fill="none" xmlns="http://www.w3.org/2000/svg">
<path d="M862.914 124.666L603.189 2.02407C595.862 -1.44281 587.178 -0.402083 580.878 4.73144L524.997 50.1385L469.115 4.73144C462.822 -0.388019 454.152 -1.43578 446.811 2.02407L187.086 124.666C180.526 127.76 176.025 134.012 175.153 141.206C174.282 148.4 177.165 155.544 182.79 160.115L244.177 209.995V468.211C244.177 476.375 248.881 483.801 256.265 487.289L515.989 609.938C516.038 609.959 516.087 609.966 516.137 609.988C517.388 610.564 518.682 610.993 520.004 611.317C520.313 611.394 520.616 611.45 520.925 611.514C522.268 611.781 523.618 611.957 524.99 611.957H525.004C526.368 611.957 527.732 611.774 529.075 611.514C529.384 611.45 529.694 611.394 529.996 611.317C531.318 610.993 532.612 610.571 533.857 609.995C533.906 609.974 533.962 609.967 534.011 609.938L793.736 487.289C801.112 483.801 805.823 476.375 805.823 468.211V209.995L867.203 160.115C872.836 155.544 875.718 148.407 874.847 141.206C873.982 134.012 869.467 127.76 862.914 124.666ZM235.423 148.512L452.83 45.8488L485.689 72.5501L268.275 175.214L235.423 148.512ZM503.908 557.562L286.374 454.843V233.25L503.908 335.97V557.562ZM503.915 289.304L464.369 270.634L314.684 199.953L503.908 110.602L503.915 289.304ZM546.106 110.602L735.323 199.953L546.106 289.304V110.602ZM763.633 454.836L546.099 557.555V335.97L639.965 291.646L763.626 233.25V454.836H763.633ZM781.732 175.207L591.081 85.18L564.318 72.5432L597.184 45.8417L814.585 148.505L781.732 175.207Z" fill="url(#paint0_linear_831_73)"/>
<path d="M51.4338 804.25C43.4338 804.25 36.2088 802.85 29.7588 800.05C23.3588 797.2 18.0838 793.15 13.9338 787.9C9.83379 782.6 7.23379 776.3 6.13379 769L27.4338 765.85C28.9338 772.05 32.0338 776.825 36.7338 780.175C41.4338 783.525 46.7838 785.2 52.7838 785.2C56.1338 785.2 59.3838 784.675 62.5338 783.625C65.6838 782.575 68.2588 781.025 70.2588 778.975C72.3088 776.925 73.3338 774.4 73.3338 771.4C73.3338 770.3 73.1588 769.25 72.8088 768.25C72.5088 767.2 71.9838 766.225 71.2338 765.325C70.4838 764.425 69.4088 763.575 68.0088 762.775C66.6588 761.975 64.9338 761.25 62.8338 760.6L34.7838 752.35C32.6838 751.75 30.2338 750.9 27.4338 749.8C24.6838 748.7 22.0088 747.125 19.4088 745.075C16.8088 743.025 14.6338 740.325 12.8838 736.975C11.1838 733.575 10.3338 729.3 10.3338 724.15C10.3338 716.9 12.1588 710.875 15.8088 706.075C19.4588 701.275 24.3338 697.7 30.4338 695.35C36.5338 693 43.2838 691.85 50.6838 691.9C58.1338 692 64.7838 693.275 70.6338 695.725C76.4838 698.175 81.3838 701.75 85.3338 706.45C89.2838 711.1 92.1338 716.8 93.8838 723.55L71.8338 727.3C71.0338 723.8 69.5588 720.85 67.4088 718.45C65.2588 716.05 62.6838 714.225 59.6838 712.975C56.7338 711.725 53.6338 711.05 50.3838 710.95C47.1838 710.85 44.1588 711.3 41.3088 712.3C38.5088 713.25 36.2088 714.65 34.4088 716.5C32.6588 718.35 31.7838 720.55 31.7838 723.1C31.7838 725.45 32.5088 727.375 33.9588 728.875C35.4088 730.325 37.2338 731.5 39.4338 732.4C41.6338 733.3 43.8838 734.05 46.1838 734.65L64.9338 739.75C67.7338 740.5 70.8338 741.5 74.2338 742.75C77.6338 743.95 80.8838 745.65 83.9838 747.85C87.1338 750 89.7088 752.85 91.7088 756.4C93.7588 759.95 94.7838 764.45 94.7838 769.9C94.7838 775.7 93.5588 780.775 91.1088 785.125C88.7088 789.425 85.4588 793 81.3588 795.85C77.2588 798.65 72.6088 800.75 67.4088 802.15C62.2588 803.55 56.9338 804.25 51.4338 804.25ZM128.519 802L103.769 720.85L123.719 721L138.419 769.3L153.344 721H170.294L185.219 769.3L199.919 721H219.869L195.119 802H179.519L161.819 749.2L144.119 802H128.519ZM234.937 709.75V691.75H255.337V709.75H234.937ZM234.937 802V721H255.337V802H234.937ZM284.571 802V721.3C284.571 719.25 284.621 716.925 284.721 714.325C284.821 711.725 285.221 709.1 285.921 706.45C286.671 703.8 288.021 701.4 289.971 699.25C292.471 696.45 295.171 694.55 298.071 693.55C301.021 692.5 303.871 691.95 306.621 691.9C309.371 691.8 311.721 691.75 313.671 691.75H323.721V708.25H314.421C311.221 708.25 308.846 709.075 307.296 710.725C305.746 712.325 304.971 714.25 304.971 716.5V802H284.571ZM271.821 736.75V721H323.721V736.75H271.821ZM384.283 802C378.683 803.05 373.183 803.5 367.783 803.35C362.433 803.25 357.633 802.325 353.383 800.575C349.183 798.775 345.983 795.9 343.783 791.95C341.783 788.25 340.733 784.5 340.633 780.7C340.533 776.85 340.483 772.5 340.483 767.65V698.5H360.883V766.45C360.883 769.6 360.908 772.45 360.958 775C361.058 777.5 361.583 779.5 362.533 781C364.333 783.85 367.208 785.4 371.158 785.65C375.108 785.9 379.483 785.7 384.283 785.05V802ZM326.683 736.75V721H384.283V736.75H326.683ZM402.333 802V694H437.283C438.133 694 439.883 694.025 442.533 694.075C445.183 694.125 447.733 694.3 450.183 694.6C458.883 695.65 466.258 698.675 472.308 703.675C478.358 708.675 482.958 715.025 486.108 722.725C489.258 730.425 490.833 738.85 490.833 748C490.833 757.15 489.258 765.575 486.108 773.275C482.958 780.975 478.358 787.325 472.308 792.325C466.258 797.325 458.883 800.35 450.183 801.4C447.733 801.7 445.183 801.875 442.533 801.925C439.883 801.975 438.133 802 437.283 802H402.333ZM423.033 782.8H437.283C438.633 782.8 440.458 782.775 442.758 782.725C445.058 782.625 447.133 782.4 448.983 782.05C453.683 781.1 457.508 778.9 460.458 775.45C463.458 772 465.658 767.85 467.058 763C468.508 758.15 469.233 753.15 469.233 748C469.233 742.6 468.483 737.475 466.983 732.625C465.533 727.775 463.308 723.675 460.308 720.325C457.308 716.975 453.533 714.85 448.983 713.95C447.133 713.55 445.058 713.325 442.758 713.275C440.458 713.225 438.633 713.2 437.283 713.2H423.033V782.8ZM510.327 709.75V691.75H530.727V709.75H510.327ZM510.327 802V721H530.727V802H510.327ZM584.862 804.25C574.662 804.25 566.412 801.95 560.112 797.35C553.862 792.7 550.062 786.15 548.712 777.7L569.562 774.55C570.412 778.35 572.287 781.325 575.187 783.475C578.137 785.625 581.862 786.7 586.362 786.7C590.062 786.7 592.912 786 594.912 784.6C596.912 783.15 597.912 781.15 597.912 778.6C597.912 777 597.512 775.725 596.712 774.775C595.912 773.775 594.112 772.8 591.312 771.85C588.562 770.9 584.262 769.65 578.412 768.1C571.812 766.4 566.537 764.5 562.587 762.4C558.637 760.3 555.787 757.8 554.037 754.9C552.287 751.95 551.412 748.4 551.412 744.25C551.412 739.05 552.737 734.55 555.387 730.75C558.037 726.9 561.762 723.95 566.562 721.9C571.412 719.8 577.112 718.75 583.662 718.75C590.012 718.75 595.637 719.725 600.537 721.675C605.437 723.625 609.387 726.4 612.387 730C615.437 733.6 617.312 737.85 618.012 742.75L597.162 746.5C596.812 743.5 595.512 741.125 593.262 739.375C591.012 737.625 587.962 736.6 584.112 736.3C580.362 736.05 577.337 736.55 575.037 737.8C572.787 739.05 571.662 740.85 571.662 743.2C571.662 744.6 572.137 745.775 573.087 746.725C574.087 747.675 576.112 748.65 579.162 749.65C582.262 750.65 586.962 751.95 593.262 753.55C599.412 755.15 604.337 757.025 608.037 759.175C611.787 761.275 614.512 763.825 616.212 766.825C617.912 769.775 618.762 773.35 618.762 777.55C618.762 785.85 615.762 792.375 609.762 797.125C603.762 801.875 595.462 804.25 584.862 804.25ZM674.993 804.25C666.943 804.25 660.218 802.375 654.818 798.625C649.418 794.875 645.343 789.775 642.593 783.325C639.893 776.875 638.543 769.6 638.543 761.5C638.543 753.4 639.893 746.125 642.593 739.675C645.293 733.225 649.268 728.125 654.518 724.375C659.768 720.625 666.243 718.75 673.943 718.75C681.693 718.75 688.443 720.6 694.193 724.3C699.943 728 704.393 733.075 707.543 739.525C710.743 745.925 712.343 753.25 712.343 761.5C712.343 769.6 710.768 776.875 707.618 783.325C704.518 789.775 700.168 794.875 694.568 798.625C688.968 802.375 682.443 804.25 674.993 804.25ZM635.093 838V721H653.093V776.5H655.643V838H635.093ZM671.693 786.1C676.093 786.1 679.693 785 682.493 782.8C685.293 780.6 687.368 777.65 688.718 773.95C690.068 770.2 690.743 766.05 690.743 761.5C690.743 757 690.043 752.9 688.643 749.2C687.243 745.45 685.068 742.475 682.118 740.275C679.218 738.025 675.493 736.9 670.943 736.9C666.693 736.9 663.243 737.925 660.593 739.975C657.993 742.025 656.093 744.9 654.893 748.6C653.693 752.3 653.093 756.6 653.093 761.5C653.093 766.4 653.693 770.7 654.893 774.4C656.093 778.1 658.043 780.975 660.743 783.025C663.493 785.075 667.143 786.1 671.693 786.1ZM751.347 804.25C745.547 804.25 740.622 803.15 736.572 800.95C732.572 798.7 729.522 795.725 727.422 792.025C725.372 788.275 724.347 784.15 724.347 779.65C724.347 775.9 724.922 772.475 726.072 769.375C727.222 766.275 729.072 763.55 731.622 761.2C734.222 758.8 737.697 756.8 742.047 755.2C745.047 754.1 748.622 753.125 752.772 752.275C756.922 751.425 761.622 750.625 766.872 749.875C772.122 749.075 777.897 748.2 784.197 747.25L776.847 751.3C776.847 746.5 775.697 742.975 773.397 740.725C771.097 738.475 767.247 737.35 761.847 737.35C758.847 737.35 755.722 738.075 752.472 739.525C749.222 740.975 746.947 743.55 745.647 747.25L727.197 741.4C729.247 734.7 733.097 729.25 738.747 725.05C744.397 720.85 752.097 718.75 761.847 718.75C768.997 718.75 775.347 719.85 780.897 722.05C786.447 724.25 790.647 728.05 793.497 733.45C795.097 736.45 796.047 739.45 796.347 742.45C796.647 745.45 796.797 748.8 796.797 752.5V802H778.947V785.35L781.497 788.8C777.547 794.25 773.272 798.2 768.672 800.65C764.122 803.05 758.347 804.25 751.347 804.25ZM755.697 788.2C759.447 788.2 762.597 787.55 765.147 786.25C767.747 784.9 769.797 783.375 771.297 781.675C772.847 779.975 773.897 778.55 774.447 777.4C775.497 775.2 776.097 772.65 776.247 769.75C776.447 766.8 776.547 764.35 776.547 762.4L782.547 763.9C776.497 764.9 771.597 765.75 767.847 766.45C764.097 767.1 761.072 767.7 758.772 768.25C756.472 768.8 754.447 769.4 752.697 770.05C750.697 770.85 749.072 771.725 747.822 772.675C746.622 773.575 745.722 774.575 745.122 775.675C744.572 776.775 744.297 778 744.297 779.35C744.297 781.2 744.747 782.8 745.647 784.15C746.597 785.45 747.922 786.45 749.622 787.15C751.322 787.85 753.347 788.2 755.697 788.2ZM864.898 802C859.298 803.05 853.798 803.5 848.398 803.35C843.048 803.25 838.248 802.325 833.998 800.575C829.798 798.775 826.598 795.9 824.398 791.95C822.398 788.25 821.348 784.5 821.248 780.7C821.148 776.85 821.098 772.5 821.098 767.65V698.5H841.498V766.45C841.498 769.6 841.523 772.45 841.573 775C841.673 777.5 842.198 779.5 843.148 781C844.948 783.85 847.823 785.4 851.773 785.65C855.723 785.9 860.098 785.7 864.898 785.05V802ZM807.298 736.75V721H864.898V736.75H807.298ZM914.254 804.25C905.854 804.25 898.654 802.375 892.654 798.625C886.654 794.875 882.054 789.775 878.854 783.325C875.654 776.875 874.054 769.6 874.054 761.5C874.054 753.3 875.704 745.975 879.004 739.525C882.354 733.075 887.054 728 893.104 724.3C899.154 720.6 906.304 718.75 914.554 718.75C924.104 718.75 932.104 721.175 938.554 726.025C945.054 730.825 949.204 737.4 951.004 745.75L930.604 751.15C929.404 746.95 927.304 743.675 924.304 741.325C921.354 738.975 918.004 737.8 914.254 737.8C909.954 737.8 906.429 738.85 903.679 740.95C900.929 743 898.904 745.825 897.604 749.425C896.304 752.975 895.654 757 895.654 761.5C895.654 768.55 897.204 774.275 900.304 778.675C903.454 783.025 908.104 785.2 914.254 785.2C918.854 785.2 922.354 784.15 924.754 782.05C927.154 779.95 928.954 776.95 930.154 773.05L951.004 777.4C948.704 786 944.354 792.625 937.954 797.275C931.554 801.925 923.654 804.25 914.254 804.25ZM1021.2 802V763.75C1021.2 761.9 1021.1 759.55 1020.9 756.7C1020.7 753.8 1020.08 750.9 1019.03 748C1017.98 745.1 1016.25 742.675 1013.85 740.725C1011.5 738.775 1008.15 737.8 1003.8 737.8C1002.05 737.8 1000.18 738.075 998.18 738.625C996.18 739.175 994.305 740.25 992.555 741.85C990.805 743.4 989.355 745.7 988.205 748.75C987.105 751.8 986.555 755.85 986.555 760.9L974.855 755.35C974.855 748.95 976.155 742.95 978.755 737.35C981.355 731.75 985.255 727.225 990.455 723.775C995.705 720.325 1002.3 718.6 1010.25 718.6C1016.6 718.6 1021.78 719.675 1025.78 721.825C1029.78 723.975 1032.88 726.7 1035.08 730C1037.33 733.3 1038.93 736.75 1039.88 740.35C1040.83 743.9 1041.4 747.15 1041.6 750.1C1041.8 753.05 1041.9 755.2 1041.9 756.55V802H1021.2ZM965.855 802V694H984.005V749.5H986.555V802H965.855Z" fill="#004039"/>
<defs>
<linearGradient id="paint0_linear_831_73" x1="525" y1="0" x2="525" y2="611.957" gradientUnits="userSpaceOnUse">
<stop stop-color="#004039"/>
<stop offset="0.5" stop-color="#39B1A4"/>
<stop offset="1" stop-color="#2A9D90"/>
</linearGradient>
</defs>
</svg>
