<svg width="1052" height="920" viewBox="0 0 1052 920" fill="none" xmlns="http://www.w3.org/2000/svg">
<path d="M1033.84 187.42L643.507 3.04294C632.496 -2.16909 619.445 -0.604482 609.976 7.11312L525.995 75.3769L442.013 7.11312C432.555 -0.583338 419.525 -2.15852 408.493 3.04294L18.1641 187.42C8.30444 192.071 1.54105 201.47 0.230655 212.285C-1.07974 223.1 3.253 233.841 11.7072 240.713L103.963 315.701V703.896C103.963 716.171 111.033 727.335 122.129 732.579L512.458 916.966C512.532 916.998 512.606 917.008 512.68 917.04C514.561 917.907 516.505 918.552 518.492 919.038C518.957 919.154 519.411 919.239 519.876 919.334C521.895 919.736 523.924 920 525.984 920H526.005C528.056 920 530.106 919.725 532.124 919.334C532.589 919.239 533.054 919.154 533.508 919.038C535.495 918.552 537.44 917.917 539.31 917.051C539.384 917.019 539.469 917.008 539.543 916.966L929.871 732.579C940.957 727.335 948.037 716.171 948.037 703.896V315.701L1040.28 240.713C1048.75 233.841 1053.08 223.111 1051.77 212.285C1050.47 201.47 1043.69 192.071 1033.84 187.42ZM90.8064 223.269L417.538 68.928L466.921 109.07L140.179 263.412L90.8064 223.269ZM494.302 838.225L167.38 683.799V350.663L494.302 505.089V838.225ZM494.313 434.933L434.88 406.864L209.925 300.604L494.302 166.276L494.313 434.933ZM557.719 166.276L842.085 300.604L557.719 434.933V166.276ZM884.631 683.789L557.708 838.215V505.089L698.777 438.453L884.62 350.663V683.789H884.631ZM911.832 263.401L625.31 128.058L585.089 109.06L634.483 68.9173L961.204 223.259L911.832 263.401Z" fill="url(#paint0_linear_831_67)"/>
<defs>
<linearGradient id="paint0_linear_831_67" x1="526" y1="0" x2="526" y2="920" gradientUnits="userSpaceOnUse">
<stop stop-color="#004039"/>
<stop offset="0.5" stop-color="#39B1A4"/>
<stop offset="1" stop-color="#2A9D90"/>
</linearGradient>
</defs>
</svg>
