<svg width="100" height="100" viewBox="0 0 100 100" fill="none" xmlns="http://www.w3.org/2000/svg">
<g clip-path="url(#clip0_637_542)">
<path d="M99.809 63.5618L90.6207 43.65C90.6145 43.6367 90.2268 42.6709 89.0664 42.4673L50.3455 36.1034C50.3104 36.0977 49.9733 36.044 49.6478 36.1071L10.9493 42.4673C10.267 42.5791 9.68525 43.0227 9.39509 43.65L0.206925 63.5618C-0.631516 65.5223 1.29635 66.618 2.09867 66.5174H9.2041V91.5574C9.2041 92.5775 9.94256 93.4472 10.9495 93.6128L49.6705 99.9767C49.7029 99.9821 50.3126 99.9823 50.3459 99.9767L89.0668 93.6128C90.0738 93.4469 90.812 92.5775 90.812 91.5574V66.5174H97.9175C98.6274 66.5174 99.2895 66.1553 99.6719 65.5572C100.054 64.9593 100.106 64.2066 99.809 63.5618ZM5.35449 62.3516L12.7152 46.3995L33.8799 42.9205L46.8836 40.7833L39.3419 62.3516H5.35449ZM47.925 95.4681L13.3702 89.7885V66.5174H40.8196C41.7046 66.5174 42.4938 65.9579 42.7856 65.1219L47.925 50.425V95.4681ZM86.6458 89.7885L52.0909 95.4681V50.4255L57.2303 65.1219C57.5221 65.9581 58.3114 66.5174 59.1963 66.5174H86.6458V89.7885ZM60.6743 62.3516L53.1326 40.7833L66.674 43.0088L87.3008 46.3993L94.6615 62.3514H60.6743V62.3516Z" fill="#2A9D90"/>
<path d="M37 3.67725L48.7391 15.4164L46.5 17.6556L38.5833 9.73893V29.6664H35.4167V9.73893L27.4999 17.6556L25.2607 15.4164L37 3.67725Z" fill="#2A9D90"/>
<path d="M63 29.3226L74.7391 17.5835L72.5 15.3443L64.5833 23.261V3.3335H61.4167V23.261L53.4999 15.3443L51.2607 17.5835L63 29.3226Z" fill="#2A9D90"/>
</g>
<defs>
<clipPath id="clip0_637_542">
<rect width="100" height="100" fill="white"/>
</clipPath>
</defs>
</svg>
