<svg width="40" height="40" viewBox="0 0 40 40" fill="none" xmlns="http://www.w3.org/2000/svg">
<g clip-path="url(#clip0_637_282)">
<path d="M32.5034 25C32.1202 25.0029 31.7378 25.0353 31.3596 25.0967L28.8356 14.6409C28.9661 14.2735 28.9685 13.8728 28.8423 13.5039C28.7161 13.135 28.4688 12.8197 28.1406 12.6093L20.6736 7.77738C20.2497 7.50495 19.7648 7.34218 19.2624 7.30369C19.4093 6.88775 19.4047 6.43335 19.2495 6.02046C19.0943 5.60757 18.7984 5.26264 18.414 5.04638L10.7784 0.773315C10.3443 0.531105 9.83193 0.470929 9.35356 0.605986C8.8752 0.741042 8.46993 1.0603 8.22663 1.49375L7.00582 3.67538L2.12214 12.4018C1.87979 12.8358 1.81956 13.3483 1.95465 13.8267C2.08974 14.3051 2.40912 14.7104 2.8427 14.9536L10.4784 19.2267C10.757 19.3832 11.0713 19.4654 11.3909 19.4653C11.5406 19.4636 11.6895 19.4441 11.8346 19.4072C12.0701 19.8773 12.4232 20.2786 12.8596 20.5719L15.5894 22.3916L11.9721 26.4908C10.6395 25.5009 9.01582 24.9815 7.35604 25.0142C5.69625 25.0468 4.0943 25.6297 2.80163 26.6714C1.50896 27.713 0.598768 29.1544 0.213916 30.7692C-0.170936 32.3841 -0.00865667 34.0811 0.675281 35.5938C1.35922 37.1064 2.52609 38.3492 3.99274 39.1269C5.45939 39.9047 7.14279 40.1734 8.77868 39.8909C10.4146 39.6084 11.9104 38.7907 13.0313 37.5662C14.1521 36.3416 14.8347 34.7795 14.9717 33.125H18.2436C18.3902 33.5419 18.6796 33.8933 19.0606 34.1172C19.4416 34.341 19.8895 34.4227 20.325 34.3478C20.7604 34.2729 21.1553 34.0463 21.4397 33.7081C21.724 33.3699 21.8794 32.9419 21.8784 32.5V31.3198L29.4925 22.6905L30.1433 25.3863C28.3586 25.9829 26.8641 27.2297 25.9572 28.8784C25.0504 30.5272 24.7976 32.457 25.2493 34.2837C25.7011 36.1104 26.8241 37.7 28.3949 38.736C29.9657 39.7721 31.869 40.1786 33.7261 39.8747C35.5831 39.5708 37.2575 38.5787 38.4161 37.096C39.5747 35.6133 40.1324 33.7486 39.9783 31.8732C39.8241 29.9978 38.9694 28.2493 37.5842 26.9756C36.1991 25.7019 34.3851 24.9966 32.5034 25ZM9.31732 2.10419C9.35729 2.03245 9.41107 1.96934 9.47554 1.91848C9.54002 1.86762 9.61393 1.83003 9.69301 1.80788C9.74863 1.79215 9.80614 1.78414 9.86395 1.78407C9.97053 1.78427 10.0753 1.81179 10.1682 1.864L17.8037 6.13707C17.8753 6.17716 17.9384 6.23097 17.9892 6.29543C18.0401 6.35989 18.0777 6.43374 18.1 6.51276C18.1223 6.59177 18.1289 6.67441 18.1192 6.75594C18.1096 6.83748 18.0839 6.91631 18.0438 6.98794L17.1284 8.62395L8.40157 3.74057L9.31732 2.10419ZM11.0886 18.136L3.45338 13.8629C3.38173 13.8229 3.31868 13.769 3.26783 13.7046C3.21699 13.6401 3.17934 13.5663 3.15704 13.4873C3.13474 13.4082 3.12823 13.3256 3.13787 13.2441C3.14752 13.1625 3.17314 13.0837 3.21326 13.0121L7.7912 4.83125L16.5179 9.71463L11.9394 17.8959C11.8994 17.9675 11.8456 18.0306 11.7811 18.0815C11.7166 18.1323 11.6428 18.17 11.5638 18.1923C11.4848 18.2146 11.4021 18.2211 11.3206 18.2115C11.239 18.2018 11.1602 18.1761 11.0886 18.136ZM18.1284 24.0845V31.875H14.9717C14.8292 30.1637 14.1013 28.5538 12.9106 27.3163L16.6386 23.0913L18.1284 24.0845ZM12.08 28.2578C13.0078 29.2518 13.5844 30.5223 13.7217 31.875H8.88826L12.08 28.2578ZM7.50338 38.75C6.51748 38.7523 5.54503 38.5212 4.66549 38.0758C3.78594 37.6304 3.02425 36.9832 2.44263 36.1871C1.86102 35.391 1.47598 34.4686 1.31898 33.4953C1.16198 32.522 1.23747 31.5253 1.53928 30.5868C1.84109 29.6482 2.36066 28.7943 3.05554 28.0949C3.75042 27.3955 4.60091 26.8705 5.53751 26.5626C6.47411 26.2547 7.47026 26.1728 8.44458 26.3235C9.4189 26.4742 10.3438 26.8533 11.1436 27.4297L7.03463 32.0865C6.95504 32.1767 6.90318 32.288 6.88526 32.4069C6.86735 32.5259 6.88414 32.6475 6.93364 32.7572C6.98313 32.8668 7.06321 32.9598 7.16427 33.0251C7.26534 33.0903 7.38308 33.125 7.50338 33.125H13.7217C13.565 34.6659 12.8425 36.0939 11.6939 37.1329C10.5453 38.1719 9.05219 38.7481 7.50338 38.75ZM20.6284 32.5C20.6284 32.6658 20.5625 32.8248 20.4453 32.942C20.3281 33.0592 20.1691 33.125 20.0034 33.125C19.8376 33.125 19.6786 33.0592 19.5614 32.942C19.4442 32.8248 19.3784 32.6658 19.3784 32.5V23.75C19.3784 23.6471 19.353 23.5458 19.3044 23.4551C19.2559 23.3644 19.1857 23.2871 19.1001 23.23L13.5526 19.5319C13.2514 19.3294 13.017 19.0424 12.8786 18.7069C12.9337 18.6436 12.9843 18.5766 13.0301 18.5063L17.9136 9.7802V9.77945L18.5894 8.57182C18.7179 8.54277 18.849 8.52715 18.9807 8.5252C19.3405 8.5256 19.6924 8.63036 19.9939 8.82676L27.4609 13.6586C27.5151 13.6942 27.562 13.7402 27.5985 13.7938C27.6349 13.8475 27.6604 13.9078 27.6736 13.9713C27.6867 14.0348 27.6872 14.1003 27.675 14.164C27.6629 14.2277 27.6383 14.2884 27.6026 14.3426C27.567 14.3968 27.521 14.4435 27.4674 14.4799C27.4137 14.5164 27.3534 14.5419 27.2899 14.555C27.2264 14.5682 27.1609 14.5687 27.0972 14.5565C27.0335 14.5443 26.9728 14.5197 26.9186 14.4841L22.2248 11.3548C22.1526 11.3067 22.0712 11.2742 21.9858 11.2593C21.9004 11.2444 21.8128 11.2474 21.7286 11.2681C21.6444 11.2889 21.5654 11.3269 21.4967 11.3798C21.428 11.4327 21.371 11.4993 21.3294 11.5754L17.5794 18.4505C17.5232 18.5535 17.4971 18.6703 17.5042 18.7874C17.5113 18.9046 17.5512 19.0174 17.6194 19.113L20.6284 23.325V32.5ZM21.8784 29.4305V23.125C21.8784 22.9948 21.8378 22.8678 21.7621 22.7618L21.5751 22.5H27.9938L21.8784 29.4305ZM20.6823 21.25L18.8648 18.7055L22.0999 12.7742L26.2256 15.5242C26.456 15.6769 26.7195 15.7726 26.9942 15.8032C27.2689 15.8339 27.5469 15.7987 27.8053 15.7006L29.1448 21.25H20.6823ZM32.5034 38.75C31.0277 38.751 29.5994 38.2295 28.4715 37.2779C27.3437 36.3263 26.5892 35.0062 26.3417 33.5514C26.0943 32.0967 26.3699 30.6013 27.1197 29.3303C27.8695 28.0594 29.0451 27.095 30.4381 26.608L31.8958 32.6468C31.9347 32.808 32.0361 32.9471 32.1776 33.0335C32.3191 33.1199 32.4891 33.1465 32.6503 33.1076C32.8114 33.0686 32.9505 32.9673 33.0369 32.8258C33.1233 32.6843 33.15 32.5142 33.111 32.3531L31.6534 26.3148C32.5018 26.1978 33.3653 26.2566 34.1901 26.4875C35.0149 26.7183 35.7834 27.1163 36.4478 27.6567C37.1123 28.1971 37.6585 28.8684 38.0526 29.6289C38.4467 30.3893 38.6802 31.2227 38.7386 32.0771C38.797 32.9316 38.6791 33.789 38.3922 34.596C38.1052 35.403 37.6554 36.1423 37.0706 36.7682C36.4859 37.3939 35.7787 37.8928 34.993 38.2338C34.2073 38.5747 33.3599 38.7504 32.5034 38.75ZM25.0034 7.50001C25.7451 7.50001 26.4701 7.28007 27.0868 6.86802C27.7034 6.45596 28.1841 5.87029 28.4679 5.18507C28.7518 4.49984 28.826 3.74584 28.6813 3.01842C28.5366 2.29099 28.1795 1.6228 27.655 1.09835C27.1306 0.573905 26.4624 0.216752 25.735 0.0720569C25.0075 -0.0726377 24.2535 0.00162482 23.5683 0.285454C22.8831 0.569282 22.2974 1.04993 21.8854 1.66661C21.4733 2.2833 21.2534 3.00832 21.2534 3.75C21.2545 4.74423 21.6499 5.69743 22.3529 6.40045C23.056 7.10348 24.0092 7.49891 25.0034 7.50001ZM25.0034 1.25C25.4978 1.25 25.9812 1.39663 26.3923 1.67133C26.8034 1.94603 27.1239 2.33648 27.3131 2.7933C27.5023 3.25011 27.5518 3.75278 27.4553 4.23773C27.3589 4.72268 27.1208 5.16814 26.7711 5.51777C26.4215 5.8674 25.9761 6.10551 25.4911 6.20197C25.0062 6.29843 24.5035 6.24892 24.0467 6.0597C23.5899 5.87049 23.1994 5.55005 22.9247 5.13893C22.65 4.72781 22.5034 4.24446 22.5034 3.75C22.5041 3.08719 22.7678 2.45174 23.2364 1.98306C23.7051 1.51438 24.3406 1.25075 25.0034 1.25ZM12.6792 14.6381C12.8175 14.6382 12.952 14.5924 13.0615 14.5079C13.171 14.4234 13.2494 14.3049 13.2844 14.171C13.3193 14.0372 13.3089 13.8955 13.2547 13.7683C13.2005 13.641 13.1057 13.5353 12.9849 13.4677L12.9366 13.4406C13.2008 12.7088 13.2288 11.9126 13.0167 11.164C12.8046 10.4154 12.3631 9.7522 11.7543 9.26776L11.7841 9.21451C11.8256 9.14281 11.8525 9.06357 11.8631 8.9814C11.8737 8.89923 11.8679 8.81577 11.846 8.73586C11.8241 8.65596 11.7865 8.58122 11.7354 8.51597C11.6843 8.45073 11.6208 8.3963 11.5485 8.35583C11.4762 8.31537 11.3965 8.28969 11.3142 8.28028C11.2319 8.27087 11.1485 8.27792 11.069 8.30103C10.9894 8.32413 10.9152 8.36283 10.8507 8.41487C10.7863 8.4669 10.7328 8.53124 10.6934 8.60413L10.6664 8.65238C9.9346 8.38819 9.13833 8.36019 8.38973 8.57231C7.64113 8.78443 6.97792 9.22598 6.49345 9.83482L6.44013 9.80501C6.36843 9.76333 6.28915 9.73634 6.20691 9.72561C6.12467 9.71487 6.04111 9.72062 5.96111 9.74251C5.88112 9.76439 5.80627 9.80198 5.74095 9.85308C5.67562 9.90419 5.62112 9.96778 5.58062 10.0402C5.54012 10.1125 5.51444 10.1922 5.50505 10.2747C5.49567 10.3571 5.50278 10.4405 5.52598 10.5201C5.54917 10.5998 5.58798 10.674 5.64015 10.7385C5.69231 10.8029 5.75679 10.8564 5.82982 10.8957L12.3746 14.5582C12.4676 14.6105 12.5725 14.638 12.6792 14.6381ZM8.72807 9.77557C9.15176 9.65344 9.60031 9.64618 10.0277 9.75453C10.4552 9.86287 10.8461 10.0829 11.1604 10.3921C11.4748 10.7014 11.7013 11.0886 11.8166 11.5142C11.932 11.9398 11.9321 12.3884 11.817 12.814L7.60807 10.4585C7.9134 10.1344 8.30008 9.89841 8.72807 9.77557Z" fill="#004039"/>
</g>
<defs>
<clipPath id="clip0_637_282">
<rect width="40" height="40" fill="white"/>
</clipPath>
</defs>
</svg>
