<svg width="50" height="50" viewBox="0 0 50 50" fill="none" xmlns="http://www.w3.org/2000/svg">
<path d="M24.9996 43.9227C24.8061 43.9223 24.6152 43.8769 24.4421 43.7902L6.76965 34.9727C6.56143 34.8689 6.3863 34.7091 6.26396 34.5113C6.14162 34.3134 6.07692 34.0853 6.07715 33.8527V16.2152C6.07739 15.983 6.14231 15.7554 6.26462 15.5581C6.38694 15.3607 6.56181 15.2013 6.76965 15.0977L24.4421 6.27769C24.6153 6.1914 24.8062 6.14648 24.9996 6.14648C25.1931 6.14648 25.384 6.1914 25.5571 6.27769L43.2296 15.0977C43.4375 15.2013 43.6124 15.3607 43.7347 15.5581C43.857 15.7554 43.9219 15.983 43.9221 16.2152V33.8527C43.9224 34.0853 43.8577 34.3134 43.7353 34.5113C43.613 34.7091 43.4379 34.8689 43.2296 34.9727L25.5571 43.7902C25.3841 43.8769 25.1932 43.9223 24.9996 43.9227ZM8.57715 33.0802L24.9996 41.2752L41.4221 33.0802V17.0002L24.9996 8.79269L8.57715 17.0002V33.0802Z" fill="#004039"/>
<path d="M25.0005 26.2501C24.8071 26.2505 24.6162 26.206 24.443 26.1201L6.77298 17.3351C6.47461 17.1876 6.24706 16.9275 6.1404 16.6123C6.03374 16.297 6.0567 15.9522 6.20423 15.6538C6.35175 15.3555 6.61176 15.1279 6.92706 15.0213C7.24235 14.9146 7.58711 14.9376 7.88548 15.0851L25.0005 23.5851L42.1155 15.0851C42.2632 15.012 42.4239 14.9688 42.5883 14.9579C42.7528 14.9469 42.9178 14.9684 43.0739 15.0213C43.23 15.0741 43.3742 15.1571 43.4982 15.2657C43.6222 15.3742 43.7237 15.5061 43.7967 15.6538C43.8698 15.8016 43.913 15.9623 43.924 16.1267C43.9349 16.2911 43.9134 16.4561 43.8605 16.6123C43.8077 16.7684 43.7247 16.9126 43.6162 17.0366C43.5076 17.1606 43.3757 17.262 43.228 17.3351L25.558 26.1201C25.3847 26.206 25.1939 26.2505 25.0005 26.2501Z" fill="#004039"/>
<path d="M33.8354 21.8575C33.6429 21.8575 33.453 21.813 33.2804 21.7275L15.6079 12.9425C15.3096 12.795 15.082 12.535 14.9754 12.2197C14.8687 11.9044 14.8917 11.5596 15.0392 11.2613C15.1867 10.9629 15.4467 10.7353 15.762 10.6287C16.0773 10.522 16.4221 10.545 16.7204 10.6925L34.3929 19.5C34.6458 19.6253 34.8488 19.8325 34.9689 20.0878C35.0891 20.3431 35.1193 20.6316 35.0547 20.9062C34.99 21.1809 34.8344 21.4256 34.613 21.6006C34.3917 21.7756 34.1176 21.8706 33.8354 21.87V21.8575Z" fill="#004039"/>
<path d="M25 43.9225C24.6685 43.9225 24.3505 43.7908 24.1161 43.5564C23.8817 43.322 23.75 43.004 23.75 42.6725V25C23.75 24.6685 23.8817 24.3505 24.1161 24.1161C24.3505 23.8817 24.6685 23.75 25 23.75C25.3315 23.75 25.6495 23.8817 25.8839 24.1161C26.1183 24.3505 26.25 24.6685 26.25 25V42.6725C26.25 43.004 26.1183 43.322 25.8839 43.5564C25.6495 43.7908 25.3315 43.9225 25 43.9225Z" fill="#004039"/>
</svg>
