<svg width="60" height="60" viewBox="0 0 60 60" fill="none" xmlns="http://www.w3.org/2000/svg">
<g clip-path="url(#clip0_637_321)">
<path d="M59.9202 58.7251L51.4357 39.3315C51.3629 39.172 51.2457 39.0369 51.0981 38.9423C50.9505 38.8477 50.7788 38.7976 50.6035 38.798H40.2492C44.4821 32.8714 48.5177 25.4218 48.5177 18.5269C48.5177 13.6175 46.5675 8.90924 43.096 5.43779C39.6246 1.96635 34.9163 0.0161133 30.0069 0.0161133C25.0976 0.0161133 20.3893 1.96635 16.9178 5.43779C13.4464 8.90924 11.4961 13.6175 11.4961 18.5269C11.4961 25.4271 15.5237 32.8767 19.7647 38.798H9.39435C9.21904 38.7976 9.04732 38.8477 8.89973 38.9423C8.75215 39.0369 8.63495 39.172 8.56216 39.3315L0.0776102 58.7251C0.0188897 58.8635 -0.00484747 59.0141 0.00849665 59.1638C0.0218408 59.3135 0.0718553 59.4576 0.154119 59.5834C0.236384 59.7092 0.348364 59.8127 0.480163 59.8849C0.611962 59.9572 0.75952 59.9958 0.909795 59.9974H59.0881C59.2383 59.9958 59.3859 59.9572 59.5177 59.8849C59.6495 59.8127 59.7615 59.7092 59.8437 59.5834C59.926 59.4576 59.976 59.3135 59.9893 59.1638C60.0027 59.0141 59.979 58.8635 59.9202 58.7251ZM50.006 40.6065L53.4521 48.4829H32.1807C34.5718 45.9867 36.8194 43.357 38.9129 40.6065H50.006ZM13.3072 18.5109C14.0914 -3.58469 45.9118 -3.57668 46.6906 18.5109C46.6906 30.4949 33.1116 44.9514 29.9989 48.1175C26.8862 44.9541 13.3072 30.5002 13.3072 18.5109ZM9.99181 40.6065H16.7747L14.4355 48.7763H6.40168L9.99181 40.6065ZM2.3021 58.181L5.62017 50.5953H15.121C15.3198 50.5968 15.5137 50.5332 15.6731 50.4142C15.8324 50.2953 15.9486 50.1276 16.0038 49.9365L18.6711 40.6011H21.0903C23.3688 43.5967 25.8319 46.4473 28.4653 49.1363L10.4026 58.181H2.3021ZM14.4568 58.181L30.215 50.2993H43.786L45.7971 58.181H14.4568ZM47.6722 58.181L45.6611 50.2993H54.2496L57.6984 58.181H47.6722ZM41.2708 25.7312C41.4342 25.661 41.5735 25.5445 41.6716 25.3962C41.7696 25.2479 41.8222 25.0741 41.8229 24.8963V12.4535C41.8222 12.2757 41.7696 12.102 41.6716 11.9536C41.5735 11.8053 41.4342 11.6889 41.2708 11.6187L30.3563 6.93498C30.243 6.88618 30.121 6.86101 29.9976 6.86101C29.8742 6.86101 29.7522 6.88618 29.6388 6.93498L18.7324 11.6187C18.5693 11.689 18.4304 11.8055 18.3327 11.9539C18.2351 12.1022 18.183 12.2759 18.183 12.4535V24.8963C18.183 25.0739 18.2351 25.2476 18.3327 25.396C18.4304 25.5443 18.5693 25.6608 18.7324 25.7312L29.6388 30.4202C29.7525 30.4677 29.8744 30.4921 29.9976 30.4921C30.1208 30.4921 30.2427 30.4677 30.3563 30.4202L41.2708 25.7312ZM40.0091 24.2988L30.9191 28.2037V17.74L40.0091 13.8352V24.2988ZM29.1001 28.2037L20.0047 24.2988V13.8352L29.0947 17.74L29.1001 28.2037ZM30.0096 16.1504L21.3943 12.4535L29.9963 8.75672L38.6035 12.4535L30.0096 16.1504Z" fill="black"/>
</g>
<defs>
<clipPath id="clip0_637_321">
<rect width="60" height="60" fill="white"/>
</clipPath>
</defs>
</svg>
