<svg width="118" height="118" viewBox="0 0 118 118" fill="none" xmlns="http://www.w3.org/2000/svg">
<circle cx="59" cy="59" r="58.2133" stroke="#262626" stroke-width="1.57333"/>
<g clip-path="url(#clip0_698_9)">
<path d="M41.2918 44.4167C44.1626 44.4167 46.5001 42.0812 46.5001 39.2083C46.5001 36.3354 44.1626 34 41.2918 34C38.421 34 36.0835 36.3354 36.0835 39.2083C36.0835 42.0812 38.421 44.4167 41.2918 44.4167ZM41.2918 36.0833C43.0147 36.0833 44.4168 37.4854 44.4168 39.2083C44.4168 40.9312 43.0147 42.3333 41.2918 42.3333C39.5689 42.3333 38.1668 40.9312 38.1668 39.2083C38.1668 37.4854 39.5689 36.0833 41.2918 36.0833ZM83.896 71.3187L83.4251 69.2875L64.5335 73.6667L57.946 45.2542L55.9147 45.7271L58.5085 56.9167H50.2668L47.073 50.5312C45.8293 48.0458 43.3314 46.5 40.5522 46.5H38.1647C35.8668 46.5 33.998 48.3687 33.998 50.6667V63.5021C33.998 64.9604 34.7397 66.2875 35.996 67.0583L44.4147 72.0896V84H46.498V70.9104L37.0772 65.2792C36.4543 64.8958 36.0814 64.2312 36.0814 63.5021V50.6667C36.0814 49.5167 37.0168 48.5833 38.1647 48.5833H40.5522C41.171 48.5833 41.773 48.6917 42.3314 48.8917V64.2187L44.4147 65.4646V50.2958C44.7251 50.6417 44.9939 51.0333 45.2105 51.4625L48.9793 59H58.9918L62.3731 73.5875C62.3085 73.5854 62.2418 73.5833 62.1751 73.5833C59.3043 73.5833 56.9668 75.9187 56.9668 78.7917C56.9668 81.6646 59.3043 84 62.1751 84C65.046 84 67.3835 81.6646 67.3835 78.7917C67.3835 77.5125 66.9189 76.3396 66.1501 75.4312L83.8918 71.3187H83.896ZM62.1793 81.9167C60.4564 81.9167 59.0543 80.5146 59.0543 78.7917C59.0543 77.0687 60.4564 75.6667 62.1793 75.6667C63.9022 75.6667 65.3043 77.0687 65.3043 78.7917C65.3043 80.5146 63.9022 81.9167 62.1793 81.9167ZM36.0835 71.5L38.1668 72.7458V84H36.0835V71.5ZM66.4043 64.4958C66.6856 65.6917 67.4147 66.7083 68.4605 67.3542C69.196 67.8083 70.021 68.0396 70.8626 68.0396C71.2189 68.0396 71.5793 67.9979 71.9355 67.9125L78.4105 66.375C80.8647 65.7937 82.3939 63.3187 81.8189 60.8625L80.2605 54.2125C79.9793 53.0146 79.248 52 78.2022 51.3542C77.1564 50.7062 75.921 50.5083 74.7293 50.7937L68.2564 52.3312C65.8001 52.9125 64.271 55.3875 64.8481 57.8437L66.4064 64.4937L66.4043 64.4958ZM68.7355 54.3583L75.2085 52.8208C75.4043 52.775 75.6001 52.7521 75.7939 52.7521C76.2522 52.7521 76.7043 52.8812 77.1043 53.1271C77.6751 53.4812 78.0751 54.0354 78.2293 54.6896L79.7876 61.3396C80.1022 62.6812 79.2668 64.0312 77.9251 64.35L71.4501 65.8875C70.7939 66.0437 70.1251 65.9333 69.5522 65.5833C68.9814 65.2292 68.5835 64.675 68.4293 64.0208L66.871 57.3708C66.5564 56.0271 67.3918 54.6792 68.7335 54.3604L68.7355 54.3583Z" fill="#2F2F2F"/>
</g>
<defs>
<clipPath id="clip0_698_9">
<rect width="50" height="50" fill="white" transform="translate(34 34)"/>
</clipPath>
</defs>
</svg>
