<svg width="64" height="64" viewBox="0 0 64 64" fill="none" xmlns="http://www.w3.org/2000/svg">
<path d="M37.7095 34.5402C39.9623 33.4639 41.8704 31.7809 43.2195 29.6802H46.6995C47.4676 29.635 48.1868 29.288 48.7 28.7147C49.2133 28.1415 49.4791 27.3886 49.4395 26.6202V19.4302C49.4408 19.0511 49.373 18.675 49.2395 18.3202V18.3002C48.2191 14.7804 46.4447 11.5251 44.0395 8.76017L43.9095 8.61017C42.3339 6.86413 40.3764 5.50551 38.1895 4.64017C35.916 3.76242 33.4814 3.37976 31.0482 3.51771C28.615 3.65567 26.2393 4.31107 24.0795 5.44017C22.5841 6.27006 21.236 7.34113 20.0895 8.61017L19.9595 8.76017C17.5543 11.5251 15.7799 14.7804 14.7595 18.3002V18.3202C14.6261 18.675 14.5583 19.0511 14.5595 19.4302V26.6202C14.5199 27.3886 14.7858 28.1415 15.299 28.7147C15.8123 29.288 16.5314 29.635 17.2995 29.6802H20.7795C22.1287 31.7809 24.0368 33.4639 26.2895 34.5402C21.9895 35.6855 18.1873 38.217 15.4718 41.7424C12.7564 45.2678 11.2793 49.5902 11.2695 54.0402V59.5002C11.2695 59.7654 11.3749 60.0197 11.5624 60.2073C11.75 60.3948 12.0043 60.5002 12.2695 60.5002H51.7295C51.9947 60.5002 52.2491 60.3948 52.4366 60.2073C52.6242 60.0197 52.7295 59.7654 52.7295 59.5002V54.0402C52.7197 49.5902 51.2427 45.2678 48.5272 41.7424C45.8118 38.217 42.0095 35.6855 37.7095 34.5402ZM47.4395 19.4302V26.6202C47.4395 27.1802 47.0895 27.6802 46.6995 27.6802H44.2895C44.4595 27.2602 44.6195 26.8302 44.7495 26.3902C44.7495 26.3802 44.7495 26.3802 44.7595 26.3702C45.5523 23.757 45.5174 20.9627 44.6595 18.3702H46.6995C47.0895 18.3702 47.4395 18.8702 47.4395 19.4302ZM17.2995 27.6802C16.9095 27.6802 16.5595 27.1802 16.5595 26.6202V19.4302C16.5595 18.8702 16.9095 18.3702 17.2995 18.3702H19.3395C18.3327 21.4161 18.4641 24.7237 19.7095 27.6802H17.2995ZM17.5595 16.3702C18.5045 14.0784 19.8186 11.957 21.4495 10.0902L21.5695 9.96017C22.5643 8.84913 23.7411 7.91577 25.0495 7.20017C26.9533 6.21973 29.0421 5.65073 31.1801 5.53014C33.3181 5.40954 35.4576 5.74004 37.4595 6.50017C39.3627 7.25143 41.0644 8.43613 42.4295 9.96017L42.5495 10.0902C44.1805 11.957 45.4946 14.0784 46.4395 16.3702H43.8195C42.6975 14.2036 41.0015 12.387 38.917 11.1191C36.8324 9.85109 34.4394 9.18047 31.9995 9.18047C29.5596 9.18047 27.1667 9.85109 25.0821 11.1191C22.9975 12.387 21.3016 14.2036 20.1795 16.3702H17.5595ZM20.6695 22.5102C20.6677 20.9155 21.0025 19.3383 21.652 17.8819C22.3016 16.4255 23.2513 15.1226 24.439 14.0585C25.6267 12.9943 27.0257 12.1929 28.5444 11.7066C30.0632 11.2203 31.6674 11.0601 33.2524 11.2364C34.8373 11.4127 36.3671 11.9217 37.7418 12.7299C39.1166 13.5381 40.3052 14.6275 41.2299 15.9266C42.1547 17.2258 42.7948 18.7056 43.1083 20.2692C43.4219 21.8327 43.4019 23.4449 43.0495 25.0002H39.7095C39.5044 24.4159 39.1229 23.9097 38.6178 23.5515C38.1126 23.1932 37.5088 23.0006 36.8895 23.0002H33.8895C33.0939 23.0002 32.3308 23.3162 31.7682 23.8788C31.2056 24.4415 30.8895 25.2045 30.8895 26.0002C30.8895 26.7958 31.2056 27.5589 31.7682 28.1215C32.3308 28.6841 33.0939 29.0002 33.8895 29.0002H36.8895C37.5088 28.9997 38.1126 28.8071 38.6178 28.4489C39.1229 28.0906 39.5044 27.5844 39.7095 27.0002H42.3995C41.3664 29.3932 39.5396 31.3567 37.2273 32.5597C34.9151 33.7627 32.2587 34.1316 29.7061 33.6042C27.1535 33.0768 24.8608 31.6853 23.2147 29.6643C21.5686 27.6434 20.6697 25.1167 20.6695 22.5102ZM37.8895 25.9902V26.0102C37.889 26.1409 37.8627 26.2702 37.8121 26.3907C37.7616 26.5112 37.6877 26.6206 37.5949 26.7126C37.502 26.8045 37.3919 26.8773 37.2708 26.9266C37.1498 26.976 37.0202 27.001 36.8895 27.0002H33.8895C33.6243 27.0002 33.37 26.8948 33.1824 26.7073C32.9949 26.5197 32.8895 26.2654 32.8895 26.0002C32.8895 25.7349 32.9949 25.4806 33.1824 25.2931C33.37 25.1055 33.6243 25.0002 33.8895 25.0002H36.8895C37.0202 24.9994 37.1498 25.0244 37.2708 25.0737C37.3919 25.1231 37.502 25.1958 37.5949 25.2878C37.6877 25.3797 37.7616 25.4891 37.8121 25.6096C37.8627 25.7301 37.889 25.8595 37.8895 25.9902ZM50.7295 58.5002H13.2695V54.0402C13.2769 49.2155 15.1968 44.5906 18.6084 41.179C22.0199 37.7674 26.6449 35.8476 31.4695 35.8402H32.5295C37.3542 35.8476 41.9791 37.7674 45.3907 41.179C48.8023 44.5906 50.7221 49.2155 50.7295 54.0402V58.5002Z" fill="black"/>
</svg>
