<svg width="118" height="118" viewBox="0 0 118 118" fill="none" xmlns="http://www.w3.org/2000/svg">
<circle cx="59" cy="59" r="58.5" stroke="#262626"/>
<g clip-path="url(#clip0_698_5)">
<path d="M74.625 48.5833H69.4167V47.5417C69.4167 43.2625 66.525 39.5271 62.3854 38.4625C61.8354 38.3208 61.2604 38.6542 61.1167 39.2104C60.9729 39.7687 61.3083 40.3354 61.8667 40.4792C65.0854 41.3062 67.3354 44.2125 67.3354 47.5417V73.5833H41.2917C38.4208 73.5833 36.0833 71.2479 36.0833 68.375V60.0417C36.0833 59.4667 35.6167 59 35.0417 59C34.4667 59 34 59.4667 34 60.0417V68.375C34 71.4979 35.9833 74.1479 38.75 75.1833C38.3771 75.9896 38.1667 76.8542 38.1667 77.75C38.1667 81.1958 40.9708 84 44.4167 84C47.8625 84 50.6667 81.1958 50.6667 77.75C50.6667 77.0333 50.5333 76.3333 50.2917 75.6667H67.7063C67.4646 76.3333 67.3312 77.0333 67.3312 77.75C67.3312 81.1958 70.1354 84 73.5812 84C77.0271 84 79.8312 81.1958 79.8312 77.75C79.8312 76.8562 79.6208 75.9917 79.2479 75.1833C82.0146 74.1458 83.9979 71.4979 83.9979 68.375V57.9583C83.9979 52.7896 79.7937 48.5833 74.625 48.5833ZM74.625 50.6667C78.6458 50.6667 81.9167 53.9375 81.9167 57.9583V61.0833H69.4167V50.6667H74.625ZM48.5833 77.75C48.5833 80.0479 46.7146 81.9167 44.4167 81.9167C42.1187 81.9167 40.25 80.0479 40.25 77.75C40.25 76.9979 40.5042 76.2813 40.9042 75.6271C41.0354 75.6333 41.1583 75.6667 41.2917 75.6667H47.95C48.3354 76.3104 48.5833 77.0125 48.5833 77.75ZM77.75 77.75C77.75 80.0479 75.8812 81.9167 73.5833 81.9167C71.2854 81.9167 69.4167 80.0479 69.4167 77.75C69.4167 77.0125 69.6646 76.3104 70.05 75.6667H76.7083C76.8417 75.6667 76.9646 75.6354 77.0958 75.6271C77.4958 76.2813 77.75 76.9958 77.75 77.75ZM76.7083 73.5833H69.4167V63.1667H81.9167V68.375C81.9167 71.2479 79.5792 73.5833 76.7083 73.5833ZM39.2083 54.8333H51.7083C54.5792 54.8333 56.9167 52.4979 56.9167 49.625V39.2083C56.9167 36.3354 54.5792 34 51.7083 34H39.2083C36.3375 34 34 36.3354 34 39.2083V49.625C34 52.4979 36.3375 54.8333 39.2083 54.8333ZM36.0833 39.2083C36.0833 37.4854 37.4854 36.0833 39.2083 36.0833H51.7083C53.4312 36.0833 54.8333 37.4854 54.8333 39.2083V49.625C54.8333 51.3479 53.4312 52.75 51.7083 52.75H39.2083C37.4854 52.75 36.0833 51.3479 36.0833 49.625V39.2083ZM42.3333 41.2917C42.3333 40.7167 42.8 40.25 43.375 40.25H47.5417C48.1167 40.25 48.5833 40.7167 48.5833 41.2917C48.5833 41.8667 48.1167 42.3333 47.5417 42.3333H43.375C42.8 42.3333 42.3333 41.8667 42.3333 41.2917Z" fill="#2F2F2F"/>
</g>
<defs>
<clipPath id="clip0_698_5">
<rect width="50" height="50" fill="white" transform="translate(34 34)"/>
</clipPath>
</defs>
</svg>
