<svg width="118" height="118" viewBox="0 0 118 118" fill="none" xmlns="http://www.w3.org/2000/svg">
<circle cx="59" cy="59" r="58.2133" stroke="#262626" stroke-width="1.57333"/>
<path d="M84 55.875C84 50.7063 79.7937 46.5 74.625 46.5H69.4167V41.2917C69.4167 38.4208 67.0812 36.0833 64.2083 36.0833H57.9375C58.4333 36.7417 58.8854 37.4333 59.2729 38.1667H64.2083C65.9312 38.1667 67.3333 39.5688 67.3333 41.2917V71.5H36.0833V57.9375C35.3333 57.3729 34.6375 56.7438 34 56.0563V73.5833H38.5333C38.2917 74.2479 38.1667 74.95 38.1667 75.6667C38.1667 79.1125 40.9708 81.9167 44.4167 81.9167C47.8625 81.9167 50.6667 79.1125 50.6667 75.6667C50.6667 74.95 50.5417 74.2479 50.3 73.5833H67.7C67.4583 74.2479 67.3333 74.95 67.3333 75.6667C67.3333 79.1125 70.1375 81.9167 73.5833 81.9167C77.0292 81.9167 79.8333 79.1125 79.8333 75.6667C79.8333 74.95 79.7083 74.2479 79.4667 73.5833H84V55.875ZM48.5833 75.6667C48.5833 77.9646 46.7146 79.8333 44.4167 79.8333C42.1187 79.8333 40.25 77.9646 40.25 75.6667C40.25 74.9333 40.4479 74.2229 40.8271 73.5833H48.0062C48.3854 74.2229 48.5833 74.9333 48.5833 75.6667ZM74.625 48.5833C78.6458 48.5833 81.9167 51.8542 81.9167 55.875V59H69.4167V48.5833H74.625ZM77.75 75.6667C77.75 77.9646 75.8812 79.8333 73.5833 79.8333C71.2854 79.8333 69.4167 77.9646 69.4167 75.6667C69.4167 74.9333 69.6146 74.2229 69.9937 73.5833H77.1729C77.5521 74.2229 77.75 74.9333 77.75 75.6667ZM69.4167 71.5V61.0833H81.9167V71.5H69.4167ZM45.4583 56.9167C51.775 56.9167 56.9167 51.7771 56.9167 45.4583C56.9167 39.1396 51.775 34 45.4583 34C39.1417 34 34 39.1396 34 45.4583C34 51.7771 39.1417 56.9167 45.4583 56.9167ZM45.4583 36.0833C50.6271 36.0833 54.8333 40.2896 54.8333 45.4583C54.8333 50.6271 50.6271 54.8333 45.4583 54.8333C40.2896 54.8333 36.0833 50.6271 36.0833 45.4583C36.0833 40.2896 40.2896 36.0833 45.4583 36.0833ZM47.8458 49.3208L44.4167 45.8917V40.2521H46.5V45.0292L49.3208 47.85L47.8479 49.3229L47.8458 49.3208Z" fill="black"/>
</svg>
