<svg width="30" height="30" viewBox="0 0 30 30" fill="none" xmlns="http://www.w3.org/2000/svg">
<g clip-path="url(#clip0_637_824)">
<path d="M15 30C23.2843 30 30 23.2843 30 15C30 6.71575 23.2843 0 15 0C6.71575 0 0 6.71575 0 15C0 23.2843 6.71575 30 15 30Z" fill="white"/>
<path d="M23.9864 15.072C23.9864 18.1489 21.4968 20.6432 18.4258 20.6432C15.3548 20.6432 12.8652 18.1489 12.8652 15.072C12.8652 11.9952 15.3548 9.50098 18.4258 9.50098C21.4968 9.50098 23.9864 11.9952 23.9864 15.072Z" fill="#F79F1A"/>
<path d="M17.127 15.072C17.127 18.1489 14.6375 20.6432 11.5664 20.6432C8.4954 20.6432 6.00586 18.1489 6.00586 15.072C6.00586 11.9952 8.4954 9.50098 11.5664 9.50098C14.6375 9.50098 17.127 11.9952 17.127 15.072Z" fill="#EA001B"/>
<path d="M14.9965 10.6865C13.699 11.7064 12.8662 13.2913 12.8662 15.0716C12.8662 16.852 13.699 18.438 14.9965 19.4579C16.2938 18.438 17.1267 16.852 17.1267 15.0716C17.1267 13.2913 16.2938 11.7064 14.9965 10.6865Z" fill="#FF5F01"/>
</g>
<defs>
<clipPath id="clip0_637_824">
<rect width="30" height="30" fill="white"/>
</clipPath>
</defs>
</svg>
