<svg width="50" height="19" viewBox="0 0 50 19" fill="none" xmlns="http://www.w3.org/2000/svg">
<path d="M17.6621 17.927L20.1909 0.358887H24.2356L21.705 17.927H17.6621Z" fill="#0E4595"/>
<path d="M36.3175 0.737856C35.5163 0.38194 34.2606 0 32.6925 0C28.6957 0 25.8806 2.38273 25.8565 5.79767C25.834 8.32201 27.8664 9.73023 29.4006 10.5706C30.9751 11.4318 31.5043 11.981 31.4967 12.7498C31.4867 13.9274 30.2395 14.4653 29.0768 14.4653C27.458 14.4653 26.598 14.199 25.2696 13.5433L24.7483 13.264L24.1807 17.1967C25.1254 17.6873 26.8723 18.112 28.6863 18.1341C32.9381 18.1341 35.6982 15.7786 35.7296 12.1318C35.7447 10.1333 34.6671 8.6125 32.3335 7.35863C30.9198 6.54593 30.054 6.00362 30.0632 5.18069C30.0632 4.45047 30.796 3.66962 32.3796 3.66962C33.7022 3.6453 34.6604 3.98677 35.4069 4.34269L35.7693 4.54541L36.3175 0.737856Z" fill="#0E4595"/>
<path d="M46.7269 0.358887H43.6015C42.6333 0.358887 41.9087 0.671725 41.4835 1.81575L35.4766 17.9156H39.7239C39.7239 17.9156 40.4183 15.7509 40.5753 15.2756C41.0395 15.2756 45.1656 15.2831 45.7554 15.2831C45.8764 15.8982 46.2475 17.9156 46.2475 17.9156H50.0007L46.7269 0.358887ZM41.7681 11.7029C42.1027 10.6907 43.3797 6.79192 43.3797 6.79192C43.3559 6.83868 43.7118 5.77479 43.9159 5.11519L44.1893 6.62985C44.1893 6.62985 44.9638 10.8234 45.1256 11.7027H41.7681V11.7029Z" fill="#0E4595"/>
<path d="M0.0516706 0.358887L0 0.724338C1.59892 1.18256 3.02698 1.84577 4.27726 2.67078L7.86623 17.8988L12.1457 17.8932L18.5135 0.358887H14.2287L10.2688 12.339L9.84703 9.90427C9.82727 9.82905 9.80579 9.75369 9.78381 9.67817L8.40721 1.84208C8.16244 0.72964 7.45235 0.397655 6.57387 0.358887H0.0516706Z" fill="#0E4595"/>
</svg>
