<svg width="50" height="21" viewBox="0 0 50 21" fill="none" xmlns="http://www.w3.org/2000/svg">
<path d="M48.6667 0H1.33333C0.596954 0 0 0.607979 0 1.35796V18.7025C0 19.4525 0.596954 20.0604 1.33333 20.0604H48.6667C49.403 20.0604 50 19.4525 50 18.7025V1.35796C50 0.607979 49.403 0 48.6667 0Z" fill="#00425F"/>
<path d="M11.5661 16.9745C15.5241 16.9745 18.7327 13.7066 18.7327 9.67549C18.7327 5.64435 15.5241 2.37646 11.5661 2.37646C7.60804 2.37646 4.39941 5.64435 4.39941 9.67549C4.39941 13.7066 7.60804 16.9745 11.5661 16.9745Z" fill="#EE312A"/>
<path d="M11.5663 12.7897C9.96422 9.09089 8.78933 5.63574 8.78933 5.63574H6.33301C6.33301 5.63574 7.82806 10.0706 10.6051 15.6167H12.5276C15.3046 10.0706 16.7997 5.63574 16.7997 5.63574H14.3433C14.3433 5.63574 13.1685 9.09089 11.5663 12.7897Z" fill="white"/>
<path d="M45.8076 12.3261H41.021C41.021 12.3261 41.1273 13.9642 43.2547 13.9642C44.3184 13.9642 45.3821 13.6364 45.3821 13.6364L45.5949 15.3833C45.5949 15.3833 44.5311 15.8201 43.042 15.8201C40.9146 15.8201 39 14.7282 39 11.671C39 9.26884 40.4891 7.74023 42.6165 7.74023C45.8076 7.74023 46.0203 11.0159 45.8076 12.3261ZM42.5102 9.26884C41.1273 9.26884 41.021 10.7974 41.021 10.7974H43.9993C43.9993 10.7974 43.8929 9.26884 42.5102 9.26884Z" fill="white"/>
<path d="M29.2804 9.75157L29.5995 8.0138C29.5995 8.0138 27.1356 7.25022 25.1328 8.66546V15.6164H27.2599L27.2597 9.96878C28.1105 9.31712 29.2804 9.75157 29.2804 9.75157Z" fill="white"/>
<path d="M23.4736 12.3261H18.6871C18.6871 12.3261 18.7934 13.9642 20.9208 13.9642C21.9844 13.9642 23.0481 13.6364 23.0481 13.6364L23.2608 15.3833C23.2608 15.3833 22.1972 15.8201 20.708 15.8201C18.5806 15.8201 16.666 14.7282 16.666 11.671C16.666 9.26884 18.1552 7.74023 20.2826 7.74023C23.4736 7.74023 23.6863 11.0159 23.4736 12.3261ZM20.1762 9.26884C18.7934 9.26884 18.6871 10.7974 18.6871 10.7974H21.6653C21.6653 10.7974 21.559 9.26884 20.1762 9.26884Z" fill="white"/>
<path d="M34.4658 13.0094C33.8026 11.3663 33.2676 9.67258 32.8657 7.94385L30.7324 7.94413C30.7324 7.94413 31.7991 12.1398 33.6126 15.6163H35.3189C37.1324 12.1398 38.1991 7.94491 38.1991 7.94491H36.0658C35.6638 9.67327 35.1288 11.3667 34.4658 13.0094Z" fill="white"/>
</svg>
