<svg width="70" height="70" viewBox="0 0 70 70" fill="none" xmlns="http://www.w3.org/2000/svg">
<path fill-rule="evenodd" clip-rule="evenodd" d="M17.5 61.2502H52.5C54.8206 61.2502 57.0462 60.3283 58.6872 58.6874C60.3281 57.0464 61.25 54.8208 61.25 52.5002C61.25 50.1796 60.3281 47.954 58.6872 46.313C57.0462 44.6721 54.8206 43.7502 52.5 43.7502C51.6833 43.7502 51.275 43.7502 50.9921 43.6919C50.1229 43.5169 49.7088 43.2514 49.1954 42.5281C49.0263 42.2948 48.7871 41.7639 48.3117 40.7023C47.1612 38.134 45.2923 35.9533 42.9303 34.4233C40.5684 32.8932 37.8142 32.0791 35 32.0791C32.1858 32.0791 29.4316 32.8932 27.0697 34.4233C24.7077 35.9533 22.8388 38.134 21.6883 40.7023C21.2129 41.7639 20.9738 42.2919 20.8046 42.5281C20.2913 43.2514 19.8771 43.5198 19.0079 43.6948C18.7221 43.7502 18.3167 43.7502 17.5 43.7502C15.1794 43.7502 12.9538 44.6721 11.3128 46.313C9.67187 47.954 8.75 50.1796 8.75 52.5002C8.75 54.8208 9.67187 57.0464 11.3128 58.6874C12.9538 60.3283 15.1794 61.2502 17.5 61.2502Z" fill="black" fill-opacity="0.25"/>
<path d="M27.7085 21.8752L35.0002 14.5835M35.0002 14.5835L42.2918 21.8752M35.0002 14.5835V43.7502" stroke="black" stroke-linecap="round"/>
</svg>
