<svg width="130" height="130" viewBox="0 0 130 130" fill="none" xmlns="http://www.w3.org/2000/svg">
<circle cx="65" cy="65" r="65" fill="#DCFFFC"/>
<path d="M32.2609 83.5194C30.0518 82.4053 29.3991 80.8255 29.3991 76.5937V73.2356L31.9538 75.7753C33.3588 77.1723 34.5107 78.4619 34.5136 78.6416C34.5195 79.0059 37.7283 80.6233 39.0159 80.9074C40.0617 81.1381 42.3742 80.531 43.4959 79.7338C44.1724 79.2542 44.9082 79.1267 47.0913 79.1267H49.8361V75.9149V72.7037L52.3109 69.8951L54.7856 67.087L54.8723 73.4827C54.9549 79.582 54.9251 79.9451 54.2336 81.3385C53.6951 82.4229 53.1415 82.9839 52.0836 83.5175C50.7126 84.2085 50.338 84.2358 42.1722 84.2358C34.0065 84.2358 33.6319 84.2376 32.2609 83.5194ZM60.0545 71.4645V63.8006H80.4915H100.928V71.4645V79.1285H80.4915H60.0545V71.4645ZM37.8613 77.5681C37.3344 77.2403 34.9275 74.9641 32.5126 72.5143C27.2529 67.1787 27.1583 66.9085 29.6728 64.3938C32.0656 62.001 32.5836 62.1194 36.4934 65.9559L39.6662 69.0694L40.4913 68.1113C48.8581 58.397 53.8135 52.9764 54.4798 52.8089C54.9307 52.6935 55.6565 52.8113 56.1695 53.076C57.5297 53.7791 59.4159 56.02 59.4159 56.9326C59.4159 57.9331 42.2835 77.6616 41.1511 77.9646C39.8674 78.3107 38.8475 78.1814 37.8613 77.5681ZM36.7453 62.3653C35.2148 60.8061 33.081 59.8007 31.8145 60.043C30.629 60.2676 31.1269 59.7758 32.6755 59.1851C33.7691 58.7722 35.0816 58.6872 39.502 58.7601L44.9745 58.8511L42.8549 61.3155C40.8696 63.6233 40.6534 63.7799 39.4446 63.7903C38.3305 63.7903 37.9612 63.602 36.7453 62.3653Z" fill="#004039"/>
</svg>
