<svg width="130" height="130" viewBox="0 0 130 130" fill="none" xmlns="http://www.w3.org/2000/svg">
<circle cx="65" cy="65" r="65" fill="#DCFFFC"/>
<g clip-path="url(#clip0_712_115)">
<path d="M87.4319 58.1994L62.0212 83.328C57.8108 87.492 50.9838 87.492 46.7734 83.328C42.563 79.164 42.563 72.4138 46.7734 68.2497L69.6442 45.6342C72.4518 42.8588 77.0013 42.8588 79.8089 45.6342C82.6164 48.4096 82.6164 52.911 79.8089 55.6864L56.938 78.302C55.5351 79.6906 53.2594 79.6906 51.8548 78.302C50.4519 76.9152 50.4519 74.6646 51.8548 73.2759L72.1841 53.1733L69.6424 50.6603L49.315 70.7646C46.5075 73.5401 46.5075 78.0414 49.315 80.8168C52.1225 83.5922 56.6721 83.5922 59.4796 80.8168L82.3506 58.2012C86.5609 54.0372 86.5609 47.287 82.3506 43.123C78.1401 38.959 71.3131 38.959 67.1028 43.123L42.961 66.995L43.0485 67.0824C38.6631 72.6582 39.0486 80.7186 44.2318 85.8428C49.415 90.967 57.5627 91.3507 63.2027 87.0118L63.2902 87.0993L89.9717 60.7142L87.4319 58.1994Z" fill="#004039"/>
</g>
<defs>
<clipPath id="clip0_712_115">
<rect width="50" height="50" fill="white" transform="translate(40 40)"/>
</clipPath>
</defs>
</svg>
