<svg width="130" height="130" viewBox="0 0 130 130" fill="none" xmlns="http://www.w3.org/2000/svg">
<circle cx="65" cy="65" r="65" fill="#DCFFFC"/>
<path d="M74.9351 31H29.0649C27.4746 31 26.1812 32.2939 26.1812 33.8843V42.0806V92C26.1812 92.5522 26.629 93 27.1812 93H76.8189C77.3711 93 77.8189 92.5522 77.8189 92V42.0806V33.8843C77.8188 32.2939 76.5254 31 74.9351 31ZM28.1812 33.8843C28.1812 33.3965 28.5776 33 29.0649 33H74.935C75.4223 33 75.8188 33.3965 75.8188 33.8843V41.0806H28.1812V33.8843ZM75.8188 91H28.1812V43.0806H75.8189L75.8188 91Z" fill="black"/>
<path d="M34.9141 63.2871H68.4258C69.6006 63.2871 70.5562 62.331 70.5562 61.1562V56.8247C70.5562 55.6479 69.6006 54.6909 68.4258 54.6909H34.9141C33.7393 54.6909 32.7837 55.6479 32.7837 56.8247V61.1562C32.7837 62.3311 33.7393 63.2871 34.9141 63.2871ZM34.7837 56.8247C34.7837 56.7534 34.8447 56.6909 34.9141 56.6909H68.4258C68.4951 56.6909 68.5562 56.7534 68.5562 56.8247V61.1562C68.5562 61.226 68.4952 61.2871 68.4258 61.2871H34.9141C34.8448 61.2871 34.7837 61.2261 34.7837 61.1562V56.8247Z" fill="black"/>
<path d="M34.9141 74.9718H68.4258C69.6006 74.9718 70.5562 74.0162 70.5562 72.8414V68.5064C70.5562 67.3316 69.6006 66.3755 68.4258 66.3755H34.9141C33.7393 66.3755 32.7837 67.3316 32.7837 68.5064V72.8414C32.7837 74.0162 33.7393 74.9718 34.9141 74.9718ZM34.7837 68.5064C34.7837 68.438 34.8457 68.3755 34.9141 68.3755H68.4258C68.4942 68.3755 68.5562 68.438 68.5562 68.5064V72.8414C68.5562 72.9107 68.4952 72.9718 68.4258 72.9718H34.9141C34.8448 72.9718 34.7837 72.9108 34.7837 72.8414V68.5064Z" fill="black"/>
<path d="M42.7197 51.0386H60.6196C61.1718 51.0386 61.6196 50.5908 61.6196 50.0386C61.6196 49.4864 61.1718 49.0386 60.6196 49.0386H42.7197C42.1675 49.0386 41.7197 49.4864 41.7197 50.0386C41.7197 50.5908 42.1675 51.0386 42.7197 51.0386Z" fill="black"/>
<path d="M61.9786 36.0405H61.9473C61.3951 36.0405 60.9629 36.4883 60.9629 37.0405C60.9629 37.5927 61.4263 38.0405 61.9785 38.0405C62.5307 38.0405 62.9785 37.5927 62.9785 37.0405C62.9785 36.4883 62.5309 36.0405 61.9786 36.0405Z" fill="black"/>
<path d="M66.4034 36.0405H66.3721C65.8199 36.0405 65.3877 36.4883 65.3877 37.0405C65.3877 37.5927 65.8511 38.0405 66.4033 38.0405C66.9555 38.0405 67.4033 37.5927 67.4033 37.0405C67.4033 36.4883 66.9557 36.0405 66.4034 36.0405Z" fill="black"/>
<path d="M70.8282 36.0405H70.7969C70.2447 36.0405 69.8125 36.4883 69.8125 37.0405C69.8125 37.5927 70.2759 38.0405 70.8281 38.0405C71.3803 38.0405 71.8281 37.5927 71.8281 37.0405C71.8281 36.4883 71.3805 36.0405 70.8282 36.0405Z" fill="black"/>
<path d="M68.7368 78.292H59.9282C58.9253 78.292 58.1094 79.1079 58.1094 80.1113V83.2431C58.1094 84.2465 58.9253 85.0624 59.9282 85.0624H68.7368C69.7402 85.0624 70.5561 84.2465 70.5561 83.2431V80.1113C70.5562 79.1079 69.7402 78.292 68.7368 78.292ZM68.5562 83.0625H60.1094V80.292H68.5562V83.0625Z" fill="black"/>
<path d="M99.9351 42H54.0649C52.4746 42 51.1812 43.2939 51.1812 44.8843V53.0806V103C51.1812 103.552 51.629 104 52.1812 104H101.819C102.371 104 102.819 103.552 102.819 103V53.0806V44.8843C102.819 43.2939 101.525 42 99.9351 42ZM53.1812 44.8843C53.1812 44.3965 53.5776 44 54.0649 44H99.935C100.422 44 100.819 44.3965 100.819 44.8843V52.0806H53.1812V44.8843ZM100.819 102H53.1812V54.0806H100.819L100.819 102Z" fill="#004039"/>
<path d="M59.9141 74.2871H93.4258C94.6006 74.2871 95.5562 73.331 95.5562 72.1562V67.8247C95.5562 66.6479 94.6006 65.6909 93.4258 65.6909H59.9141C58.7393 65.6909 57.7837 66.6479 57.7837 67.8247V72.1562C57.7837 73.3311 58.7393 74.2871 59.9141 74.2871ZM59.7837 67.8247C59.7837 67.7534 59.8447 67.6909 59.9141 67.6909H93.4258C93.4951 67.6909 93.5562 67.7534 93.5562 67.8247V72.1562C93.5562 72.226 93.4952 72.2871 93.4258 72.2871H59.9141C59.8448 72.2871 59.7837 72.2261 59.7837 72.1562V67.8247Z" fill="#004039"/>
<path d="M59.9141 85.9718H93.4258C94.6006 85.9718 95.5562 85.0162 95.5562 83.8414V79.5064C95.5562 78.3316 94.6006 77.3755 93.4258 77.3755H59.9141C58.7393 77.3755 57.7837 78.3316 57.7837 79.5064V83.8414C57.7837 85.0162 58.7393 85.9718 59.9141 85.9718ZM59.7837 79.5064C59.7837 79.438 59.8457 79.3755 59.9141 79.3755H93.4258C93.4942 79.3755 93.5562 79.438 93.5562 79.5064V83.8414C93.5562 83.9107 93.4952 83.9718 93.4258 83.9718H59.9141C59.8448 83.9718 59.7837 83.9108 59.7837 83.8414V79.5064Z" fill="#004039"/>
<path d="M67.7197 62.0386H85.6196C86.1718 62.0386 86.6196 61.5908 86.6196 61.0386C86.6196 60.4864 86.1718 60.0386 85.6196 60.0386H67.7197C67.1675 60.0386 66.7197 60.4864 66.7197 61.0386C66.7197 61.5908 67.1675 62.0386 67.7197 62.0386Z" fill="#004039"/>
<path d="M86.9786 47.0405H86.9473C86.3951 47.0405 85.9629 47.4883 85.9629 48.0405C85.9629 48.5927 86.4263 49.0405 86.9785 49.0405C87.5307 49.0405 87.9785 48.5927 87.9785 48.0405C87.9785 47.4883 87.5309 47.0405 86.9786 47.0405Z" fill="#004039"/>
<path d="M91.4034 47.0405H91.3721C90.8199 47.0405 90.3877 47.4883 90.3877 48.0405C90.3877 48.5927 90.8511 49.0405 91.4033 49.0405C91.9555 49.0405 92.4033 48.5927 92.4033 48.0405C92.4033 47.4883 91.9557 47.0405 91.4034 47.0405Z" fill="#004039"/>
<path d="M95.8282 47.0405H95.7969C95.2447 47.0405 94.8125 47.4883 94.8125 48.0405C94.8125 48.5927 95.2759 49.0405 95.8281 49.0405C96.3803 49.0405 96.8281 48.5927 96.8281 48.0405C96.8281 47.4883 96.3805 47.0405 95.8282 47.0405Z" fill="#004039"/>
<path d="M93.7368 89.292H84.9282C83.9253 89.292 83.1094 90.1079 83.1094 91.1113V94.2431C83.1094 95.2465 83.9253 96.0624 84.9282 96.0624H93.7368C94.7402 96.0624 95.5561 95.2465 95.5561 94.2431V91.1113C95.5562 90.1079 94.7402 89.292 93.7368 89.292ZM93.5562 94.0625H85.1094V91.292H93.5562V94.0625Z" fill="#004039"/>
</svg>
