<svg width="500" height="70" viewBox="0 0 500 70" fill="none" xmlns="http://www.w3.org/2000/svg">
<rect width="500" height="70" rx="10" fill="#2A9D90"/>
<path d="M184.84 42.8C183.773 42.8 182.81 42.6133 181.95 42.24C181.097 41.86 180.393 41.32 179.84 40.62C179.293 39.9133 178.947 39.0733 178.8 38.1L181.64 37.68C181.84 38.5067 182.253 39.1433 182.88 39.59C183.507 40.0367 184.22 40.26 185.02 40.26C185.467 40.26 185.9 40.19 186.32 40.05C186.74 39.91 187.083 39.7033 187.35 39.43C187.623 39.1567 187.76 38.82 187.76 38.42C187.76 38.2733 187.737 38.1333 187.69 38C187.65 37.86 187.58 37.73 187.48 37.61C187.38 37.49 187.237 37.3767 187.05 37.27C186.87 37.1633 186.64 37.0667 186.36 36.98L182.62 35.88C182.34 35.8 182.013 35.6867 181.64 35.54C181.273 35.3933 180.917 35.1833 180.57 34.91C180.223 34.6367 179.933 34.2767 179.7 33.83C179.473 33.3767 179.36 32.8067 179.36 32.12C179.36 31.1533 179.603 30.35 180.09 29.71C180.577 29.07 181.227 28.5933 182.04 28.28C182.853 27.9667 183.753 27.8133 184.74 27.82C185.733 27.8333 186.62 28.0033 187.4 28.33C188.18 28.6567 188.833 29.1333 189.36 29.76C189.887 30.38 190.267 31.14 190.5 32.04L187.56 32.54C187.453 32.0733 187.257 31.68 186.97 31.36C186.683 31.04 186.34 30.7967 185.94 30.63C185.547 30.4633 185.133 30.3733 184.7 30.36C184.273 30.3467 183.87 30.4067 183.49 30.54C183.117 30.6667 182.81 30.8533 182.57 31.1C182.337 31.3467 182.22 31.64 182.22 31.98C182.22 32.2933 182.317 32.55 182.51 32.75C182.703 32.9433 182.947 33.1 183.24 33.22C183.533 33.34 183.833 33.44 184.14 33.52L186.64 34.2C187.013 34.3 187.427 34.4333 187.88 34.6C188.333 34.76 188.767 34.9867 189.18 35.28C189.6 35.5667 189.943 35.9467 190.21 36.42C190.483 36.8933 190.62 37.4933 190.62 38.22C190.62 38.9933 190.457 39.67 190.13 40.25C189.81 40.8233 189.377 41.3 188.83 41.68C188.283 42.0533 187.663 42.3333 186.97 42.52C186.283 42.7067 185.573 42.8 184.84 42.8ZM196.838 42.82C195.991 42.82 195.301 42.6767 194.768 42.39C194.235 42.1033 193.818 41.74 193.518 41.3C193.225 40.86 193.015 40.4033 192.888 39.93C192.761 39.45 192.685 39.0133 192.658 38.62C192.631 38.2267 192.618 37.94 192.618 37.76V31.7H195.378V36.8C195.378 37.0467 195.391 37.3633 195.418 37.75C195.445 38.13 195.528 38.5133 195.668 38.9C195.808 39.2867 196.035 39.61 196.348 39.87C196.668 40.13 197.118 40.26 197.698 40.26C197.931 40.26 198.181 40.2233 198.448 40.15C198.715 40.0767 198.965 39.9367 199.198 39.73C199.431 39.5167 199.621 39.2067 199.768 38.8C199.921 38.3867 199.998 37.8467 199.998 37.18L201.558 37.92C201.558 38.7733 201.385 39.5733 201.038 40.32C200.691 41.0667 200.168 41.67 199.468 42.13C198.775 42.59 197.898 42.82 196.838 42.82ZM200.338 42.5V38.92H199.998V31.7H202.738V42.5H200.338ZM210.833 42.8C209.759 42.8 208.863 42.55 208.143 42.05C207.423 41.55 206.879 40.87 206.513 40.01C206.153 39.15 205.973 38.18 205.973 37.1C205.973 36.02 206.153 35.05 206.513 34.19C206.873 33.33 207.403 32.65 208.103 32.15C208.803 31.65 209.666 31.4 210.693 31.4C211.726 31.4 212.626 31.6467 213.393 32.14C214.159 32.6333 214.753 33.31 215.173 34.17C215.599 35.0233 215.813 36 215.813 37.1C215.813 38.18 215.603 39.15 215.183 40.01C214.769 40.87 214.189 41.55 213.443 42.05C212.696 42.55 211.826 42.8 210.833 42.8ZM205.513 42.5V28.1H208.253V35.1H207.913V42.5H205.513ZM210.393 40.38C210.979 40.38 211.459 40.2333 211.833 39.94C212.206 39.6467 212.483 39.2533 212.663 38.76C212.843 38.26 212.933 37.7067 212.933 37.1C212.933 36.5 212.839 35.9533 212.653 35.46C212.466 34.96 212.176 34.5633 211.783 34.27C211.396 33.97 210.899 33.82 210.293 33.82C209.726 33.82 209.266 33.9567 208.913 34.23C208.566 34.5033 208.313 34.8867 208.153 35.38C207.993 35.8733 207.913 36.4467 207.913 37.1C207.913 37.7533 207.993 38.3267 208.153 38.82C208.313 39.3133 208.573 39.6967 208.933 39.97C209.299 40.2433 209.786 40.38 210.393 40.38ZM231.013 42.5V36.12C231.013 35.4067 230.843 34.8533 230.503 34.46C230.17 34.06 229.707 33.86 229.113 33.86C228.733 33.86 228.403 33.95 228.123 34.13C227.843 34.3033 227.623 34.55 227.463 34.87C227.31 35.1833 227.233 35.5467 227.233 35.96L226.093 35.2C226.093 34.46 226.267 33.8067 226.613 33.24C226.967 32.6733 227.437 32.2333 228.023 31.92C228.617 31.6 229.273 31.44 229.993 31.44C231.227 31.44 232.157 31.8067 232.783 32.54C233.417 33.2667 233.733 34.22 233.733 35.4V42.5H231.013ZM217.993 42.5V31.7H220.393V35.28H220.733V42.5H217.993ZM224.513 42.5V36.12C224.513 35.4067 224.343 34.8533 224.003 34.46C223.67 34.06 223.207 33.86 222.613 33.86C222.047 33.86 221.59 34.0567 221.243 34.45C220.903 34.8367 220.733 35.34 220.733 35.96L219.593 35.16C219.593 34.4533 219.77 33.82 220.123 33.26C220.477 32.7 220.95 32.2567 221.543 31.93C222.143 31.6033 222.813 31.44 223.553 31.44C224.4 31.44 225.093 31.62 225.633 31.98C226.18 32.34 226.583 32.82 226.843 33.42C227.103 34.02 227.233 34.68 227.233 35.4V42.5H224.513ZM236.534 30.2V27.8H239.254V30.2H236.534ZM236.534 42.5V31.7H239.254V42.5H236.534ZM248.732 42.5C247.985 42.64 247.252 42.7 246.532 42.68C245.818 42.6667 245.178 42.5433 244.612 42.31C244.052 42.07 243.625 41.6867 243.332 41.16C243.065 40.6667 242.925 40.1667 242.912 39.66C242.898 39.1467 242.892 38.5667 242.892 37.92V28.7H245.612V37.76C245.612 38.18 245.615 38.56 245.622 38.9C245.635 39.2333 245.705 39.5 245.832 39.7C246.072 40.08 246.455 40.2867 246.982 40.32C247.508 40.3533 248.092 40.3267 248.732 40.24V42.5ZM241.052 33.8V31.7H248.732V33.8H241.052ZM255.142 42.5V28.1H261.222C261.362 28.1 261.549 28.1067 261.782 28.12C262.022 28.1267 262.236 28.1467 262.422 28.18C263.282 28.3133 263.986 28.5967 264.532 29.03C265.086 29.4633 265.492 30.01 265.752 30.67C266.012 31.3233 266.142 32.0533 266.142 32.86C266.142 34.0667 265.842 35.1 265.242 35.96C264.642 36.8133 263.702 37.34 262.422 37.54L261.222 37.62H257.862V42.5H255.142ZM263.262 42.5L260.422 36.64L263.222 36.1L266.342 42.5H263.262ZM257.862 35.08H261.102C261.242 35.08 261.396 35.0733 261.562 35.06C261.729 35.0467 261.882 35.02 262.022 34.98C262.389 34.88 262.672 34.7133 262.872 34.48C263.072 34.24 263.209 33.9767 263.282 33.69C263.362 33.3967 263.402 33.12 263.402 32.86C263.402 32.6 263.362 32.3267 263.282 32.04C263.209 31.7467 263.072 31.4833 262.872 31.25C262.672 31.01 262.389 30.84 262.022 30.74C261.882 30.7 261.729 30.6733 261.562 30.66C261.396 30.6467 261.242 30.64 261.102 30.64H257.862V35.08ZM273.561 42.8C272.454 42.8 271.477 42.5633 270.631 42.09C269.791 41.61 269.131 40.9533 268.651 40.12C268.177 39.28 267.941 38.32 267.941 37.24C267.941 36.06 268.174 35.0333 268.641 34.16C269.107 33.2867 269.751 32.61 270.571 32.13C271.391 31.6433 272.334 31.4 273.401 31.4C274.534 31.4 275.497 31.6667 276.291 32.2C277.084 32.7333 277.671 33.4833 278.051 34.45C278.431 35.4167 278.564 36.5533 278.451 37.86H275.761V36.86C275.761 35.76 275.584 34.97 275.231 34.49C274.884 34.0033 274.314 33.76 273.521 33.76C272.594 33.76 271.911 34.0433 271.471 34.61C271.037 35.17 270.821 36 270.821 37.1C270.821 38.1067 271.037 38.8867 271.471 39.44C271.911 39.9867 272.554 40.26 273.401 40.26C273.934 40.26 274.391 40.1433 274.771 39.91C275.151 39.6767 275.441 39.34 275.641 38.9L278.361 39.68C277.954 40.6667 277.311 41.4333 276.431 41.98C275.557 42.5267 274.601 42.8 273.561 42.8ZM269.981 37.86V35.84H277.141V37.86H269.981ZM285.716 42.8C284.642 42.8 283.746 42.55 283.026 42.05C282.306 41.55 281.762 40.87 281.396 40.01C281.036 39.15 280.856 38.18 280.856 37.1C280.856 36.02 281.036 35.05 281.396 34.19C281.756 33.33 282.286 32.65 282.986 32.15C283.686 31.65 284.549 31.4 285.576 31.4C286.609 31.4 287.509 31.6467 288.276 32.14C289.042 32.6333 289.636 33.31 290.056 34.17C290.482 35.0233 290.696 36 290.696 37.1C290.696 38.18 290.486 39.15 290.066 40.01C289.652 40.87 289.072 41.55 288.326 42.05C287.579 42.55 286.709 42.8 285.716 42.8ZM280.396 47.3V31.7H282.796V39.1H283.136V47.3H280.396ZM285.276 40.38C285.862 40.38 286.342 40.2333 286.716 39.94C287.089 39.6467 287.366 39.2533 287.546 38.76C287.726 38.26 287.816 37.7067 287.816 37.1C287.816 36.5 287.722 35.9533 287.536 35.46C287.349 34.96 287.059 34.5633 286.666 34.27C286.279 33.97 285.782 33.82 285.176 33.82C284.609 33.82 284.149 33.9567 283.796 34.23C283.449 34.5033 283.196 34.8867 283.036 35.38C282.876 35.8733 282.796 36.4467 282.796 37.1C282.796 37.7533 282.876 38.3267 283.036 38.82C283.196 39.3133 283.456 39.6967 283.816 39.97C284.182 40.2433 284.669 40.38 285.276 40.38ZM297.756 42.8C296.669 42.8 295.716 42.5567 294.896 42.07C294.076 41.5833 293.436 40.9133 292.976 40.06C292.523 39.2 292.296 38.2133 292.296 37.1C292.296 35.9733 292.529 34.9833 292.996 34.13C293.463 33.27 294.106 32.6 294.926 32.12C295.746 31.64 296.689 31.4 297.756 31.4C298.843 31.4 299.796 31.6433 300.616 32.13C301.443 32.6167 302.086 33.29 302.546 34.15C303.006 35.0033 303.236 35.9867 303.236 37.1C303.236 38.22 303.003 39.21 302.536 40.07C302.076 40.9233 301.433 41.5933 300.606 42.08C299.786 42.56 298.836 42.8 297.756 42.8ZM297.756 40.26C298.629 40.26 299.279 39.9667 299.706 39.38C300.139 38.7867 300.356 38.0267 300.356 37.1C300.356 36.14 300.136 35.3733 299.696 34.8C299.263 34.2267 298.616 33.94 297.756 33.94C297.163 33.94 296.676 34.0733 296.296 34.34C295.916 34.6067 295.633 34.9767 295.446 35.45C295.266 35.9233 295.176 36.4733 295.176 37.1C295.176 38.0667 295.393 38.8367 295.826 39.41C296.266 39.9767 296.909 40.26 297.756 40.26ZM305.435 42.5V31.7H307.835V34.34L307.575 34C307.715 33.6267 307.902 33.2867 308.135 32.98C308.368 32.6733 308.655 32.42 308.995 32.22C309.255 32.06 309.538 31.9367 309.845 31.85C310.152 31.7567 310.468 31.7 310.795 31.68C311.122 31.6533 311.448 31.66 311.775 31.7V34.24C311.475 34.1467 311.125 34.1167 310.725 34.15C310.332 34.1767 309.975 34.2667 309.655 34.42C309.335 34.5667 309.065 34.7633 308.845 35.01C308.625 35.25 308.458 35.5367 308.345 35.87C308.232 36.1967 308.175 36.5667 308.175 36.98V42.5H305.435ZM320.157 42.5C319.411 42.64 318.677 42.7 317.957 42.68C317.244 42.6667 316.604 42.5433 316.037 42.31C315.477 42.07 315.051 41.6867 314.757 41.16C314.491 40.6667 314.351 40.1667 314.337 39.66C314.324 39.1467 314.317 38.5667 314.317 37.92V28.7H317.037V37.76C317.037 38.18 317.041 38.56 317.047 38.9C317.061 39.2333 317.131 39.5 317.257 39.7C317.497 40.08 317.881 40.2867 318.407 40.32C318.934 40.3533 319.517 40.3267 320.157 40.24V42.5ZM312.477 33.8V31.7H320.157V33.8H312.477Z" fill="#F0F0F0"/>
</svg>
