<svg width="397" height="136" viewBox="0 0 397 136" fill="none" xmlns="http://www.w3.org/2000/svg">
<path d="M396.622 3.22135C396.744 2.68272 396.406 2.14713 395.868 2.02507L387.09 0.0360208C386.552 -0.0860375 386.016 0.25166 385.894 0.790288C385.772 1.32892 386.11 1.86451 386.648 1.98657L394.451 3.75461L392.682 11.5568C392.56 12.0954 392.898 12.631 393.437 12.7531C393.975 12.8751 394.511 12.5374 394.633 11.9988L396.622 3.22135ZM0.322193 62.6102C1.71304 63.5946 3.09689 64.5676 4.47381 65.5292L5.61897 63.8895C4.24552 62.9303 2.86509 61.9597 1.47761 60.9777L0.322193 62.6102ZM12.6527 71.1637C15.3543 72.9988 18.0287 74.7891 20.6764 76.5354L21.7776 74.8658C19.1376 73.1247 16.4708 71.3394 13.7764 69.5092L12.6527 71.1637ZM29.1222 82.0144C31.907 83.7903 34.6616 85.5162 37.3867 87.1928L38.4347 85.4894C35.719 83.8185 32.9735 82.0984 30.1975 80.3281L29.1222 82.0144ZM45.9054 92.3308C48.7735 94.0254 51.6083 95.6639 54.4104 97.2473L55.3943 95.5061C52.6037 93.9292 49.7801 92.2971 46.9227 90.6089L45.9054 92.3308ZM63.0722 102.023C66.0183 103.606 68.9276 105.127 71.8011 106.586L72.7067 104.803C69.8474 103.351 66.9518 101.838 64.0189 100.261L63.0722 102.023ZM80.6796 110.955C83.6949 112.391 86.6698 113.756 89.6058 115.054L90.4144 113.225C87.4961 111.935 84.5381 110.577 81.5392 109.149L80.6796 110.955ZM98.7615 118.934C101.833 120.178 104.861 121.345 107.847 122.438L108.534 120.56C105.57 119.475 102.563 118.316 99.5123 117.08L98.7615 118.934ZM117.316 125.701C120.512 126.732 123.659 127.675 126.759 128.533L127.293 126.605C124.22 125.755 121.1 124.82 117.93 123.797L117.316 125.701ZM136.295 130.937C139.606 131.689 142.862 132.341 146.068 132.896L146.409 130.925C143.239 130.376 140.016 129.731 136.738 128.987L136.295 130.937ZM155.859 134.312C159.189 134.697 162.463 134.975 165.685 135.15L165.793 133.153C162.613 132.98 159.379 132.706 156.088 132.325L155.859 134.312ZM175.588 135.367C178.953 135.33 182.261 135.179 185.517 134.919L185.357 132.925C182.148 133.181 178.885 133.331 175.566 133.367L175.588 135.367ZM195.368 133.782C198.665 133.282 201.91 132.671 205.106 131.953L204.667 130.002C201.517 130.709 198.319 131.312 195.069 131.804L195.368 133.782ZM214.689 129.449C217.865 128.501 220.994 127.45 224.084 126.303L223.387 124.428C220.337 125.561 217.249 126.598 214.118 127.532L214.689 129.449ZM233.261 122.567C236.274 121.233 239.253 119.81 242.202 118.306L241.293 116.524C238.375 118.013 235.43 119.42 232.452 120.738L233.261 122.567ZM250.898 113.592C253.741 111.962 256.561 110.259 259.364 108.491L258.297 106.8C255.516 108.554 252.72 110.242 249.903 111.857L250.898 113.592ZM267.621 103.067C270.324 101.224 273.014 99.3246 275.697 97.3759L274.522 95.7576C271.853 97.6959 269.179 99.5835 266.495 101.414L267.621 103.067ZM283.62 91.4705C286.22 89.4856 288.818 87.4594 291.418 85.3975L290.175 83.8304C287.584 85.8857 284.995 87.9043 282.406 89.8808L283.62 91.4705ZM299.089 79.2254C301.616 77.1653 304.149 75.0768 306.693 72.9653L305.415 71.4265C302.875 73.5351 300.346 75.6197 297.825 77.6752L299.089 79.2254ZM314.259 66.6495C316.762 64.5513 319.279 62.4354 321.813 60.3075L320.527 58.776C317.992 60.9046 315.476 63.0194 312.974 65.1168L314.259 66.6495ZM329.362 53.9803C331.862 51.8925 334.38 49.7974 336.922 47.6992L335.649 46.1567C333.103 48.2581 330.581 50.3558 328.08 52.4454L329.362 53.9803ZM344.537 41.4677C347.074 39.4119 349.636 37.3573 352.226 35.308L350.985 33.7395C348.388 35.7943 345.82 37.8538 343.278 39.9139L344.537 41.4677ZM359.98 29.2615C362.561 27.2793 365.172 25.306 367.817 23.3452L366.625 21.7387C363.972 23.7066 361.351 25.6868 358.762 27.6753L359.98 29.2615ZM375.771 17.5613C378.43 15.6679 381.122 13.7901 383.852 11.9315L382.727 10.2783C379.984 12.1453 377.28 14.0311 374.611 15.9323L375.771 17.5613ZM392.016 6.50784C393.394 5.61503 394.782 4.7277 396.18 3.84624L395.113 2.15445C393.708 3.04034 392.314 3.93206 390.929 4.82921L392.016 6.50784ZM396.622 3.22135C396.744 2.68272 396.406 2.14713 395.868 2.02507L387.09 0.0360208C386.552 -0.0860375 386.016 0.25166 385.894 0.790288C385.772 1.32892 386.11 1.86451 386.648 1.98657L394.451 3.75461L392.682 11.5568C392.56 12.0954 392.898 12.631 393.437 12.7531C393.975 12.8751 394.511 12.5374 394.633 11.9988L396.622 3.22135ZM0.322193 62.6102C1.71304 63.5946 3.09689 64.5676 4.47381 65.5292L5.61897 63.8895C4.24552 62.9303 2.86509 61.9597 1.47761 60.9777L0.322193 62.6102ZM12.6527 71.1637C15.3543 72.9988 18.0287 74.7891 20.6764 76.5354L21.7776 74.8658C19.1376 73.1247 16.4708 71.3394 13.7764 69.5092L12.6527 71.1637ZM29.1222 82.0144C31.907 83.7903 34.6616 85.5162 37.3867 87.1928L38.4347 85.4894C35.719 83.8185 32.9735 82.0984 30.1975 80.3281L29.1222 82.0144ZM45.9054 92.3308C48.7735 94.0254 51.6083 95.6639 54.4104 97.2473L55.3943 95.5061C52.6037 93.9292 49.7801 92.2971 46.9227 90.6089L45.9054 92.3308ZM63.0722 102.023C66.0183 103.606 68.9276 105.127 71.8011 106.586L72.7067 104.803C69.8474 103.351 66.9518 101.838 64.0189 100.261L63.0722 102.023ZM80.6796 110.955C83.6949 112.391 86.6698 113.756 89.6058 115.054L90.4144 113.225C87.4961 111.935 84.5381 110.577 81.5392 109.149L80.6796 110.955ZM98.7615 118.934C101.833 120.178 104.861 121.345 107.847 122.438L108.534 120.56C105.57 119.475 102.563 118.316 99.5123 117.08L98.7615 118.934ZM117.316 125.701C120.512 126.732 123.659 127.675 126.759 128.533L127.293 126.605C124.22 125.755 121.1 124.82 117.93 123.797L117.316 125.701ZM136.295 130.937C139.606 131.689 142.862 132.341 146.068 132.896L146.409 130.925C143.239 130.376 140.016 129.731 136.738 128.987L136.295 130.937ZM155.859 134.312C159.189 134.697 162.463 134.975 165.685 135.15L165.793 133.153C162.613 132.98 159.379 132.706 156.088 132.325L155.859 134.312ZM175.588 135.367C178.953 135.33 182.261 135.179 185.517 134.919L185.357 132.925C182.148 133.181 178.885 133.331 175.566 133.367L175.588 135.367ZM195.368 133.782C198.665 133.282 201.91 132.671 205.106 131.953L204.667 130.002C201.517 130.709 198.319 131.312 195.069 131.804L195.368 133.782ZM214.689 129.449C217.865 128.501 220.994 127.45 224.084 126.303L223.387 124.428C220.337 125.561 217.249 126.598 214.118 127.532L214.689 129.449ZM233.261 122.567C236.274 121.233 239.253 119.81 242.202 118.306L241.293 116.524C238.375 118.013 235.43 119.42 232.452 120.738L233.261 122.567ZM250.898 113.592C253.741 111.962 256.561 110.259 259.364 108.491L258.297 106.8C255.516 108.554 252.72 110.242 249.903 111.857L250.898 113.592ZM267.621 103.067C270.324 101.224 273.014 99.3246 275.697 97.3759L274.522 95.7576C271.853 97.6959 269.179 99.5835 266.495 101.414L267.621 103.067ZM283.62 91.4705C286.22 89.4856 288.818 87.4594 291.418 85.3975L290.175 83.8304C287.584 85.8857 284.995 87.9043 282.406 89.8808L283.62 91.4705ZM299.089 79.2254C301.616 77.1653 304.149 75.0768 306.693 72.9653L305.415 71.4265C302.875 73.5351 300.346 75.6197 297.825 77.6752L299.089 79.2254ZM314.259 66.6495C316.762 64.5513 319.279 62.4354 321.813 60.3075L320.527 58.776C317.992 60.9046 315.476 63.0194 312.974 65.1168L314.259 66.6495ZM329.362 53.9803C331.862 51.8925 334.38 49.7974 336.922 47.6992L335.649 46.1567C333.103 48.2581 330.581 50.3558 328.08 52.4454L329.362 53.9803ZM344.537 41.4677C347.074 39.4119 349.636 37.3573 352.226 35.308L350.985 33.7395C348.388 35.7943 345.82 37.8538 343.278 39.9139L344.537 41.4677ZM359.98 29.2615C362.561 27.2793 365.172 25.306 367.817 23.3452L366.625 21.7387C363.972 23.7066 361.351 25.6868 358.762 27.6753L359.98 29.2615ZM375.771 17.5613C378.43 15.6679 381.122 13.7901 383.852 11.9315L382.727 10.2783C379.984 12.1453 377.28 14.0311 374.611 15.9323L375.771 17.5613ZM392.016 6.50784C393.394 5.61503 394.782 4.7277 396.18 3.84624L395.113 2.15445C393.708 3.04034 392.314 3.93206 390.929 4.82921L392.016 6.50784Z" fill="black"/>
</svg>
