<svg width="40" height="40" viewBox="0 0 40 40" fill="none" xmlns="http://www.w3.org/2000/svg">
<rect width="40" height="40" fill="white"/>
<path d="M33.5941 13.0156L21.3013 8.41237C21.1604 8.35929 21.0041 8.35929 20.8631 8.41237L8.56998 13.0156C8.56912 13.0159 8.17624 13.1426 8.16412 13.601V21.7378C5.80765 22.1102 4 24.155 4 26.6145C4 29.3374 6.21498 31.5523 8.93776 31.5523C10.8082 31.5523 12.439 30.507 13.2768 28.97L20.8784 31.5935C20.8953 31.5997 21.0783 31.6671 21.2858 31.5935L33.5789 27.3507C33.831 27.2637 34 27.0266 34 26.7599V13.601C33.9883 13.1412 33.5949 13.0159 33.5941 13.0156ZM21.0822 9.66508L31.5927 13.6009L21.0822 17.5364L10.5715 13.6009L21.0822 9.66508ZM8.93776 30.3023C6.90437 30.3023 5.25002 28.648 5.25002 26.6146C5.25002 24.5812 6.90437 22.9269 8.93776 22.9269C10.9714 22.9269 12.6258 24.5813 12.6258 26.6146C12.6258 28.648 10.9714 30.3023 8.93776 30.3023ZM9.41414 21.7002V14.5024L20.457 18.6372V30.1258L13.7301 27.8041C13.8248 27.4228 13.8759 27.0246 13.8759 26.6145C13.8758 24.0525 11.9142 21.9407 9.41414 21.7002ZM32.75 26.3143L21.7072 30.1258V18.6372L32.75 14.5024V26.3143Z" fill="#004039"/>
<path d="M11.642 24.5819C11.3902 24.3463 10.9939 24.3585 10.7586 24.611L8.25455 27.2846L7.10984 26.1042C6.86965 25.8569 6.47414 25.8503 6.226 26.0907C5.97823 26.3309 5.9721 26.7267 6.21265 26.9745L7.81392 28.6259C8.16425 28.9782 8.59827 28.77 8.7187 28.6179L11.671 25.4655C11.907 25.2133 11.8938 24.8178 11.642 24.5819Z" fill="#004039"/>
</svg>
