<svg width="40" height="40" viewBox="0 0 40 40" fill="none" xmlns="http://www.w3.org/2000/svg">
<rect width="40" height="40" fill="white"/>
<path d="M31.5179 19.2803C31.5174 19.2751 31.5166 19.27 31.516 19.2648C31.5149 19.2564 31.5137 19.248 31.5121 19.2398C31.511 19.2335 31.5097 19.2274 31.5083 19.2213C31.5067 19.2142 31.5048 19.2073 31.5029 19.2004C31.5011 19.1939 31.4993 19.1874 31.4972 19.1811C31.495 19.1745 31.4925 19.168 31.49 19.1615C31.4877 19.1554 31.4855 19.1491 31.4829 19.1431C31.4779 19.1315 31.4725 19.1201 31.4665 19.109C31.4638 19.104 31.4608 19.0994 31.458 19.0945C31.4539 19.0876 31.4499 19.0807 31.4455 19.0739C31.4422 19.069 31.4387 19.0643 31.4353 19.0596C31.4323 19.0553 31.4295 19.0509 31.4263 19.0468L29.1675 16.1103C29.082 15.9991 28.9497 15.9339 28.8094 15.9339H23.3882V12.7716C23.3882 12.5221 23.1859 12.3198 22.9365 12.3198H8.93175C8.68227 12.3198 8.47998 12.5221 8.47998 12.7716V25.421C8.47998 25.6705 8.68226 25.8728 8.93175 25.8728H10.3325C10.5424 26.9026 11.455 27.6798 12.5459 27.6798C13.6367 27.6798 14.5494 26.9026 14.7592 25.8728H22.9365H24.789C24.9988 26.9026 25.9115 27.6798 27.0023 27.6798C28.0932 27.6798 29.0058 26.9026 29.2157 25.8728H31.0682C31.3177 25.8728 31.52 25.6705 31.52 25.421V19.3222C31.52 19.3082 31.5192 19.2942 31.5179 19.2803ZM28.587 16.8375L30.1508 18.8704H23.3882V16.8375H28.587ZM9.38352 15.0304H22.4847V21.3551H9.38352V15.0304ZM22.4847 13.2234V14.1269H9.38352V13.2234H22.4847ZM9.38352 22.2586H22.4847V24.9692H14.7592C14.5494 23.9394 13.6367 23.1622 12.5459 23.1622C11.455 23.1622 10.5424 23.9395 10.3325 24.9692H9.38352V22.2586ZM12.5459 26.7763C11.7986 26.7763 11.1906 26.1683 11.1906 25.421C11.1906 24.6737 11.7986 24.0657 12.5459 24.0657C13.2932 24.0657 13.9012 24.6737 13.9012 25.421C13.9012 26.1683 13.2932 26.7763 12.5459 26.7763ZM27.0023 26.7763C26.255 26.7763 25.6471 26.1683 25.6471 25.421C25.6471 24.6737 26.255 24.0657 27.0023 24.0657C27.7497 24.0657 28.3576 24.6737 28.3576 25.421C28.3576 26.1683 27.7497 26.7763 27.0023 26.7763ZM29.2157 24.9692C29.0059 23.9394 28.0932 23.1622 27.0024 23.1622C25.9115 23.1622 24.9989 23.9395 24.789 24.9692H23.3882V19.7739H30.6165V21.1292H29.7129C29.4635 21.1292 29.2612 21.3315 29.2612 21.581C29.2612 21.8305 29.4635 22.0328 29.7129 22.0328H30.6165V24.9692L29.2157 24.9692Z" fill="#004039"/>
</svg>
