<svg width="40" height="40" viewBox="0 0 40 40" fill="none" xmlns="http://www.w3.org/2000/svg">
<rect width="40" height="40" fill="white"/>
<path d="M7.47731 29.5686L19.8693 32.7782C19.9125 32.7902 19.9557 32.795 19.9997 32.795C20.0437 32.795 20.0869 32.7894 20.1301 32.7782L32.5221 29.5686C32.7517 29.5094 32.9117 29.3022 32.9117 29.0654V11.8414C32.9117 11.8294 32.9045 11.819 32.9037 11.807C32.9005 11.7574 32.8877 11.711 32.8701 11.6646C32.8621 11.6422 32.8581 11.6198 32.8469 11.5982C32.7805 11.4742 32.6685 11.3758 32.5213 11.3374L32.4989 11.3318C32.4965 11.331 32.4949 11.331 32.4925 11.3302L20.1293 8.12863C20.1213 8.12623 20.1141 8.12863 20.1061 8.12703C20.0709 8.11983 20.0349 8.12063 19.9981 8.12063C19.9621 8.12063 19.9277 8.11983 19.8933 8.12703C19.8853 8.12863 19.8765 8.12623 19.8685 8.12863L7.50451 11.331C7.50291 11.331 7.50131 11.3318 7.50051 11.3318L7.47731 11.3382C7.33011 11.3758 7.21811 11.475 7.15171 11.599C7.14051 11.6198 7.13651 11.643 7.12851 11.6654C7.11171 11.7118 7.09891 11.7574 7.09491 11.8078C7.09411 11.8198 7.08691 11.8302 7.08691 11.8422V29.0662C7.08691 29.3022 7.24771 29.5094 7.47731 29.5686ZM19.9997 9.16863L24.1229 10.2366L13.8037 12.9094L9.68051 11.8414L19.9997 9.16863ZM30.3189 11.8414L19.9997 14.5134L15.8765 13.4454L26.1957 10.7726L30.3189 11.8414ZM8.12771 12.5134L13.2829 13.8486V20.487C13.2829 20.7742 13.5157 21.007 13.8029 21.007C14.0901 21.007 14.3229 20.7742 14.3229 20.487V14.1182L19.4781 15.4534V31.6038L8.12771 28.663V12.5134ZM31.8717 28.663L20.5197 31.603V15.4526L31.8709 12.5126L31.8717 28.663ZM25.3605 20.2838C25.4045 20.2838 25.4477 20.2782 25.4909 20.267L30.1501 19.0606C30.3789 19.0014 30.5397 18.7942 30.5397 18.5574V15.5662C30.5397 15.4054 30.4645 15.2534 30.3373 15.155C30.2109 15.055 30.0429 15.0198 29.8885 15.063L25.2293 16.2702C24.9997 16.3294 24.8397 16.5366 24.8397 16.7734V19.7638C24.8397 19.9246 24.9149 20.0766 25.0421 20.175C25.1341 20.247 25.2469 20.2838 25.3605 20.2838ZM25.8813 17.1758L29.4997 16.2382V18.155L25.8813 19.0918V17.1758Z" fill="#004039"/>
</svg>
