<svg width="40" height="40" viewBox="0 0 40 40" fill="none" xmlns="http://www.w3.org/2000/svg">
<circle cx="20" cy="20" r="20" fill="white"/>
<path d="M7.4778 29.5686L19.8698 32.7782C19.913 32.7902 19.9562 32.795 20.0002 32.795C20.0442 32.795 20.0874 32.7894 20.1306 32.7782L32.5226 29.5686C32.7522 29.5094 32.9122 29.3022 32.9122 29.0654V11.8414C32.9122 11.8294 32.905 11.819 32.9042 11.807C32.901 11.7574 32.8882 11.711 32.8706 11.6646C32.8626 11.6422 32.8586 11.6198 32.8474 11.5982C32.781 11.4742 32.669 11.3758 32.5218 11.3374L32.4994 11.3318C32.497 11.331 32.4954 11.331 32.493 11.3302L20.1298 8.12863C20.1218 8.12623 20.1146 8.12863 20.1066 8.12703C20.0714 8.11983 20.0354 8.12063 19.9986 8.12063C19.9626 8.12063 19.9282 8.11983 19.8938 8.12703C19.8858 8.12863 19.877 8.12623 19.869 8.12863L7.505 11.331C7.5034 11.331 7.5018 11.3318 7.501 11.3318L7.4778 11.3382C7.3306 11.3758 7.2186 11.475 7.1522 11.599C7.141 11.6198 7.137 11.643 7.129 11.6654C7.1122 11.7118 7.0994 11.7574 7.0954 11.8078C7.0946 11.8198 7.0874 11.8302 7.0874 11.8422V29.0662C7.0874 29.3022 7.2482 29.5094 7.4778 29.5686ZM20.0002 9.16863L24.1234 10.2366L13.8042 12.9094L9.681 11.8414L20.0002 9.16863ZM30.3194 11.8414L20.0002 14.5134L15.877 13.4454L26.1962 10.7726L30.3194 11.8414ZM8.1282 12.5134L13.2834 13.8486V20.487C13.2834 20.7742 13.5162 21.007 13.8034 21.007C14.0906 21.007 14.3234 20.7742 14.3234 20.487V14.1182L19.4786 15.4534V31.6038L8.1282 28.663V12.5134ZM31.8722 28.663L20.5202 31.603V15.4526L31.8714 12.5126L31.8722 28.663ZM25.361 20.2838C25.405 20.2838 25.4482 20.2782 25.4914 20.267L30.1506 19.0606C30.3794 19.0014 30.5402 18.7942 30.5402 18.5574V15.5662C30.5402 15.4054 30.465 15.2534 30.3378 15.155C30.2114 15.055 30.0434 15.0198 29.889 15.063L25.2298 16.2702C25.0002 16.3294 24.8402 16.5366 24.8402 16.7734V19.7638C24.8402 19.9246 24.9154 20.0766 25.0426 20.175C25.1346 20.247 25.2474 20.2838 25.361 20.2838ZM25.8818 17.1758L29.5002 16.2382V18.155L25.8818 19.0918V17.1758Z" fill="#004039"/>
</svg>
