<svg width="40" height="40" viewBox="0 0 40 40" fill="none" xmlns="http://www.w3.org/2000/svg">
<circle cx="20" cy="20" r="20" fill="white"/>
<g clip-path="url(#clip0_712_55)">
<path d="M19.9998 20.0002C21.8408 20.0002 23.3332 18.5078 23.3332 16.6668C23.3332 14.8259 21.8408 13.3335 19.9998 13.3335C18.1589 13.3335 16.6665 14.8259 16.6665 16.6668C16.6665 18.5078 18.1589 20.0002 19.9998 20.0002Z" stroke="#004039" stroke-linecap="round" stroke-linejoin="round"/>
<path d="M28.3333 16.6668C28.358 18.0692 28.0008 19.4519 27.3 20.6668C25.6 23.5002 20 31.6668 20 31.6668C20 31.6668 14.4 23.5002 12.6833 20.6835C11.9854 19.462 11.6339 18.0733 11.6666 16.6668C11.6666 14.4567 12.5446 12.3371 14.1074 10.7743C15.6702 9.21147 17.7898 8.3335 20 8.3335C22.2101 8.3335 24.3297 9.21147 25.8925 10.7743C27.4553 12.3371 28.3333 14.4567 28.3333 16.6668Z" stroke="#004039" stroke-linecap="round" stroke-linejoin="round"/>
</g>
<defs>
<clipPath id="clip0_712_55">
<rect width="40" height="40" fill="white"/>
</clipPath>
</defs>
</svg>
