<svg width="40" height="40" viewBox="0 0 40 40" fill="none" xmlns="http://www.w3.org/2000/svg">
<rect width="40" height="40" fill="white"/>
<g clip-path="url(#clip0_712_77)">
<path d="M20.0003 20.0002C21.8413 20.0002 23.3337 18.5078 23.3337 16.6668C23.3337 14.8259 21.8413 13.3335 20.0003 13.3335C18.1594 13.3335 16.667 14.8259 16.667 16.6668C16.667 18.5078 18.1594 20.0002 20.0003 20.0002Z" stroke="#004039" stroke-linecap="round" stroke-linejoin="round"/>
<path d="M28.3338 16.6668C28.3585 18.0692 28.0013 19.4519 27.3005 20.6668C25.6005 23.5002 20.0005 31.6668 20.0005 31.6668C20.0005 31.6668 14.4005 23.5002 12.6838 20.6835C11.9859 19.462 11.6344 18.0733 11.6671 16.6668C11.6671 14.4567 12.5451 12.3371 14.1079 10.7743C15.6707 9.21147 17.7903 8.3335 20.0005 8.3335C22.2106 8.3335 24.3302 9.21147 25.893 10.7743C27.4558 12.3371 28.3338 14.4567 28.3338 16.6668Z" stroke="#004039" stroke-linecap="round" stroke-linejoin="round"/>
</g>
<defs>
<clipPath id="clip0_712_77">
<rect width="40" height="40" fill="white"/>
</clipPath>
</defs>
</svg>
