<svg width="1500" height="288" viewBox="0 0 1500 288" fill="none" xmlns="http://www.w3.org/2000/svg">
<path d="M322.56 58.4555L200.777 0.94908C197.341 -0.67653 193.269 -0.188535 190.315 2.21856L164.113 23.5097L137.909 2.21856C134.958 -0.181941 130.894 -0.673234 127.451 0.94908L5.66726 58.4555C2.59102 59.9063 0.480813 62.8376 0.0719652 66.2108C-0.336883 69.5841 1.01495 72.9343 3.65267 75.0776L32.4369 98.4659V219.543C32.4369 223.371 34.6427 226.852 38.1047 228.488L159.888 285.998C159.911 286.008 159.934 286.011 159.957 286.021C160.545 286.291 161.151 286.492 161.771 286.644C161.916 286.681 162.058 286.707 162.203 286.736C162.833 286.862 163.466 286.944 164.109 286.944H164.116C164.755 286.944 165.395 286.859 166.024 286.736C166.17 286.707 166.315 286.681 166.456 286.644C167.077 286.492 167.683 286.294 168.267 286.024C168.29 286.014 168.316 286.011 168.339 285.998L290.123 228.488C293.582 226.852 295.791 223.371 295.791 219.543V98.4659L324.572 75.0776C327.212 72.9343 328.565 69.5874 328.155 66.2108C327.751 62.8376 325.633 59.9063 322.56 58.4555ZM28.3319 69.6369L130.274 21.4984L145.681 34.0185L43.7362 82.157L28.3319 69.6369ZM154.224 261.439L52.2231 213.275V109.37L154.224 157.535V261.439ZM154.228 135.654L135.684 126.899L65.4975 93.7572L154.224 51.8607L154.228 135.654ZM174.01 51.8607L262.733 93.7572L174.01 135.654V51.8607ZM276.008 213.271L174.007 261.435V157.535L218.021 136.752L276.004 109.37V213.271H276.008ZM284.495 82.1537L195.098 39.9406L182.55 34.0152L197.961 21.4951L299.899 69.6336L284.495 82.1537Z" fill="url(#paint0_linear_831_90)"/>
<path d="M406.383 208.151C397.63 208.151 389.725 206.619 382.668 203.556C375.666 200.437 369.895 196.006 365.354 190.262C360.868 184.464 358.024 177.571 356.82 169.584L380.124 166.138C381.766 172.921 385.157 178.145 390.3 181.811C395.442 185.476 401.295 187.308 407.86 187.308C411.525 187.308 415.081 186.734 418.527 185.585C421.973 184.436 424.791 182.741 426.979 180.498C429.222 178.255 430.343 175.492 430.343 172.21C430.343 171.006 430.152 169.858 429.769 168.763C429.441 167.615 428.866 166.548 428.046 165.563C427.225 164.579 426.049 163.649 424.517 162.773C423.04 161.898 421.153 161.105 418.855 160.394L388.166 151.367C385.868 150.711 383.188 149.781 380.124 148.577C377.116 147.374 374.189 145.651 371.344 143.408C368.5 141.165 366.12 138.211 364.205 134.546C362.345 130.826 361.416 126.149 361.416 120.514C361.416 112.582 363.412 105.99 367.406 100.738C371.399 95.4867 376.733 91.5753 383.407 89.0042C390.081 86.433 397.466 85.1748 405.562 85.2295C413.713 85.339 420.989 86.7339 427.389 89.4144C433.79 92.095 439.151 96.0063 443.472 101.149C447.794 106.236 450.912 112.472 452.827 119.858L428.702 123.96C427.827 120.131 426.213 116.904 423.861 114.278C421.508 111.652 418.691 109.655 415.409 108.288C412.181 106.92 408.79 106.181 405.234 106.072C401.733 105.963 398.423 106.455 395.305 107.549C392.242 108.588 389.725 110.12 387.756 112.144C385.841 114.168 384.884 116.575 384.884 119.365C384.884 121.936 385.677 124.042 387.263 125.684C388.85 127.27 390.847 128.556 393.254 129.54C395.661 130.525 398.122 131.346 400.639 132.002L421.153 137.582C424.216 138.402 427.608 139.497 431.328 140.864C435.048 142.177 438.604 144.037 441.995 146.444C445.442 148.796 448.259 151.914 450.447 155.798C452.69 159.682 453.812 164.606 453.812 170.569C453.812 176.914 452.471 182.467 449.791 187.226C447.165 191.931 443.609 195.842 439.123 198.96C434.638 202.024 429.55 204.321 423.861 205.853C418.226 207.385 412.4 208.151 406.383 208.151ZM490.721 205.689L463.642 116.904L485.469 117.068L501.552 169.912L517.882 117.068H536.426L552.756 169.912L568.839 117.068H590.666L563.587 205.689H546.519L527.154 147.921L507.789 205.689H490.721ZM607.152 104.759V85.0654H629.471V104.759H607.152ZM607.152 205.689V117.068H629.471V205.689H607.152ZM661.456 205.689V117.396C661.456 115.153 661.511 112.609 661.62 109.765C661.729 106.92 662.167 104.048 662.933 101.149C663.754 98.2492 665.231 95.6234 667.364 93.2711C670.099 90.2077 673.053 88.1289 676.226 87.0348C679.454 85.886 682.572 85.2842 685.581 85.2295C688.589 85.1201 691.161 85.0654 693.294 85.0654H704.29V103.118H694.115C690.614 103.118 688.015 104.021 686.319 105.826C684.623 107.576 683.775 109.683 683.775 112.144V205.689H661.456ZM647.506 134.3V117.068H704.29V134.3H647.506ZM770.55 205.689C764.423 206.838 758.406 207.33 752.498 207.166C746.644 207.057 741.393 206.045 736.743 204.13C732.147 202.161 728.646 199.015 726.239 194.693C724.051 190.645 722.902 186.542 722.793 182.385C722.684 178.173 722.629 173.413 722.629 168.107V92.4506H744.948V166.794C744.948 170.24 744.976 173.359 745.03 176.149C745.14 178.884 745.714 181.072 746.754 182.713C748.723 185.831 751.868 187.527 756.19 187.801C760.512 188.074 765.298 187.855 770.55 187.144V205.689ZM707.53 134.3V117.068H770.55V134.3H707.53ZM790.298 205.689V87.5271H828.537C829.467 87.5271 831.382 87.5545 834.281 87.6092C837.18 87.6639 839.97 87.8554 842.651 88.1836C852.169 89.3324 860.238 92.642 866.857 98.1125C873.477 103.583 878.51 110.53 881.956 118.955C885.402 127.379 887.126 136.597 887.126 146.608C887.126 156.619 885.402 165.837 881.956 174.261C878.51 182.686 873.477 189.633 866.857 195.104C860.238 200.574 852.169 203.884 842.651 205.033C839.97 205.361 837.18 205.552 834.281 205.607C831.382 205.662 829.467 205.689 828.537 205.689H790.298ZM812.946 184.683H828.537C830.014 184.683 832.011 184.655 834.527 184.6C837.043 184.491 839.314 184.245 841.338 183.862C846.48 182.823 850.665 180.416 853.893 176.641C857.175 172.866 859.582 168.326 861.113 163.019C862.7 157.713 863.493 152.243 863.493 146.608C863.493 140.7 862.673 135.093 861.031 129.786C859.445 124.48 857.011 119.994 853.728 116.329C850.446 112.664 846.316 110.339 841.338 109.354C839.314 108.917 837.043 108.67 834.527 108.616C832.011 108.561 830.014 108.534 828.537 108.534H812.946V184.683ZM908.454 104.759V85.0654H930.773V104.759H908.454ZM908.454 205.689V117.068H930.773V205.689H908.454ZM990.002 208.151C978.842 208.151 969.816 205.634 962.923 200.602C956.085 195.514 951.928 188.348 950.451 179.103L973.262 175.656C974.192 179.814 976.244 183.069 979.417 185.421C982.644 187.773 986.72 188.949 991.643 188.949C995.691 188.949 998.809 188.184 1001 186.652C1003.19 185.065 1004.28 182.877 1004.28 180.087C1004.28 178.337 1003.84 176.942 1002.97 175.902C1002.09 174.808 1000.12 173.742 997.059 172.702C994.05 171.663 989.345 170.295 982.945 168.599C975.724 166.739 969.953 164.661 965.631 162.363C961.309 160.065 958.191 157.33 956.276 154.157C954.362 150.93 953.404 147.046 953.404 142.505C953.404 136.816 954.854 131.893 957.754 127.735C960.653 123.523 964.728 120.295 969.98 118.052C975.286 115.755 981.523 114.606 988.689 114.606C995.636 114.606 1001.79 115.673 1007.15 117.806C1012.51 119.94 1016.83 122.976 1020.12 126.914C1023.45 130.853 1025.51 135.503 1026.27 140.864L1003.46 144.967C1003.08 141.685 1001.65 139.086 999.192 137.172C996.731 135.257 993.394 134.135 989.181 133.807C985.079 133.534 981.769 134.081 979.252 135.448C976.791 136.816 975.56 138.785 975.56 141.356C975.56 142.888 976.08 144.174 977.119 145.213C978.213 146.253 980.429 147.319 983.766 148.413C987.157 149.507 992.3 150.93 999.192 152.68C1005.92 154.431 1011.31 156.482 1015.36 158.835C1019.46 161.132 1022.44 163.922 1024.3 167.204C1026.16 170.432 1027.09 174.343 1027.09 178.939C1027.09 188.019 1023.81 195.158 1017.24 200.355C1010.68 205.552 1001.6 208.151 990.002 208.151ZM1088.61 208.151C1079.81 208.151 1072.45 206.099 1066.54 201.997C1060.63 197.894 1056.17 192.314 1053.16 185.257C1050.21 178.2 1048.73 170.24 1048.73 161.378C1048.73 152.516 1050.21 144.557 1053.16 137.5C1056.12 130.443 1060.47 124.863 1066.21 120.76C1071.96 116.657 1079.04 114.606 1087.46 114.606C1095.94 114.606 1103.33 116.63 1109.62 120.678C1115.91 124.726 1120.78 130.279 1124.22 137.336C1127.72 144.338 1129.47 152.352 1129.47 161.378C1129.47 170.24 1127.76 178.2 1124.31 185.257C1120.92 192.314 1116.16 197.894 1110.03 201.997C1103.91 206.099 1096.76 208.151 1088.61 208.151ZM1044.96 245.076V117.068H1064.65V177.79H1067.44V245.076H1044.96ZM1085 188.293C1089.82 188.293 1093.76 187.09 1096.82 184.683C1099.88 182.276 1102.16 179.048 1103.63 175C1105.11 170.897 1105.84 166.356 1105.84 161.378C1105.84 156.455 1105.08 151.969 1103.54 147.921C1102.01 143.818 1099.64 140.563 1096.41 138.156C1093.24 135.695 1089.16 134.464 1084.18 134.464C1079.53 134.464 1075.76 135.585 1072.86 137.828C1070.01 140.071 1067.94 143.216 1066.62 147.265C1065.31 151.313 1064.65 156.017 1064.65 161.378C1064.65 166.739 1065.31 171.444 1066.62 175.492C1067.94 179.54 1070.07 182.686 1073.02 184.929C1076.03 187.172 1080.02 188.293 1085 188.293ZM1172.16 208.151C1165.81 208.151 1160.42 206.947 1155.98 204.54C1151.61 202.079 1148.27 198.824 1145.97 194.775C1143.73 190.673 1142.61 186.16 1142.61 181.236C1142.61 177.133 1143.24 173.386 1144.5 169.994C1145.75 166.603 1147.78 163.621 1150.57 161.05C1153.41 158.424 1157.22 156.236 1161.98 154.486C1165.26 153.282 1169.17 152.215 1173.71 151.285C1178.25 150.355 1183.39 149.48 1189.14 148.66C1194.88 147.784 1201.2 146.827 1208.1 145.788L1200.05 150.219C1200.05 144.967 1198.8 141.11 1196.28 138.649C1193.76 136.187 1189.55 134.956 1183.64 134.956C1180.36 134.956 1176.94 135.749 1173.38 137.336C1169.82 138.922 1167.34 141.739 1165.92 145.788L1145.73 139.387C1147.98 132.057 1152.19 126.094 1158.37 121.499C1164.55 116.904 1172.98 114.606 1183.64 114.606C1191.47 114.606 1198.41 115.809 1204.49 118.216C1210.56 120.623 1215.15 124.781 1218.27 130.689C1220.02 133.971 1221.06 137.254 1221.39 140.536C1221.72 143.818 1221.88 147.483 1221.88 151.532V205.689H1202.35V187.472L1205.14 191.247C1200.82 197.21 1196.14 201.532 1191.1 204.212C1186.13 206.838 1179.81 208.151 1172.16 208.151ZM1176.91 190.591C1181.02 190.591 1184.46 189.879 1187.25 188.457C1190.1 186.98 1192.34 185.312 1193.98 183.452C1195.68 181.592 1196.83 180.033 1197.43 178.774C1198.58 176.367 1199.23 173.577 1199.4 170.405C1199.62 167.177 1199.73 164.497 1199.73 162.363L1206.29 164.004C1199.67 165.098 1194.31 166.028 1190.21 166.794C1186.1 167.505 1182.79 168.162 1180.27 168.763C1177.76 169.365 1175.55 170.022 1173.63 170.733C1171.44 171.608 1169.66 172.565 1168.29 173.605C1166.98 174.59 1166 175.684 1165.34 176.887C1164.74 178.091 1164.44 179.431 1164.44 180.908C1164.44 182.932 1164.93 184.683 1165.92 186.16C1166.96 187.582 1168.4 188.676 1170.26 189.442C1172.12 190.208 1174.34 190.591 1176.91 190.591ZM1296.39 205.689C1290.26 206.838 1284.24 207.33 1278.34 207.166C1272.48 207.057 1267.23 206.045 1262.58 204.13C1257.99 202.161 1254.49 199.015 1252.08 194.693C1249.89 190.645 1248.74 186.542 1248.63 182.385C1248.52 178.173 1248.47 173.413 1248.47 168.107V92.4506H1270.79V166.794C1270.79 170.24 1270.81 173.359 1270.86 176.149C1270.97 178.884 1271.55 181.072 1272.59 182.713C1274.56 185.831 1277.7 187.527 1282.02 187.801C1286.35 188.074 1291.14 187.855 1296.39 187.144V205.689ZM1233.37 134.3V117.068H1296.39V134.3H1233.37ZM1350.38 208.151C1341.19 208.151 1333.31 206.099 1326.75 201.997C1320.19 197.894 1315.15 192.314 1311.65 185.257C1308.15 178.2 1306.4 170.24 1306.4 161.378C1306.4 152.407 1308.21 144.393 1311.82 137.336C1315.48 130.279 1320.62 124.726 1327.24 120.678C1333.86 116.63 1341.68 114.606 1350.71 114.606C1361.16 114.606 1369.91 117.259 1376.97 122.565C1384.08 127.817 1388.62 135.011 1390.59 144.146L1368.27 150.054C1366.96 145.459 1364.66 141.876 1361.38 139.305C1358.15 136.734 1354.49 135.448 1350.38 135.448C1345.68 135.448 1341.83 136.597 1338.82 138.895C1335.81 141.138 1333.59 144.228 1332.17 148.167C1330.74 152.051 1330.03 156.455 1330.03 161.378C1330.03 169.092 1331.73 175.355 1335.12 180.169C1338.57 184.929 1343.65 187.308 1350.38 187.308C1355.42 187.308 1359.24 186.16 1361.87 183.862C1364.5 181.564 1366.47 178.282 1367.78 174.015L1390.59 178.774C1388.07 188.184 1383.31 195.432 1376.31 200.519C1369.31 205.607 1360.67 208.151 1350.38 208.151ZM1467.4 205.689V163.84C1467.4 161.816 1467.29 159.245 1467.07 156.127C1466.85 152.954 1466.17 149.781 1465.02 146.608C1463.87 143.435 1461.98 140.782 1459.35 138.649C1456.78 136.515 1453.12 135.448 1448.36 135.448C1446.44 135.448 1444.4 135.749 1442.21 136.351C1440.02 136.953 1437.96 138.129 1436.05 139.879C1434.14 141.575 1432.55 144.092 1431.29 147.429C1430.09 150.766 1429.49 155.197 1429.49 160.722L1416.68 154.65C1416.68 147.647 1418.11 141.083 1420.95 134.956C1423.8 128.829 1428.06 123.878 1433.75 120.104C1439.5 116.329 1446.72 114.442 1455.42 114.442C1462.36 114.442 1468.03 115.618 1472.41 117.97C1476.78 120.323 1480.17 123.304 1482.58 126.914C1485.04 130.525 1486.79 134.3 1487.83 138.238C1488.87 142.122 1489.5 145.678 1489.72 148.906C1489.93 152.133 1490.04 154.486 1490.04 155.963V205.689H1467.4ZM1406.84 205.689V87.5271H1426.7V148.249H1429.49V205.689H1406.84Z" fill="#004039"/>
<defs>
<linearGradient id="paint0_linear_831_90" x1="164.114" y1="-3.86874e-07" x2="164.114" y2="286.944" gradientUnits="userSpaceOnUse">
<stop stop-color="#004039"/>
<stop offset="0.5" stop-color="#39B1A4"/>
<stop offset="1" stop-color="#2A9D90"/>
</linearGradient>
</defs>
</svg>
